<?xml version="1.0" encoding="UTF-8" standalone="no"?><svg xmlns="http://www.w3.org/2000/svg" xmlns:xlink="http://www.w3.org/1999/xlink" contentScriptType="application/ecmascript" contentStyleType="text/css" height="743px" preserveAspectRatio="none" style="width:1199px;height:743px;background:#FFFFFF;" version="1.1" viewBox="0 0 1199 743" width="1199px" zoomAndPan="magnify"><defs/><g><!--MD5=[0f5ecd50376a794f95ed415707394ddf]
cluster DN--><rect fill="#FFFFFF" height="234" style="stroke:#000000;stroke-width:1.5;" width="1166" x="27" y="42.0986"/><rect fill="#FFFFFF" height="10" style="stroke:#000000;stroke-width:1.5;" width="15" x="1173" y="47.0986"/><rect fill="#FFFFFF" height="2" style="stroke:#000000;stroke-width:1.5;" width="4" x="1171" y="49.0986"/><rect fill="#FFFFFF" height="2" style="stroke:#000000;stroke-width:1.5;" width="4" x="1171" y="53.0986"/><text fill="#000000" font-family="sans-serif" font-size="14" font-weight="bold" lengthAdjust="spacing" textLength="183" x="518.5" y="68.0938">Dragon Native (Python)</text><!--MD5=[7d8d5874f4ba7cc7e92fb4921965a5ff]
cluster DG--><rect fill="#FFFFFF" height="390" style="stroke:#000000;stroke-width:1.5;" width="684" x="29" y="326.0986"/><rect fill="#FFFFFF" height="10" style="stroke:#000000;stroke-width:1.5;" width="15" x="693" y="331.0986"/><rect fill="#FFFFFF" height="2" style="stroke:#000000;stroke-width:1.5;" width="4" x="691" y="333.0986"/><rect fill="#FFFFFF" height="2" style="stroke:#000000;stroke-width:1.5;" width="4" x="691" y="337.0986"/><text fill="#000000" font-family="sans-serif" font-size="14" font-weight="bold" lengthAdjust="spacing" textLength="137" x="302.5" y="352.0938">Dragon Client API</text><text fill="#000000" font-family="sans-serif" font-size="14" lengthAdjust="spacing" textLength="88" x="135" y="20.7969">KeyValue API</text><rect fill="#383838" height="12" style="stroke:#F8F8F8;stroke-width:1.5;" width="12" x="173" y="36.0986"/><text fill="#000000" font-family="sans-serif" font-size="14" lengthAdjust="spacing" textLength="83" x="1040.5" y="20.7969">Machine API</text><rect fill="#383838" height="12" style="stroke:#F8F8F8;stroke-width:1.5;" width="12" x="1076" y="36.0986"/><text fill="#000000" font-family="sans-serif" font-size="14" lengthAdjust="spacing" textLength="105" x="458.5" y="20.7969">Semaphore API</text><rect fill="#383838" height="12" style="stroke:#F8F8F8;stroke-width:1.5;" width="12" x="505" y="36.0986"/><text fill="#000000" font-family="sans-serif" font-size="14" lengthAdjust="spacing" textLength="57" x="935.5" y="20.7969">Lock API</text><rect fill="#383838" height="12" style="stroke:#F8F8F8;stroke-width:1.5;" width="12" x="958" y="36.0986"/><text fill="#000000" font-family="sans-serif" font-size="14" lengthAdjust="spacing" textLength="70" x="693" y="20.7969">Barrier API</text><rect fill="#383838" height="12" style="stroke:#F8F8F8;stroke-width:1.5;" width="12" x="722" y="36.0986"/><text fill="#000000" font-family="sans-serif" font-size="14" lengthAdjust="spacing" textLength="64" x="814" y="20.7969">Event API</text><rect fill="#383838" height="12" style="stroke:#F8F8F8;stroke-width:1.5;" width="12" x="840" y="36.0986"/><text fill="#000000" font-family="sans-serif" font-size="14" lengthAdjust="spacing" textLength="72" x="593" y="20.7969">Queue API</text><rect fill="#383838" height="12" style="stroke:#F8F8F8;stroke-width:1.5;" width="12" x="623" y="36.0986"/><!--MD5=[f66e6acd817b538bc04dea9e644c4eeb]
entity SEM--><rect fill="#F8F8F8" height="46.2969" style="stroke:#383838;stroke-width:1.5;" width="120" x="226" y="108.0986"/><rect fill="#F8F8F8" height="10" style="stroke:#383838;stroke-width:1.5;" width="15" x="326" y="113.0986"/><rect fill="#F8F8F8" height="2" style="stroke:#383838;stroke-width:1.5;" width="4" x="324" y="115.0986"/><rect fill="#F8F8F8" height="2" style="stroke:#383838;stroke-width:1.5;" width="4" x="324" y="119.0986"/><text fill="#000000" font-family="sans-serif" font-size="14" lengthAdjust="spacing" textLength="80" x="241" y="141.0938">Semaphore</text><!--MD5=[c2cd8b9456a4f97c1027519db1b662ad]
entity LCK--><rect fill="#F8F8F8" height="46.2969" style="stroke:#383838;stroke-width:1.5;" width="72" x="972" y="108.0986"/><rect fill="#F8F8F8" height="10" style="stroke:#383838;stroke-width:1.5;" width="15" x="1024" y="113.0986"/><rect fill="#F8F8F8" height="2" style="stroke:#383838;stroke-width:1.5;" width="4" x="1022" y="115.0986"/><rect fill="#F8F8F8" height="2" style="stroke:#383838;stroke-width:1.5;" width="4" x="1022" y="119.0986"/><text fill="#000000" font-family="sans-serif" font-size="14" lengthAdjust="spacing" textLength="32" x="987" y="141.0938">Lock</text><!--MD5=[07c5dceb9f67402b2181229ed0ccbe9c]
entity DBAR--><rect fill="#F8F8F8" height="46.2969" style="stroke:#383838;stroke-width:1.5;" width="85" x="737.5" y="108.0986"/><rect fill="#F8F8F8" height="10" style="stroke:#383838;stroke-width:1.5;" width="15" x="802.5" y="113.0986"/><rect fill="#F8F8F8" height="2" style="stroke:#383838;stroke-width:1.5;" width="4" x="800.5" y="115.0986"/><rect fill="#F8F8F8" height="2" style="stroke:#383838;stroke-width:1.5;" width="4" x="800.5" y="119.0986"/><text fill="#000000" font-family="sans-serif" font-size="14" lengthAdjust="spacing" textLength="45" x="752.5" y="141.0938">Barrier</text><!--MD5=[f664b171d46fe37ddaaa8e800b616d7d]
entity DEV--><rect fill="#F8F8F8" height="46.2969" style="stroke:#383838;stroke-width:1.5;" width="79" x="857.5" y="108.0986"/><rect fill="#F8F8F8" height="10" style="stroke:#383838;stroke-width:1.5;" width="15" x="916.5" y="113.0986"/><rect fill="#F8F8F8" height="2" style="stroke:#383838;stroke-width:1.5;" width="4" x="914.5" y="115.0986"/><rect fill="#F8F8F8" height="2" style="stroke:#383838;stroke-width:1.5;" width="4" x="914.5" y="119.0986"/><text fill="#000000" font-family="sans-serif" font-size="14" lengthAdjust="spacing" textLength="39" x="872.5" y="141.0938">Event</text><!--MD5=[15e73eba7d27a276b6b3ffc6eda8e90a]
entity DQ--><rect fill="#F8F8F8" height="46.2969" style="stroke:#383838;stroke-width:1.5;" width="87" x="381.5" y="108.0986"/><rect fill="#F8F8F8" height="10" style="stroke:#383838;stroke-width:1.5;" width="15" x="448.5" y="113.0986"/><rect fill="#F8F8F8" height="2" style="stroke:#383838;stroke-width:1.5;" width="4" x="446.5" y="115.0986"/><rect fill="#F8F8F8" height="2" style="stroke:#383838;stroke-width:1.5;" width="4" x="446.5" y="119.0986"/><text fill="#000000" font-family="sans-serif" font-size="14" lengthAdjust="spacing" textLength="47" x="396.5" y="141.0938">Queue</text><!--MD5=[f23f8fe84e1f7fa056982562dcba6ab6]
entity DMACH--><rect fill="#F8F8F8" height="46.2969" style="stroke:#383838;stroke-width:1.5;" width="98" x="1079" y="108.0986"/><rect fill="#F8F8F8" height="10" style="stroke:#383838;stroke-width:1.5;" width="15" x="1157" y="113.0986"/><rect fill="#F8F8F8" height="2" style="stroke:#383838;stroke-width:1.5;" width="4" x="1155" y="115.0986"/><rect fill="#F8F8F8" height="2" style="stroke:#383838;stroke-width:1.5;" width="4" x="1155" y="119.0986"/><text fill="#000000" font-family="sans-serif" font-size="14" lengthAdjust="spacing" textLength="58" x="1094" y="141.0938">Machine</text><!--MD5=[c8e0850785afbb5ab6e330485e15c0f4]
entity DDICT--><rect fill="#F8F8F8" height="46.2969" style="stroke:#383838;stroke-width:1.5;" width="147" x="43.5" y="108.0986"/><rect fill="#F8F8F8" height="10" style="stroke:#383838;stroke-width:1.5;" width="15" x="170.5" y="113.0986"/><rect fill="#F8F8F8" height="2" style="stroke:#383838;stroke-width:1.5;" width="4" x="168.5" y="115.0986"/><rect fill="#F8F8F8" height="2" style="stroke:#383838;stroke-width:1.5;" width="4" x="168.5" y="119.0986"/><text fill="#000000" font-family="sans-serif" font-size="14" lengthAdjust="spacing" textLength="107" x="58.5" y="141.0938">Distributed Dict</text><!--MD5=[f2f4757db172b99bde0c95b7d0d0177a]
entity DPWORK--><rect fill="#F8F8F8" height="46.2969" style="stroke:#383838;stroke-width:1.5;" width="127" x="48.5" y="214.0986"/><rect fill="#F8F8F8" height="10" style="stroke:#383838;stroke-width:1.5;" width="15" x="155.5" y="219.0986"/><rect fill="#F8F8F8" height="2" style="stroke:#383838;stroke-width:1.5;" width="4" x="153.5" y="221.0986"/><rect fill="#F8F8F8" height="2" style="stroke:#383838;stroke-width:1.5;" width="4" x="153.5" y="225.0986"/><text fill="#000000" font-family="sans-serif" font-size="14" lengthAdjust="spacing" textLength="87" x="63.5" y="247.0938">PoolWorkers</text><text fill="#000000" font-family="sans-serif" font-size="14" lengthAdjust="spacing" textLength="82" x="492" y="304.7969">Channel API</text><rect fill="#383838" height="12" style="stroke:#F8F8F8;stroke-width:1.5;" width="12" x="527" y="320.0986"/><text fill="#000000" font-family="sans-serif" font-size="14" lengthAdjust="spacing" textLength="81" x="330.5" y="304.7969">Process API</text><rect fill="#383838" height="12" style="stroke:#F8F8F8;stroke-width:1.5;" width="12" x="365" y="320.0986"/><text fill="#000000" font-family="sans-serif" font-size="14" lengthAdjust="spacing" textLength="66" x="14" y="304.7969">Setup API</text><rect fill="#383838" height="12" style="stroke:#F8F8F8;stroke-width:1.5;" width="12" x="41" y="320.0986"/><text fill="#000000" font-family="sans-serif" font-size="14" lengthAdjust="spacing" textLength="133" x="142.5" y="304.7969">Shared Memory API</text><rect fill="#383838" height="12" style="stroke:#F8F8F8;stroke-width:1.5;" width="12" x="203" y="320.0986"/><text fill="#000000" font-family="sans-serif" font-size="14" lengthAdjust="spacing" textLength="62" x="664" y="304.7969">Node API</text><rect fill="#383838" height="12" style="stroke:#F8F8F8;stroke-width:1.5;" width="12" x="689" y="320.0986"/><text fill="#000000" font-family="sans-serif" font-size="14" lengthAdjust="spacing" textLength="167" x="497.5" y="735.0938">Infrastructure Messages</text><rect fill="#383838" height="12" style="stroke:#F8F8F8;stroke-width:1.5;" width="12" x="575" y="710.0986"/><!--MD5=[c3aaa88f3c3ebff29d53d0e2e9e734cb]
entity DGCHAN--><rect fill="#F8F8F8" height="46.2969" style="stroke:#383838;stroke-width:1.5;" width="97" x="373.5" y="498.0986"/><rect fill="#F8F8F8" height="10" style="stroke:#383838;stroke-width:1.5;" width="15" x="450.5" y="503.0986"/><rect fill="#F8F8F8" height="2" style="stroke:#383838;stroke-width:1.5;" width="4" x="448.5" y="505.0986"/><rect fill="#F8F8F8" height="2" style="stroke:#383838;stroke-width:1.5;" width="4" x="448.5" y="509.0986"/><text fill="#000000" font-family="sans-serif" font-size="14" lengthAdjust="spacing" textLength="57" x="388.5" y="531.0938">Channel</text><!--MD5=[ef73e0c55873dde59c51f7add3d31c3a]
entity DGPROC--><rect fill="#F8F8F8" height="46.2969" style="stroke:#383838;stroke-width:1.5;" width="96" x="336" y="392.0986"/><rect fill="#F8F8F8" height="10" style="stroke:#383838;stroke-width:1.5;" width="15" x="412" y="397.0986"/><rect fill="#F8F8F8" height="2" style="stroke:#383838;stroke-width:1.5;" width="4" x="410" y="399.0986"/><rect fill="#F8F8F8" height="2" style="stroke:#383838;stroke-width:1.5;" width="4" x="410" y="403.0986"/><text fill="#000000" font-family="sans-serif" font-size="14" lengthAdjust="spacing" textLength="56" x="351" y="425.0938">Process</text><!--MD5=[2bd588a2f03676933b7ca2c6635e9970]
entity DGPOOL--><rect fill="#F8F8F8" height="46.2969" style="stroke:#383838;stroke-width:1.5;" width="70" x="268" y="498.0986"/><rect fill="#F8F8F8" height="10" style="stroke:#383838;stroke-width:1.5;" width="15" x="318" y="503.0986"/><rect fill="#F8F8F8" height="2" style="stroke:#383838;stroke-width:1.5;" width="4" x="316" y="505.0986"/><rect fill="#F8F8F8" height="2" style="stroke:#383838;stroke-width:1.5;" width="4" x="316" y="509.0986"/><text fill="#000000" font-family="sans-serif" font-size="14" lengthAdjust="spacing" textLength="30" x="283" y="531.0938">Pool</text><!--MD5=[49369dd674c0e632f53f54d2deda6ea6]
entity INFREQUEST--><rect fill="#F8F8F8" height="46.2969" style="stroke:#383838;stroke-width:1.5;" width="195" x="366.5" y="604.0986"/><rect fill="#F8F8F8" height="10" style="stroke:#383838;stroke-width:1.5;" width="15" x="541.5" y="609.0986"/><rect fill="#F8F8F8" height="2" style="stroke:#383838;stroke-width:1.5;" width="4" x="539.5" y="611.0986"/><rect fill="#F8F8F8" height="2" style="stroke:#383838;stroke-width:1.5;" width="4" x="539.5" y="615.0986"/><text fill="#000000" font-family="sans-serif" font-size="14" lengthAdjust="spacing" textLength="155" x="381.5" y="637.0938">Infrastructure Request</text><!--MD5=[9c337c56c78766f38292aea849c53d5f]
entity DGNODE--><rect fill="#F8F8F8" height="46.2969" style="stroke:#383838;stroke-width:1.5;" width="77" x="543.5" y="498.0986"/><rect fill="#F8F8F8" height="10" style="stroke:#383838;stroke-width:1.5;" width="15" x="600.5" y="503.0986"/><rect fill="#F8F8F8" height="2" style="stroke:#383838;stroke-width:1.5;" width="4" x="598.5" y="505.0986"/><rect fill="#F8F8F8" height="2" style="stroke:#383838;stroke-width:1.5;" width="4" x="598.5" y="509.0986"/><text fill="#000000" font-family="sans-serif" font-size="14" lengthAdjust="spacing" textLength="37" x="558.5" y="531.0938">Node</text><!--MD5=[580752258a657a3ebb1fe14db6e80f0b]
reverse link SEM to dsem_api--><path d="M327,103.0086 C327,103.0086 327,78.0986 327,78.0986 C327,78.0986 511,78.0986 511,78.0986 C511,78.0986 511,58.6786 511,48.3686 " fill="none" id="SEM-backto-dsem_api" style="stroke:#383838;stroke-width:1.0;"/><polygon fill="#383838" points="327,108.0086,331,99.0086,327,103.0086,323,99.0086,327,108.0086" style="stroke:#383838;stroke-width:1.0;"/><!--MD5=[e14b9bab076c5343b3d0a6d633d3b249]
reverse link LCK to dlock_api--><path d="M988.75,102.9786 C988.75,102.9786 988.75,43.0986 988.75,43.0986 C988.75,43.0986 977.58,43.0986 970.25,43.0986 " fill="none" id="LCK-backto-dlock_api" style="stroke:#383838;stroke-width:1.0;"/><polygon fill="#383838" points="988.75,107.9786,992.75,98.9786,988.75,102.9786,984.75,98.9786,988.75,107.9786" style="stroke:#383838;stroke-width:1.0;"/><!--MD5=[79e7088ab69dc883d42c0e33870f25ef]
reverse link DBAR to dbar_api--><path d="M732.06,117.0986 C732.06,117.0986 728,117.0986 728,117.0986 C728,117.0986 728,66.1486 728,48.2386 " fill="none" id="DBAR-backto-dbar_api" style="stroke:#383838;stroke-width:1.0;"/><polygon fill="#383838" points="737.06,117.0986,728.06,113.0986,732.06,117.0986,728.06,121.0986,737.06,117.0986" style="stroke:#383838;stroke-width:1.0;"/><!--MD5=[2e9c3dd5f69b7c47de060cae2ded1788]
reverse link DEV to dev_api--><path d="M872.5,102.9786 C872.5,102.9786 872.5,43.0986 872.5,43.0986 C872.5,43.0986 859.97,43.0986 852.15,43.0986 " fill="none" id="DEV-backto-dev_api" style="stroke:#383838;stroke-width:1.0;"/><polygon fill="#383838" points="872.5,107.9786,876.5,98.9786,872.5,102.9786,868.5,98.9786,872.5,107.9786" style="stroke:#383838;stroke-width:1.0;"/><!--MD5=[ec9fcf450a65b48305ea432b7e97093f]
reverse link DQ to dqueue_api--><path d="M473.83,113.0986 C473.83,113.0986 627,113.0986 627,113.0986 C627,113.0986 627,65.3186 627,48.1486 " fill="none" id="DQ-backto-dqueue_api" style="stroke:#383838;stroke-width:1.0;"/><polygon fill="#383838" points="468.83,113.0986,477.83,117.0986,473.83,113.0986,477.83,109.0986,468.83,113.0986" style="stroke:#383838;stroke-width:1.0;"/><!--MD5=[20871669bb57a1493475e17204639510]
reverse link DMACH to dmach_api--><path d="M1083.5,102.7186 C1083.5,102.7186 1083.5,48.2686 1083.5,48.2686 " fill="none" id="DMACH-backto-dmach_api" style="stroke:#383838;stroke-width:1.0;"/><polygon fill="#383838" points="1083.5,107.7186,1087.5,98.7186,1083.5,102.7186,1079.5,98.7186,1083.5,107.7186" style="stroke:#383838;stroke-width:1.0;"/><!--MD5=[64830547ca4841240ccdc7a271000b21]
reverse link DDICT to ddict_api--><path d="M179,102.7186 C179,102.7186 179,48.2686 179,48.2686 " fill="none" id="DDICT-backto-ddict_api" style="stroke:#383838;stroke-width:1.0;"/><polygon fill="#383838" points="179,107.7186,183,98.7186,179,102.7186,175,98.7186,179,107.7186" style="stroke:#383838;stroke-width:1.0;"/><!--MD5=[202add76bdcb5bb038fc297637c02b1d]
link DDICT to DPWORK--><path d="M112,154.0986 C112,154.0986 112,208.7786 112,208.7786 " fill="none" id="DDICT-to-DPWORK" style="stroke:#383838;stroke-width:1.0;"/><polygon fill="#383838" points="112,213.7786,116,204.7786,112,208.7786,108,204.7786,112,213.7786" style="stroke:#383838;stroke-width:1.0;"/><!--MD5=[87aeb4b5f73d755edd00c5a9f4b78c92]
link dgmachine_api to DGNODE--><path d="M698,332.1486 C698,365.0586 698,521.0986 698,521.0986 C698,521.0986 625.63,521.0986 625.63,521.0986 " fill="none" id="dgmachine_api-to-DGNODE" style="stroke:#383838;stroke-width:1.0;"/><polygon fill="#383838" points="620.63,521.0986,629.63,525.0986,625.63,521.0986,629.63,517.0986,620.63,521.0986" style="stroke:#383838;stroke-width:1.0;"/><!--MD5=[a3545b981be9dd3aa8578a0409e12a7f]
link dgchan_api to DGCHAN--><path d="M531,332.5186 C531,347.2286 531,382.0986 531,382.0986 C531,382.0986 449.75,382.0986 449.75,382.0986 C449.75,382.0986 449.75,492.8286 449.75,492.8286 " fill="none" id="dgchan_api-to-DGCHAN" style="stroke:#383838;stroke-width:1.0;"/><polygon fill="#383838" points="449.75,497.8286,453.75,488.8286,449.75,492.8286,445.75,488.8286,449.75,497.8286" style="stroke:#383838;stroke-width:1.0;"/><!--MD5=[90cc2efe0ea1b3d878d52ae5e8954c10]
link dgproc_api to DGPROC--><path d="M369,332.2186 C369,332.2186 369,386.8686 369,386.8686 " fill="none" id="dgproc_api-to-DGPROC" style="stroke:#383838;stroke-width:1.0;"/><polygon fill="#383838" points="369,391.8686,373,382.8686,369,386.8686,365,382.8686,369,391.8686" style="stroke:#383838;stroke-width:1.0;"/><!--MD5=[d4286fc7645b822b50d0c8be305981ec]
link dgpool_api to DGPOOL--><path d="M209,332.1486 C209,365.0586 209,521.0986 209,521.0986 C209,521.0986 263,521.0986 263,521.0986 " fill="none" id="dgpool_api-to-DGPOOL" style="stroke:#383838;stroke-width:1.0;"/><polygon fill="#383838" points="268,521.0986,259,517.0986,263,521.0986,259,525.0986,268,521.0986" style="stroke:#383838;stroke-width:1.0;"/><!--MD5=[e8d1273dca4468831bf62c3f361c5ddb]
link dgsetup_api to INFREQUEST--><path d="M45,332.1086 C45,374.5386 45,627.0986 45,627.0986 C45,627.0986 361.29,627.0986 361.29,627.0986 " fill="none" id="dgsetup_api-to-INFREQUEST" style="stroke:#383838;stroke-width:1.0;"/><polygon fill="#383838" points="366.29,627.0986,357.29,623.0986,361.29,627.0986,357.29,631.0986,366.29,627.0986" style="stroke:#383838;stroke-width:1.0;"/><!--MD5=[c44c8b2d54233fac4522ab75f733ac1a]
link INFREQUEST to p1--><path d="M561.53,627.0986 C572.04,627.0986 579,627.0986 579,627.0986 C579,627.0986 579,704.9786 579,704.9786 " fill="none" id="INFREQUEST-to-p1" style="stroke:#383838;stroke-width:1.0;"/><polygon fill="#383838" points="579,709.9786,583,700.9786,579,704.9786,575,700.9786,579,709.9786" style="stroke:#383838;stroke-width:1.0;"/><!--MD5=[8da3a8e19a45121740a66b728c011799]
link DGCHAN to INFREQUEST--><path d="M422,544.0986 C422,544.0986 422,598.7786 422,598.7786 " fill="none" id="DGCHAN-to-INFREQUEST" style="stroke:#383838;stroke-width:1.0;"/><polygon fill="#383838" points="422,603.7786,426,594.7786,422,598.7786,418,594.7786,422,603.7786" style="stroke:#383838;stroke-width:1.0;"/><!--MD5=[ef27a523e65352da09f9d3ce7cb4ef87]
link DGNODE to INFREQUEST--><path d="M552.5,544.0986 C552.5,544.0986 552.5,598.7786 552.5,598.7786 " fill="none" id="DGNODE-to-INFREQUEST" style="stroke:#383838;stroke-width:1.0;"/><polygon fill="#383838" points="552.5,603.7786,556.5,594.7786,552.5,598.7786,548.5,594.7786,552.5,603.7786" style="stroke:#383838;stroke-width:1.0;"/><!--MD5=[8cfa2af9ca418762f84f7b3f6663dce7]
link DGPROC to INFREQUEST--><path d="M371.17,438.1886 C371.17,438.1886 371.17,599.0386 371.17,599.0386 " fill="none" id="DGPROC-to-INFREQUEST" style="stroke:#383838;stroke-width:1.0;"/><polygon fill="#383838" points="371.17,604.0386,375.17,595.0386,371.17,599.0386,367.17,595.0386,371.17,604.0386" style="stroke:#383838;stroke-width:1.0;"/><!--MD5=[f404ffd907d6e9771d82daf24ad63915]
link DGPOOL to INFREQUEST--><path d="M338.23,521.0986 C353.88,521.0986 368.83,521.0986 368.83,521.0986 C368.83,521.0986 368.83,599.0986 368.83,599.0986 " fill="none" id="DGPOOL-to-INFREQUEST" style="stroke:#383838;stroke-width:1.0;"/><polygon fill="#383838" points="368.83,604.0986,372.83,595.0986,368.83,599.0986,364.83,595.0986,368.83,604.0986" style="stroke:#383838;stroke-width:1.0;"/><!--MD5=[5374f66cc920cecdf9f8502b00f6ab43]
link DGPROC to DGCHAN--><path d="M402.75,438.0986 C402.75,438.0986 402.75,492.7786 402.75,492.7786 " fill="none" id="DGPROC-to-DGCHAN" style="stroke:#383838;stroke-width:1.0;"/><polygon fill="#383838" points="402.75,497.7786,406.75,488.7786,402.75,492.7786,398.75,488.7786,402.75,497.7786" style="stroke:#383838;stroke-width:1.0;"/><!--MD5=[5bc4e89637b03cd01b04c6c2aef1cc0f]
link SEM to dgchan_api--><path d="M341,154.3186 C341,166.1686 341,178.0986 341,178.0986 C341,178.0986 531,178.0986 531,178.0986 C531,178.0986 531,314.7386 531,314.7386 " fill="none" id="SEM-to-dgchan_api" style="stroke:#383838;stroke-width:1.0;"/><polygon fill="#383838" points="531,319.7386,535,310.7386,531,314.7386,527,310.7386,531,319.7386" style="stroke:#383838;stroke-width:1.0;"/><!--MD5=[377579249ba8942fe65bf3b1f02506df]
link LCK to dgchan_api--><path d="M1008,154.4886 C1008,209.4186 1008,342.0986 1008,342.0986 C1008,342.0986 535,342.0986 535,342.0986 C535,342.0986 535,337.2386 535,337.2386 " fill="none" id="LCK-to-dgchan_api" style="stroke:#383838;stroke-width:1.0;"/><polygon fill="#383838" points="535,332.2386,531,341.2386,535,337.2386,539,341.2386,535,332.2386" style="stroke:#383838;stroke-width:1.0;"/><!--MD5=[182fef0bfde6a8a03ed813a149743b8f]
link DEV to dgchan_api--><path d="M897,154.2486 C897,160.7586 897,166.0986 897,166.0986 C897,166.0986 537,166.0986 537,166.0986 C537,166.0986 537,315.0186 537,315.0186 " fill="none" id="DEV-to-dgchan_api" style="stroke:#383838;stroke-width:1.0;"/><polygon fill="#383838" points="537,320.0186,541,311.0186,537,315.0186,533,311.0186,537,320.0186" style="stroke:#383838;stroke-width:1.0;"/><!--MD5=[fb1ee4465590295c05778e7a5c73f18b]
link DQ to dgchan_api--><path d="M468.62,150.0986 C498.59,150.0986 533,150.0986 533,150.0986 C533,150.0986 533,314.8386 533,314.8386 " fill="none" id="DQ-to-dgchan_api" style="stroke:#383838;stroke-width:1.0;"/><polygon fill="#383838" points="533,319.8386,537,310.8386,533,314.8386,529,310.8386,533,319.8386" style="stroke:#383838;stroke-width:1.0;"/><!--MD5=[b305c73ad8302bb27d76a5aa7db0e96f]
link DBAR to dgchan_api--><path d="M737.32,145.0986 C667.13,145.0986 535,145.0986 535,145.0986 C535,145.0986 535,315.0786 535,315.0786 " fill="none" id="DBAR-to-dgchan_api" style="stroke:#383838;stroke-width:1.0;"/><polygon fill="#383838" points="535,320.0786,539,311.0786,535,315.0786,531,311.0786,535,320.0786" style="stroke:#383838;stroke-width:1.0;"/><!--MD5=[2b456e21355e2b2055f7e2d99e27237b]
link DMACH to dgmachine_api--><path d="M1128,154.2286 C1128,205.8886 1128,326.0986 1128,326.0986 C1128,326.0986 706.12,326.0986 706.12,326.0986 " fill="none" id="DMACH-to-dgmachine_api" style="stroke:#383838;stroke-width:1.0;"/><polygon fill="#383838" points="701.12,326.0986,710.12,330.0986,706.12,326.0986,710.12,322.0986,701.12,326.0986" style="stroke:#383838;stroke-width:1.0;"/><!--MD5=[4cf21590a5546569dbe4f1b6b836f3af]
link DPWORK to dgproc_api--><path d="M175.53,237.0986 C251.63,237.0986 369,237.0986 369,237.0986 C369,237.0986 369,314.9786 369,314.9786 " fill="none" id="DPWORK-to-dgproc_api" style="stroke:#383838;stroke-width:1.0;"/><polygon fill="#383838" points="369,319.9786,373,310.9786,369,314.9786,365,310.9786,369,319.9786" style="stroke:#383838;stroke-width:1.0;"/><!--MD5=[6b94b147840d9a8c440cf1bae5ce85ac]
link DDICT to dgchan_api--><path d="M183,154.4186 C183,170.9086 183,190.0986 183,190.0986 C183,190.0986 529,190.0986 529,190.0986 C529,190.0986 529,314.8986 529,314.8986 " fill="none" id="DDICT-to-dgchan_api" style="stroke:#383838;stroke-width:1.0;"/><polygon fill="#383838" points="529,319.8986,533,310.8986,529,314.8986,525,310.8986,529,319.8986" style="stroke:#383838;stroke-width:1.0;"/><!--MD5=[7658277cc580c806104aa880990e1613]
link DDICT to dgproc_api--><path d="M179.25,154.3486 C179.25,175.0486 179.25,202.0986 179.25,202.0986 C179.25,202.0986 373,202.0986 373,202.0986 C373,202.0986 373,314.7786 373,314.7786 " fill="none" id="DDICT-to-dgproc_api" style="stroke:#383838;stroke-width:1.0;"/><polygon fill="#383838" points="373,319.7786,377,310.7786,373,314.7786,369,310.7786,373,319.7786" style="stroke:#383838;stroke-width:1.0;"/><!--MD5=[c2415c8a615467b2eabd72839ef03aa8]
link DDICT to dgpool_api--><path d="M186.75,154.2286 C186.75,205.8886 186.75,326.0986 186.75,326.0986 C186.75,326.0986 197.92,326.0986 197.92,326.0986 " fill="none" id="DDICT-to-dgpool_api" style="stroke:#383838;stroke-width:1.0;"/><polygon fill="#383838" points="202.92,326.0986,193.92,322.0986,197.92,326.0986,193.92,330.0986,202.92,326.0986" style="stroke:#383838;stroke-width:1.0;"/><!--MD5=[71517c386e0b428e9b20a4f995bdfbd0]
@startuml

' title "Dragon MPBridge Architecture"

skinparam componentStyle uml2
skinparam shadowing false
skinparam monochrome true

skinparam linetype ortho
' skinparam linetype polyline
' skinparam nodesep 50
' skinparam ranksep 50


component "Dragon Native (Python)" as DN {

    ' portin "Pipe API" as dpipe_api
    portin "KeyValue API" as ddict_api
    portin "Machine API" as dmach_api

    portin "Semaphore API" as dsem_api
    portin "Lock API" as dlock_api
    portin "Barrier API" as dbar_api
    portin "Event API" as dev_api
    portin "Queue API" as dqueue_api

    ' portin "Logging API" as dlog_api

    ' together {
        [Semaphore] as SEM
        [Lock] as LCK
        [Barrier] as DBAR
        [Event] as DEV
        [Queue] as DQ
    ' }

    [Machine] as DMACH
    ' [Pipe] as DPIPE
    [Distributed Dict] as DDICT
    [PoolWorkers] as DPWORK
    
    ' [Logging] as DLOG

    SEM <- - dsem_api
    LCK <- - dlock_api
    DBAR <- - dbar_api
    DEV <- - dev_api
    DQ <- - dqueue_api
    ' DPIPE <- - dpipe_api
    DMACH <- - dmach_api
    ' DLOG <- - dlog_api
    DDICT <- - ddict_api
    DDICT - -> DPWORK

}

component "Dragon Client API" as DG {
    
    portin "  Channel API  " as dgchan_api
    portin "  Process API  " as dgproc_api
    portin "  Setup API  " as dgsetup_api
    portin "  Shared Memory API  " as dgpool_api
    portin "  Node API  " as dgmachine_api
    port "  Infrastructure Messages  " as p1

    [Channel] as DGCHAN
    [Process] as DGPROC
    [Pool] as DGPOOL
    [Infrastructure Request] as INFREQUEST
    [Node] as DGNODE

    DGNODE <-u- dgmachine_api
    DGCHAN <-u- dgchan_api
    DGPROC <-u- dgproc_api
    DGPOOL <-u- dgpool_api
    INFREQUEST <-u- dgsetup_api
    INFREQUEST -d-> p1

    DGCHAN - -> INFREQUEST
    DGNODE - -> INFREQUEST
    DGPROC - -> INFREQUEST
    DGPOOL - -> INFREQUEST
    DGPROC - -> DGCHAN
}

' [c] 

SEM -d-> dgchan_api
LCK -d-> dgchan_api
DEV -d-> dgchan_api
DQ -d-> dgchan_api
DBAR -d-> dgchan_api
DMACH -d-> dgmachine_api
DPWORK -d-> dgproc_api
DDICT -d-> dgchan_api
DDICT -d-> dgproc_api
DDICT -d-> dgpool_api

' c <- - p1

'in case we want to hide components
hide $hidden
@enduml

@startuml


skinparam componentStyle uml2
skinparam shadowing false
skinparam monochrome true

skinparam linetype ortho


component "Dragon Native (Python)" as DN {

    portin "KeyValue API" as ddict_api
    portin "Machine API" as dmach_api

    portin "Semaphore API" as dsem_api
    portin "Lock API" as dlock_api
    portin "Barrier API" as dbar_api
    portin "Event API" as dev_api
    portin "Queue API" as dqueue_api


        [Semaphore] as SEM
        [Lock] as LCK
        [Barrier] as DBAR
        [Event] as DEV
        [Queue] as DQ

    [Machine] as DMACH
    [Distributed Dict] as DDICT
    [PoolWorkers] as DPWORK
    

    SEM <- - dsem_api
    LCK <- - dlock_api
    DBAR <- - dbar_api
    DEV <- - dev_api
    DQ <- - dqueue_api
    DMACH <- - dmach_api
    DDICT <- - ddict_api
    DDICT - -> DPWORK

}

component "Dragon Client API" as DG {
    
    portin "  Channel API  " as dgchan_api
    portin "  Process API  " as dgproc_api
    portin "  Setup API  " as dgsetup_api
    portin "  Shared Memory API  " as dgpool_api
    portin "  Node API  " as dgmachine_api
    port "  Infrastructure Messages  " as p1

    [Channel] as DGCHAN
    [Process] as DGPROC
    [Pool] as DGPOOL
    [Infrastructure Request] as INFREQUEST
    [Node] as DGNODE

    DGNODE <-u- dgmachine_api
    DGCHAN <-u- dgchan_api
    DGPROC <-u- dgproc_api
    DGPOOL <-u- dgpool_api
    INFREQUEST <-u- dgsetup_api
    INFREQUEST -d-> p1

    DGCHAN - -> INFREQUEST
    DGNODE - -> INFREQUEST
    DGPROC - -> INFREQUEST
    DGPOOL - -> INFREQUEST
    DGPROC - -> DGCHAN
}


SEM -d-> dgchan_api
LCK -d-> dgchan_api
DEV -d-> dgchan_api
DQ -d-> dgchan_api
DBAR -d-> dgchan_api
DMACH -d-> dgmachine_api
DPWORK -d-> dgproc_api
DDICT -d-> dgchan_api
DDICT -d-> dgproc_api
DDICT -d-> dgpool_api


hide $hidden
@enduml

PlantUML version 1.2022.1(Tue Feb 01 18:19:58 GMT 2022)
(GPL source distribution)
Java Runtime: OpenJDK Runtime Environment
JVM: OpenJDK 64-Bit Server VM
Default Encoding: UTF-8
Language: en
Country: US
--></g></svg>