<?xml version="1.0" encoding="UTF-8" standalone="no"?><svg xmlns="http://www.w3.org/2000/svg" xmlns:xlink="http://www.w3.org/1999/xlink" contentScriptType="application/ecmascript" contentStyleType="text/css" height="805px" preserveAspectRatio="none" style="width:1459px;height:805px;background:#FFFFFF;" version="1.1" viewBox="0 0 1459 805" width="1459px" zoomAndPan="magnify"><defs/><g><!--MD5=[7d8d5874f4ba7cc7e92fb4921965a5ff]
cluster DG--><rect fill="#FFFFFF" height="451" style="stroke:#000000;stroke-width:1.5;" width="604" x="497" y="42.0986"/><rect fill="#FFFFFF" height="10" style="stroke:#000000;stroke-width:1.5;" width="15" x="1081" y="47.0986"/><rect fill="#FFFFFF" height="2" style="stroke:#000000;stroke-width:1.5;" width="4" x="1079" y="49.0986"/><rect fill="#FFFFFF" height="2" style="stroke:#000000;stroke-width:1.5;" width="4" x="1079" y="53.0986"/><text fill="#000000" font-family="sans-serif" font-size="14" font-weight="bold" lengthAdjust="spacing" textLength="209" x="694.5" y="68.0938">Dragon Client API (Python)</text><!--MD5=[dd21a8c12a64ba0f177cfe0e7e11a31d]
cluster DINFRA--><rect fill="#FFFFFF" height="128" style="stroke:#000000;stroke-width:1.5;" width="1446" x="7" y="671.0986"/><rect fill="#FFFFFF" height="10" style="stroke:#000000;stroke-width:1.5;" width="15" x="1433" y="676.0986"/><rect fill="#FFFFFF" height="2" style="stroke:#000000;stroke-width:1.5;" width="4" x="1431" y="678.0986"/><rect fill="#FFFFFF" height="2" style="stroke:#000000;stroke-width:1.5;" width="4" x="1431" y="682.0986"/><text fill="#000000" font-family="sans-serif" font-size="14" font-weight="bold" lengthAdjust="spacing" textLength="351" x="554.5" y="697.0938">Dragon Infrastructure API (C,Cython,Python)</text><text fill="#000000" font-family="sans-serif" font-size="14" lengthAdjust="spacing" textLength="82" x="474" y="20.7969">Channel API</text><rect fill="#383838" height="12" style="stroke:#F8F8F8;stroke-width:1.5;" width="12" x="509" y="36.0986"/><text fill="#000000" font-family="sans-serif" font-size="14" lengthAdjust="spacing" textLength="81" x="614.5" y="20.7969">Process API</text><rect fill="#383838" height="12" style="stroke:#F8F8F8;stroke-width:1.5;" width="12" x="649" y="36.0986"/><text fill="#000000" font-family="sans-serif" font-size="14" lengthAdjust="spacing" textLength="66" x="762" y="20.7969">Setup API</text><rect fill="#383838" height="12" style="stroke:#F8F8F8;stroke-width:1.5;" width="12" x="789" y="36.0986"/><text fill="#000000" font-family="sans-serif" font-size="14" lengthAdjust="spacing" textLength="80" x="972" y="20.7969">Memory API</text><rect fill="#383838" height="12" style="stroke:#F8F8F8;stroke-width:1.5;" width="12" x="982" y="36.0986"/><text fill="#000000" font-family="sans-serif" font-size="14" lengthAdjust="spacing" textLength="62" x="882" y="20.7969">Node API</text><rect fill="#383838" height="12" style="stroke:#F8F8F8;stroke-width:1.5;" width="12" x="935" y="36.0986"/><text fill="#000000" font-family="sans-serif" font-size="14" lengthAdjust="spacing" textLength="171" x="629.5" y="512.0938">Messages &amp; Descriptors</text><rect fill="#383838" height="12" style="stroke:#F8F8F8;stroke-width:1.5;" width="12" x="709" y="487.0986"/><!--MD5=[c3aaa88f3c3ebff29d53d0e2e9e734cb]
entity DGCHAN--><rect fill="#F8F8F8" height="46.2969" style="stroke:#383838;stroke-width:1.5;" width="97" x="667.5" y="275.0986"/><rect fill="#F8F8F8" height="10" style="stroke:#383838;stroke-width:1.5;" width="15" x="744.5" y="280.0986"/><rect fill="#F8F8F8" height="2" style="stroke:#383838;stroke-width:1.5;" width="4" x="742.5" y="282.0986"/><rect fill="#F8F8F8" height="2" style="stroke:#383838;stroke-width:1.5;" width="4" x="742.5" y="286.0986"/><text fill="#000000" font-family="sans-serif" font-size="14" lengthAdjust="spacing" textLength="57" x="682.5" y="308.0938">Channel</text><!--MD5=[ef73e0c55873dde59c51f7add3d31c3a]
entity DGPROC--><rect fill="#F8F8F8" height="46.2969" style="stroke:#383838;stroke-width:1.5;" width="96" x="546" y="169.0986"/><rect fill="#F8F8F8" height="10" style="stroke:#383838;stroke-width:1.5;" width="15" x="622" y="174.0986"/><rect fill="#F8F8F8" height="2" style="stroke:#383838;stroke-width:1.5;" width="4" x="620" y="176.0986"/><rect fill="#F8F8F8" height="2" style="stroke:#383838;stroke-width:1.5;" width="4" x="620" y="180.0986"/><text fill="#000000" font-family="sans-serif" font-size="14" lengthAdjust="spacing" textLength="56" x="561" y="202.0938">Process</text><!--MD5=[2bd588a2f03676933b7ca2c6635e9970]
entity DGPOOL--><rect fill="#F8F8F8" height="46.2969" style="stroke:#383838;stroke-width:1.5;" width="70" x="949" y="275.0986"/><rect fill="#F8F8F8" height="10" style="stroke:#383838;stroke-width:1.5;" width="15" x="999" y="280.0986"/><rect fill="#F8F8F8" height="2" style="stroke:#383838;stroke-width:1.5;" width="4" x="997" y="282.0986"/><rect fill="#F8F8F8" height="2" style="stroke:#383838;stroke-width:1.5;" width="4" x="997" y="286.0986"/><text fill="#000000" font-family="sans-serif" font-size="14" lengthAdjust="spacing" textLength="30" x="964" y="308.0938">Pool</text><!--MD5=[aabd1dbc56d38a94a4634ad0b794d6da]
entity DGSETUP--><rect fill="#F8F8F8" height="46.2969" style="stroke:#383838;stroke-width:1.5;" width="81" x="677.5" y="169.0986"/><rect fill="#F8F8F8" height="10" style="stroke:#383838;stroke-width:1.5;" width="15" x="738.5" y="174.0986"/><rect fill="#F8F8F8" height="2" style="stroke:#383838;stroke-width:1.5;" width="4" x="736.5" y="176.0986"/><rect fill="#F8F8F8" height="2" style="stroke:#383838;stroke-width:1.5;" width="4" x="736.5" y="180.0986"/><text fill="#000000" font-family="sans-serif" font-size="14" lengthAdjust="spacing" textLength="41" x="692.5" y="202.0938">Setup</text><!--MD5=[eb1d6fff691ff8b66af7d2271bd6cf4b]
entity DGREQ--><rect fill="#F8F8F8" height="46.2969" style="stroke:#383838;stroke-width:1.5;" width="195" x="815.5" y="381.0986"/><rect fill="#F8F8F8" height="10" style="stroke:#383838;stroke-width:1.5;" width="15" x="990.5" y="386.0986"/><rect fill="#F8F8F8" height="2" style="stroke:#383838;stroke-width:1.5;" width="4" x="988.5" y="388.0986"/><rect fill="#F8F8F8" height="2" style="stroke:#383838;stroke-width:1.5;" width="4" x="988.5" y="392.0986"/><text fill="#000000" font-family="sans-serif" font-size="14" lengthAdjust="spacing" textLength="155" x="830.5" y="414.0938">Infrastructure Request</text><!--MD5=[9c337c56c78766f38292aea849c53d5f]
entity DGNODE--><rect fill="#F8F8F8" height="46.2969" style="stroke:#383838;stroke-width:1.5;" width="77" x="799.5" y="275.0986"/><rect fill="#F8F8F8" height="10" style="stroke:#383838;stroke-width:1.5;" width="15" x="856.5" y="280.0986"/><rect fill="#F8F8F8" height="2" style="stroke:#383838;stroke-width:1.5;" width="4" x="854.5" y="282.0986"/><rect fill="#F8F8F8" height="2" style="stroke:#383838;stroke-width:1.5;" width="4" x="854.5" y="286.0986"/><text fill="#000000" font-family="sans-serif" font-size="14" lengthAdjust="spacing" textLength="37" x="814.5" y="308.0938">Node</text><text fill="#000000" font-family="sans-serif" font-size="14" lengthAdjust="spacing" textLength="117" x="568.5" y="649.7969">Infrastructure API</text><rect fill="#383838" height="12" style="stroke:#F8F8F8;stroke-width:1.5;" width="12" x="621" y="665.0986"/><!--MD5=[fbb29d71e1a69f6cd9ab530252559ad3]
entity DCONN--><rect fill="#F8F8F8" height="46.2969" style="stroke:#383838;stroke-width:1.5;" width="120" x="914" y="737.0986"/><rect fill="#F8F8F8" height="10" style="stroke:#383838;stroke-width:1.5;" width="15" x="1014" y="742.0986"/><rect fill="#F8F8F8" height="2" style="stroke:#383838;stroke-width:1.5;" width="4" x="1012" y="744.0986"/><rect fill="#F8F8F8" height="2" style="stroke:#383838;stroke-width:1.5;" width="4" x="1012" y="748.0986"/><text fill="#000000" font-family="sans-serif" font-size="14" lengthAdjust="spacing" textLength="80" x="929" y="770.0938">Connection</text><!--MD5=[eb3363dfeb9fb97d594a707b911ec3b2]
entity IMSG--><rect fill="#F8F8F8" height="46.2969" style="stroke:#383838;stroke-width:1.5;" width="111" x="767.5" y="737.0986"/><rect fill="#F8F8F8" height="10" style="stroke:#383838;stroke-width:1.5;" width="15" x="858.5" y="742.0986"/><rect fill="#F8F8F8" height="2" style="stroke:#383838;stroke-width:1.5;" width="4" x="856.5" y="744.0986"/><rect fill="#F8F8F8" height="2" style="stroke:#383838;stroke-width:1.5;" width="4" x="856.5" y="748.0986"/><text fill="#000000" font-family="sans-serif" font-size="14" lengthAdjust="spacing" textLength="71" x="782.5" y="770.0938">Messages</text><!--MD5=[60bcd828ed16205ef7454fb594625cf4]
entity IFACTS--><rect fill="#F8F8F8" height="46.2969" style="stroke:#383838;stroke-width:1.5;" width="77" x="655.5" y="737.0986"/><rect fill="#F8F8F8" height="10" style="stroke:#383838;stroke-width:1.5;" width="15" x="712.5" y="742.0986"/><rect fill="#F8F8F8" height="2" style="stroke:#383838;stroke-width:1.5;" width="4" x="710.5" y="744.0986"/><rect fill="#F8F8F8" height="2" style="stroke:#383838;stroke-width:1.5;" width="4" x="710.5" y="748.0986"/><text fill="#000000" font-family="sans-serif" font-size="14" lengthAdjust="spacing" textLength="37" x="670.5" y="770.0938">Facts</text><!--MD5=[aac5b869ff40da5a7fe8e211852f1b5a]
entity IPARAM--><rect fill="#F8F8F8" height="46.2969" style="stroke:#383838;stroke-width:1.5;" width="119" x="501.5" y="737.0986"/><rect fill="#F8F8F8" height="10" style="stroke:#383838;stroke-width:1.5;" width="15" x="600.5" y="742.0986"/><rect fill="#F8F8F8" height="2" style="stroke:#383838;stroke-width:1.5;" width="4" x="598.5" y="744.0986"/><rect fill="#F8F8F8" height="2" style="stroke:#383838;stroke-width:1.5;" width="4" x="598.5" y="748.0986"/><text fill="#000000" font-family="sans-serif" font-size="14" lengthAdjust="spacing" textLength="79" x="516.5" y="770.0938">Parameters</text><!--MD5=[2290accb18badb2ab33b36cb98d0ca62]
entity IUTIL--><rect fill="#F8F8F8" height="46.2969" style="stroke:#383838;stroke-width:1.5;" width="61" x="405.5" y="737.0986"/><rect fill="#F8F8F8" height="10" style="stroke:#383838;stroke-width:1.5;" width="15" x="446.5" y="742.0986"/><rect fill="#F8F8F8" height="2" style="stroke:#383838;stroke-width:1.5;" width="4" x="444.5" y="744.0986"/><rect fill="#F8F8F8" height="2" style="stroke:#383838;stroke-width:1.5;" width="4" x="444.5" y="748.0986"/><text fill="#000000" font-family="sans-serif" font-size="14" lengthAdjust="spacing" textLength="21" x="420.5" y="770.0938">Util</text><!--MD5=[3c0a0b8a7849012ead052ef1fc396eb6]
entity IDESC--><rect fill="#F8F8F8" height="46.2969" style="stroke:#383838;stroke-width:1.5;" width="216" x="154" y="737.0986"/><rect fill="#F8F8F8" height="10" style="stroke:#383838;stroke-width:1.5;" width="15" x="350" y="742.0986"/><rect fill="#F8F8F8" height="2" style="stroke:#383838;stroke-width:1.5;" width="4" x="348" y="744.0986"/><rect fill="#F8F8F8" height="2" style="stroke:#383838;stroke-width:1.5;" width="4" x="348" y="748.0986"/><text fill="#000000" font-family="sans-serif" font-size="14" lengthAdjust="spacing" textLength="176" x="169" y="770.0938">Infrastructure Descriptors</text><!--MD5=[d9bbd395d93bdddd3abe33cf663a7d8d]
entity ILOG--><rect fill="#F8F8F8" height="46.2969" style="stroke:#383838;stroke-width:1.5;" width="95" x="23.5" y="737.0986"/><rect fill="#F8F8F8" height="10" style="stroke:#383838;stroke-width:1.5;" width="15" x="98.5" y="742.0986"/><rect fill="#F8F8F8" height="2" style="stroke:#383838;stroke-width:1.5;" width="4" x="96.5" y="744.0986"/><rect fill="#F8F8F8" height="2" style="stroke:#383838;stroke-width:1.5;" width="4" x="96.5" y="748.0986"/><text fill="#000000" font-family="sans-serif" font-size="14" lengthAdjust="spacing" textLength="55" x="38.5" y="770.0938">Logging</text><!--MD5=[66223a172ae9ceac77f27ebc9b631536]
entity GS--><rect fill="#F8F8F8" height="46.2969" style="stroke:#383838;stroke-width:1.5;" width="145" x="829.5" y="559.0986"/><rect fill="#F8F8F8" height="10" style="stroke:#383838;stroke-width:1.5;" width="15" x="954.5" y="564.0986"/><rect fill="#F8F8F8" height="2" style="stroke:#383838;stroke-width:1.5;" width="4" x="952.5" y="566.0986"/><rect fill="#F8F8F8" height="2" style="stroke:#383838;stroke-width:1.5;" width="4" x="952.5" y="570.0986"/><text fill="#000000" font-family="sans-serif" font-size="14" lengthAdjust="spacing" textLength="105" x="844.5" y="592.0938">Global Services</text><!--MD5=[b7fa9e127540e0ea6b429eafe2d11ea0]
entity LS--><rect fill="#F8F8F8" height="46.2969" style="stroke:#383838;stroke-width:1.5;" width="137" x="174.5" y="559.0986"/><rect fill="#F8F8F8" height="10" style="stroke:#383838;stroke-width:1.5;" width="15" x="291.5" y="564.0986"/><rect fill="#F8F8F8" height="2" style="stroke:#383838;stroke-width:1.5;" width="4" x="289.5" y="566.0986"/><rect fill="#F8F8F8" height="2" style="stroke:#383838;stroke-width:1.5;" width="4" x="289.5" y="570.0986"/><text fill="#000000" font-family="sans-serif" font-size="14" lengthAdjust="spacing" textLength="97" x="189.5" y="592.0938">Local Services</text><!--MD5=[b77750067e160c5e66c823a87f4eba16]
entity LB--><rect fill="#F8F8F8" height="46.2969" style="stroke:#383838;stroke-width:1.5;" width="169" x="346.5" y="559.0986"/><rect fill="#F8F8F8" height="10" style="stroke:#383838;stroke-width:1.5;" width="15" x="495.5" y="564.0986"/><rect fill="#F8F8F8" height="2" style="stroke:#383838;stroke-width:1.5;" width="4" x="493.5" y="566.0986"/><rect fill="#F8F8F8" height="2" style="stroke:#383838;stroke-width:1.5;" width="4" x="493.5" y="570.0986"/><text fill="#000000" font-family="sans-serif" font-size="14" lengthAdjust="spacing" textLength="129" x="361.5" y="592.0938">Launcher Backend</text><!--MD5=[1c663e8795769970bce8935b899ece12]
entity TA--><rect fill="#F8F8F8" height="46.2969" style="stroke:#383838;stroke-width:1.5;" width="152" x="551" y="559.0986"/><rect fill="#F8F8F8" height="10" style="stroke:#383838;stroke-width:1.5;" width="15" x="683" y="564.0986"/><rect fill="#F8F8F8" height="2" style="stroke:#383838;stroke-width:1.5;" width="4" x="681" y="566.0986"/><rect fill="#F8F8F8" height="2" style="stroke:#383838;stroke-width:1.5;" width="4" x="681" y="570.0986"/><text fill="#000000" font-family="sans-serif" font-size="14" lengthAdjust="spacing" textLength="112" x="566" y="592.0938">Transport Agent</text><!--MD5=[37248a1d45b6e1db3948c1efca8b231e]
link dgnode_api to DGNODE--><path d="M939,48.2786 C939,64.8686 939,109.0986 939,109.0986 C939,109.0986 778.25,109.0986 778.25,109.0986 C778.25,109.0986 778.25,298.0986 778.25,298.0986 C778.25,298.0986 794.48,298.0986 794.48,298.0986 " fill="none" id="dgnode_api-to-DGNODE" style="stroke:#383838;stroke-width:1.0;"/><polygon fill="#383838" points="799.48,298.0986,790.48,294.0986,794.48,298.0986,790.48,302.0986,799.48,298.0986" style="stroke:#383838;stroke-width:1.0;"/><!--MD5=[a3545b981be9dd3aa8578a0409e12a7f]
link dgchan_api to DGCHAN--><path d="M521.26,42.0986 C526.63,42.0986 533.5,42.0986 533.5,42.0986 C533.5,42.0986 533.5,298.0986 533.5,298.0986 C533.5,298.0986 662.09,298.0986 662.09,298.0986 " fill="none" id="dgchan_api-to-DGCHAN" style="stroke:#383838;stroke-width:1.0;"/><polygon fill="#383838" points="667.09,298.0986,658.09,294.0986,662.09,298.0986,658.09,302.0986,667.09,298.0986" style="stroke:#383838;stroke-width:1.0;"/><!--MD5=[90cc2efe0ea1b3d878d52ae5e8954c10]
link dgproc_api to DGPROC--><path d="M648.74,43.0986 C640.76,43.0986 628,43.0986 628,43.0986 C628,43.0986 628,163.8186 628,163.8186 " fill="none" id="dgproc_api-to-DGPROC" style="stroke:#383838;stroke-width:1.0;"/><polygon fill="#383838" points="628,168.8186,632,159.8186,628,163.8186,624,159.8186,628,168.8186" style="stroke:#383838;stroke-width:1.0;"/><!--MD5=[d4286fc7645b822b50d0c8be305981ec]
link dgpool_api to DGPOOL--><path d="M994.27,43.0986 C1004.58,43.0986 1024,43.0986 1024,43.0986 C1024,43.0986 1024,298.0986 1024,298.0986 C1024,298.0986 1023.51,298.0986 1023.51,298.0986 " fill="none" id="dgpool_api-to-DGPOOL" style="stroke:#383838;stroke-width:1.0;"/><polygon fill="#383838" points="1019.1,298.0986,1028.1,302.0986,1024.1,298.0986,1028.1,294.0986,1019.1,298.0986" style="stroke:#383838;stroke-width:1.0;"/><!--MD5=[100c03525cce4c5f09a9a06213e205aa]
link dgsetup_api to DGSETUP--><path d="M797.25,48.2086 C797.25,74.4186 797.25,176.0986 797.25,176.0986 C797.25,176.0986 763.55,176.0986 763.55,176.0986 " fill="none" id="dgsetup_api-to-DGSETUP" style="stroke:#383838;stroke-width:1.0;"/><polygon fill="#383838" points="758.55,176.0986,767.55,180.0986,763.55,176.0986,767.55,172.0986,758.55,176.0986" style="stroke:#383838;stroke-width:1.0;"/><!--MD5=[2ec72f39f132c71cff8f37fa246e5a47]
link DGCHAN to DGREQ--><path d="M748.5,321.3086 C748.5,350.5686 748.5,397.0986 748.5,397.0986 C748.5,397.0986 810.41,397.0986 810.41,397.0986 " fill="none" id="DGCHAN-to-DGREQ" style="stroke:#383838;stroke-width:1.0;"/><polygon fill="#383838" points="815.41,397.0986,806.41,393.0986,810.41,397.0986,806.41,401.0986,815.41,397.0986" style="stroke:#383838;stroke-width:1.0;"/><!--MD5=[1245c90c87f058d216785b535e6f5b30]
link DGNODE to DGREQ--><path d="M846,321.0986 C846,321.0986 846,375.7786 846,375.7786 " fill="none" id="DGNODE-to-DGREQ" style="stroke:#383838;stroke-width:1.0;"/><polygon fill="#383838" points="846,380.7786,850,371.7786,846,375.7786,842,371.7786,846,380.7786" style="stroke:#383838;stroke-width:1.0;"/><!--MD5=[def375e4edc2a9f66101df6bfb502747]
link DGPROC to DGREQ--><path d="M611.67,215.2286 C611.67,271.7086 611.67,412.0986 611.67,412.0986 C611.67,412.0986 810.17,412.0986 810.17,412.0986 " fill="none" id="DGPROC-to-DGREQ" style="stroke:#383838;stroke-width:1.0;"/><polygon fill="#383838" points="815.17,412.0986,806.17,408.0986,810.17,412.0986,806.17,416.0986,815.17,412.0986" style="stroke:#383838;stroke-width:1.0;"/><!--MD5=[30e1211117ea6276c66d3be3de0c0405]
link DGPOOL to DGREQ--><path d="M979.75,321.0986 C979.75,321.0986 979.75,375.7786 979.75,375.7786 " fill="none" id="DGPOOL-to-DGREQ" style="stroke:#383838;stroke-width:1.0;"/><polygon fill="#383838" points="979.75,380.7786,983.75,371.7786,979.75,375.7786,975.75,371.7786,979.75,380.7786" style="stroke:#383838;stroke-width:1.0;"/><!--MD5=[5374f66cc920cecdf9f8502b00f6ab43]
link DGPROC to DGCHAN--><path d="M642.37,192.0986 C658.53,192.0986 672.5,192.0986 672.5,192.0986 C672.5,192.0986 672.5,270.0986 672.5,270.0986 " fill="none" id="DGPROC-to-DGCHAN" style="stroke:#383838;stroke-width:1.0;"/><polygon fill="#383838" points="672.5,275.0986,676.5,266.0986,672.5,270.0986,668.5,266.0986,672.5,275.0986" style="stroke:#383838;stroke-width:1.0;"/><!--MD5=[bba4a8bdad119a9dad1098e2caeb8fef]
link DGCHAN to dg_msg--><path d="M715,321.2286 C715,321.2286 715,481.8386 715,481.8386 " fill="none" id="DGCHAN-to-dg_msg" style="stroke:#383838;stroke-width:1.0;"/><polygon fill="#383838" points="715,486.8386,719,477.8386,715,481.8386,711,477.8386,715,486.8386" style="stroke:#383838;stroke-width:1.0;"/><!--MD5=[52ca0b8c32bbaab5e49907c770526c8a]
link DGPOOL to dg_msg--><path d="M1014.75,321.1986 C1014.75,373.4286 1014.75,496.0986 1014.75,496.0986 C1014.75,496.0986 726.26,496.0986 726.26,496.0986 " fill="none" id="DGPOOL-to-dg_msg" style="stroke:#383838;stroke-width:1.0;"/><polygon fill="#383838" points="721.26,496.0986,730.26,500.0986,726.26,496.0986,730.26,492.0986,721.26,496.0986" style="stroke:#383838;stroke-width:1.0;"/><!--MD5=[a5b2d85bada77ba72e6407696ba69411]
link DGPROC to dg_msg--><path d="M581.33,215.2186 C581.33,285.6986 581.33,493.0986 581.33,493.0986 C581.33,493.0986 703.91,493.0986 703.91,493.0986 " fill="none" id="DGPROC-to-dg_msg" style="stroke:#383838;stroke-width:1.0;"/><polygon fill="#383838" points="708.91,493.0986,699.91,489.0986,703.91,493.0986,699.91,497.0986,708.91,493.0986" style="stroke:#383838;stroke-width:1.0;"/><!--MD5=[7966fc466214b04dc49d15374f2f7d4a]
link DGNODE to dg_msg--><path d="M807.5,321.2286 C807.5,372.8886 807.5,493.0986 807.5,493.0986 C807.5,493.0986 726.07,493.0986 726.07,493.0986 " fill="none" id="DGNODE-to-dg_msg" style="stroke:#383838;stroke-width:1.0;"/><polygon fill="#383838" points="721.07,493.0986,730.07,497.0986,726.07,493.0986,730.07,489.0986,721.07,493.0986" style="stroke:#383838;stroke-width:1.0;"/><!--MD5=[58076e6872b8048272be9abc098c4d51]
reverse link IMSG to inf_api--><path d="M783.62,731.8686 C783.62,731.8686 783.62,675.0986 783.62,675.0986 C783.62,675.0986 662.64,675.0986 633.33,675.0986 " fill="none" id="IMSG-backto-inf_api" style="stroke:#383838;stroke-width:1.0;"/><polygon fill="#383838" points="783.62,736.8686,787.62,727.8686,783.62,731.8686,779.62,727.8686,783.62,736.8686" style="stroke:#383838;stroke-width:1.0;"/><!--MD5=[1b11f4249a3603f1527e3a21e9da88d1]
reverse link IUTIL to inf_api--><path d="M436,731.8686 C436,731.8686 436,675.0986 436,675.0986 C436,675.0986 587.5,675.0986 620.65,675.0986 " fill="none" id="IUTIL-backto-inf_api" style="stroke:#383838;stroke-width:1.0;"/><polygon fill="#383838" points="436,736.8686,440,727.8686,436,731.8686,432,727.8686,436,736.8686" style="stroke:#383838;stroke-width:1.0;"/><!--MD5=[bc6de7d74c699f612b65eb89237ec6de]
reverse link IDESC to inf_api--><path d="M358.25,731.7886 C358.25,731.7886 358.25,673.0986 358.25,673.0986 C358.25,673.0986 580.88,673.0986 620.88,673.0986 " fill="none" id="IDESC-backto-inf_api" style="stroke:#383838;stroke-width:1.0;"/><polygon fill="#383838" points="358.25,736.7886,362.25,727.7886,358.25,731.7886,354.25,727.7886,358.25,736.7886" style="stroke:#383838;stroke-width:1.0;"/><!--MD5=[97e57123b6fb0d2f7da8335e1569c9e4]
reverse link IFACTS to inf_api--><path d="M650.44,753.0986 C650.44,753.0986 629,753.0986 629,753.0986 C629,753.0986 629,696.3286 629,677.2586 " fill="none" id="IFACTS-backto-inf_api" style="stroke:#383838;stroke-width:1.0;"/><polygon fill="#383838" points="655.44,753.0986,646.44,749.0986,650.44,753.0986,646.44,757.0986,655.44,753.0986" style="stroke:#383838;stroke-width:1.0;"/><!--MD5=[270b2abda54c4400238b9c803f1f7aa9]
reverse link IPARAM to inf_api--><path d="M624.58,768.0986 C624.58,768.0986 625,768.0986 625,768.0986 C625,768.0986 625,698.3986 625,677.1686 " fill="none" id="IPARAM-backto-inf_api" style="stroke:#383838;stroke-width:1.0;"/><polygon fill="#383838" points="620.8,768.0986,629.8,772.0986,625.8,768.0986,629.8,764.0986,620.8,768.0986" style="stroke:#383838;stroke-width:1.0;"/><!--MD5=[5d555f9d26f07d1c7b228b8ae8ed6c03]
reverse link DCONN to inf_api--><path d="M944.25,731.7886 C944.25,731.7886 944.25,673.0986 944.25,673.0986 C944.25,673.0986 676.91,673.0986 633.05,673.0986 " fill="none" id="DCONN-backto-inf_api" style="stroke:#383838;stroke-width:1.0;"/><polygon fill="#383838" points="944.25,736.7886,948.25,727.7886,944.25,731.7886,940.25,727.7886,944.25,736.7886" style="stroke:#383838;stroke-width:1.0;"/><!--MD5=[63ba770b2ee415d0c0a0abfd7ee9068a]
reverse link ILOG to inf_api--><path d="M71,731.7186 C71,731.7186 71,671.0986 71,671.0986 C71,671.0986 559.67,671.0986 620.76,671.0986 " fill="none" id="ILOG-backto-inf_api" style="stroke:#383838;stroke-width:1.0;"/><polygon fill="#383838" points="71,736.7186,75,727.7186,71,731.7186,67,727.7186,71,736.7186" style="stroke:#383838;stroke-width:1.0;"/><!--MD5=[78b17b55c1fb675d20c0a0a273383780]
link DGREQ to GS--><path d="M902,432.3686 C902,432.3686 902,553.8186 902,553.8186 " fill="none" id="DGREQ-GS" style="stroke:#383838;stroke-width:1.0;"/><polygon fill="#383838" points="902,558.8186,906,549.8186,902,553.8186,898,549.8186,902,558.8186" style="stroke:#383838;stroke-width:1.0;"/><polygon fill="#383838" points="902,427.3686,898,436.3686,902,432.3686,906,436.3686,902,427.3686" style="stroke:#383838;stroke-width:1.0;"/><!--MD5=[adedc1ece3343493df6eac19aad360a1]
link GS to inf_api--><path d="M854,610.4086 C854,610.4086 854,669.0986 854,669.0986 C854,669.0986 638.07,669.0986 638.07,669.0986 " fill="none" id="GS-inf_api" style="stroke:#383838;stroke-width:1.0;"/><polygon fill="#383838" points="633.07,669.0986,642.07,673.0986,638.07,669.0986,642.07,665.0986,633.07,669.0986" style="stroke:#383838;stroke-width:1.0;"/><polygon fill="#383838" points="854,605.4086,850,614.4086,854,610.4086,858,614.4086,854,605.4086" style="stroke:#383838;stroke-width:1.0;"/><!--MD5=[370a573a0a30f9663068a326c54ac6fa]
link LS to inf_api--><path d="M243,610.4086 C243,610.4086 243,669.0986 243,669.0986 C243,669.0986 615.97,669.0986 615.97,669.0986 " fill="none" id="LS-inf_api" style="stroke:#383838;stroke-width:1.0;"/><polygon fill="#383838" points="620.97,669.0986,611.97,665.0986,615.97,669.0986,611.97,673.0986,620.97,669.0986" style="stroke:#383838;stroke-width:1.0;"/><polygon fill="#383838" points="243,605.4086,239,614.4086,243,610.4086,247,614.4086,243,605.4086" style="stroke:#383838;stroke-width:1.0;"/><!--MD5=[261897e04681e29a05bb0e9a2be0c6ec]
link TA to inf_api--><path d="M627,610.4786 C627,610.4786 627,659.9286 627,659.9286 " fill="none" id="TA-inf_api" style="stroke:#383838;stroke-width:1.0;"/><polygon fill="#383838" points="627,664.9286,631,655.9286,627,659.9286,623,655.9286,627,664.9286" style="stroke:#383838;stroke-width:1.0;"/><polygon fill="#383838" points="627,605.4786,623,614.4786,627,610.4786,631,614.4786,627,605.4786" style="stroke:#383838;stroke-width:1.0;"/><!--MD5=[bfbb31aa798291465988a3068616138b]
link LB to inf_api--><path d="M508.5,610.3286 C508.5,610.3286 508.5,667.0986 508.5,667.0986 C508.5,667.0986 615.96,667.0986 615.96,667.0986 " fill="none" id="LB-inf_api" style="stroke:#383838;stroke-width:1.0;"/><polygon fill="#383838" points="620.96,667.0986,611.96,663.0986,615.96,667.0986,611.96,671.0986,620.96,667.0986" style="stroke:#383838;stroke-width:1.0;"/><polygon fill="#383838" points="508.5,605.3286,504.5,614.3286,508.5,610.3286,512.5,614.3286,508.5,605.3286" style="stroke:#383838;stroke-width:1.0;"/><!--MD5=[aacd768b1b82cfadbb61edfdfde88fa0]
link dg_msg to inf_api--><path d="M715,499.2886 C715,530.2886 715,667.0986 715,667.0986 C715,667.0986 638.05,667.0986 638.05,667.0986 " fill="none" id="dg_msg-to-inf_api" style="stroke:#383838;stroke-width:1.0;"/><polygon fill="#383838" points="633.05,667.0986,642.05,671.0986,638.05,667.0986,642.05,663.0986,633.05,667.0986" style="stroke:#383838;stroke-width:1.0;"/><!--MD5=[ce8a4895778b2c22401bca4b2a925615]
@startuml

' title "Dragon GS Client Architecture"

skinparam componentStyle uml2
skinparam shadowing false
skinparam monochrome true

skinparam linetype ortho
' skinparam linetype polyline

' skinparam nodesep 60
' skinparam ranksep 60


component "Dragon Client API (Python)" as DG {
    
    portin "Channel API" as dgchan_api
    portin "Process API" as dgproc_api
    portin "Setup API" as dgsetup_api
    portin "            Memory API" as dgpool_api
    portin "Node API              " as dgnode_api
    portout "Messages & Descriptors" as dg_msg

    [Channel] as DGCHAN
    [Process] as DGPROC
    [Pool] as DGPOOL
    [Setup] as DGSETUP
    [Infrastructure Request] as DGREQ
    [Node] as DGNODE

    DGNODE <- -u- - dgnode_api
    DGCHAN <-u- dgchan_api
    DGPROC <-u- dgproc_api
    DGPOOL <-u- dgpool_api
    DGSETUP <-u- dgsetup_api

    DGCHAN - -> DGREQ
    DGNODE - -> DGREQ
    DGPROC - -> DGREQ
    DGPOOL - -> DGREQ
    DGPROC - -> DGCHAN

    DGCHAN - - -> dg_msg
    DGPOOL - - -> dg_msg
    DGPROC - - -> dg_msg
    DGNODE - - ->dg_msg

}


[Global Services] as GS 
[Local Services] as LS
[Launcher Backend] as LB 
[Transport Agent] as TA 


component "Dragon Infrastructure API (C,Cython,Python)" as DINFRA {

    portin "Infrastructure API" as inf_api
    
    [Connection] as DCONN
    [Messages] as IMSG
    [Facts] as IFACTS
    [Parameters] as IPARAM
    [Util] as IUTIL
    [Infrastructure Descriptors] as IDESC
    [Logging] as ILOG

    IMSG <- - inf_api
    IUTIL <- - inf_api
    IDESC <- - inf_api
    IFACTS <- - inf_api
    IPARAM <- - inf_api
    DCONN <- - inf_api
    ILOG <- - inf_api

}

' dgsetup_api <- - GS
DGREQ <- - -> GS
GS <- -> inf_api
LS <- -> inf_api
TA <- -> inf_api
LB <- -> inf_api
dg_msg - -> inf_api


'in case we want to hide components
hide $hidden
@enduml

@startuml


skinparam componentStyle uml2
skinparam shadowing false
skinparam monochrome true

skinparam linetype ortho



component "Dragon Client API (Python)" as DG {
    
    portin "Channel API" as dgchan_api
    portin "Process API" as dgproc_api
    portin "Setup API" as dgsetup_api
    portin "            Memory API" as dgpool_api
    portin "Node API              " as dgnode_api
    portout "Messages & Descriptors" as dg_msg

    [Channel] as DGCHAN
    [Process] as DGPROC
    [Pool] as DGPOOL
    [Setup] as DGSETUP
    [Infrastructure Request] as DGREQ
    [Node] as DGNODE

    DGNODE <- -u- - dgnode_api
    DGCHAN <-u- dgchan_api
    DGPROC <-u- dgproc_api
    DGPOOL <-u- dgpool_api
    DGSETUP <-u- dgsetup_api

    DGCHAN - -> DGREQ
    DGNODE - -> DGREQ
    DGPROC - -> DGREQ
    DGPOOL - -> DGREQ
    DGPROC - -> DGCHAN

    DGCHAN - - -> dg_msg
    DGPOOL - - -> dg_msg
    DGPROC - - -> dg_msg
    DGNODE - - ->dg_msg

}


[Global Services] as GS 
[Local Services] as LS
[Launcher Backend] as LB 
[Transport Agent] as TA 


component "Dragon Infrastructure API (C,Cython,Python)" as DINFRA {

    portin "Infrastructure API" as inf_api
    
    [Connection] as DCONN
    [Messages] as IMSG
    [Facts] as IFACTS
    [Parameters] as IPARAM
    [Util] as IUTIL
    [Infrastructure Descriptors] as IDESC
    [Logging] as ILOG

    IMSG <- - inf_api
    IUTIL <- - inf_api
    IDESC <- - inf_api
    IFACTS <- - inf_api
    IPARAM <- - inf_api
    DCONN <- - inf_api
    ILOG <- - inf_api

}

DGREQ <- - -> GS
GS <- -> inf_api
LS <- -> inf_api
TA <- -> inf_api
LB <- -> inf_api
dg_msg - -> inf_api


hide $hidden
@enduml

PlantUML version 1.2022.1(Tue Feb 01 18:19:58 GMT 2022)
(GPL source distribution)
Java Runtime: OpenJDK Runtime Environment
JVM: OpenJDK 64-Bit Server VM
Default Encoding: UTF-8
Language: en
Country: US
--></g></svg>