<?xml version="1.0" encoding="UTF-8" standalone="no"?><svg xmlns="http://www.w3.org/2000/svg" xmlns:xlink="http://www.w3.org/1999/xlink" contentScriptType="application/ecmascript" contentStyleType="text/css" height="1222px" preserveAspectRatio="none" style="width:1389px;height:1222px;background:#FFFFFF;" version="1.1" viewBox="0 0 1389 1222" width="1389px" zoomAndPan="magnify"><defs/><g><!--MD5=[7e1e92e062311c271c811d9ef740cf0d]
cluster LN--><rect fill="#FFFFFF" height="97" style="stroke:#000000;stroke-width:1.5;" width="204" x="68" y="196"/><path d="M167,196 L167,205.2969 L157,215.2969 L68,215.2969 " fill="none" style="stroke:#000000;stroke-width:1.5;"/><text fill="#000000" font-family="sans-serif" font-size="14" font-weight="bold" lengthAdjust="spacing" textLength="89" x="71" y="209.9951">Login Node</text><!--MD5=[92f468f81943dabb51d56443a1da7a39]
cluster Remote host / compute node--><rect fill="#FFFFFF" height="215" style="stroke:#000000;stroke-width:1.5;" width="245" x="708" y="1001"/><path d="M947,1001 L947,1010.2969 L937,1020.2969 L708,1020.2969 " fill="none" style="stroke:#000000;stroke-width:1.5;"/><text fill="#000000" font-family="sans-serif" font-size="14" font-weight="bold" lengthAdjust="spacing" textLength="229" x="711" y="1014.9951">Remote host / compute node</text><!--MD5=[be5bd8078a15da2e085004f54fa3ec41]
cluster Infrastructure Managed Memory--><polygon fill="#FFFFFF" points="16,435,276,435,283,457.2969,951,457.2969,951,768,16,768,16,435" style="stroke:#000000;stroke-width:1.5;"/><line style="stroke:#000000;stroke-width:1.5;" x1="16" x2="283" y1="457.2969" y2="457.2969"/><text fill="#000000" font-family="sans-serif" font-size="14" font-weight="bold" lengthAdjust="spacing" textLength="254" x="20" y="449.9951">Infrastructure Managed Memory</text><!--MD5=[ab91f9e709a3ea0e06dca601a870de2e]
cluster Dragon Managed Memory--><polygon fill="#FFFFFF" points="975,435,1182,435,1189,457.2969,1372,457.2969,1372,768,975,768,975,435" style="stroke:#000000;stroke-width:1.5;"/><line style="stroke:#000000;stroke-width:1.5;" x1="975" x2="1189" y1="457.2969" y2="457.2969"/><text fill="#000000" font-family="sans-serif" font-size="14" font-weight="bold" lengthAdjust="spacing" textLength="201" x="979" y="449.9951">Dragon Managed Memory</text><!--MD5=[0064ae64ce40eab4fb6dd95d5628815d]
entity LAF--><rect fill="#F8F8F8" height="46.2969" style="stroke:#383838;stroke-width:1.5;" width="171" x="84.5" y="231"/><rect fill="#F8F8F8" height="10" style="stroke:#383838;stroke-width:1.5;" width="15" x="235.5" y="236"/><rect fill="#F8F8F8" height="2" style="stroke:#383838;stroke-width:1.5;" width="4" x="233.5" y="238"/><rect fill="#F8F8F8" height="2" style="stroke:#383838;stroke-width:1.5;" width="4" x="233.5" y="242"/><text fill="#000000" font-family="sans-serif" font-size="14" lengthAdjust="spacing" textLength="131" x="99.5" y="263.9951">Launcher Frontend</text><!--MD5=[f8a5da2fcf495bb896062f3c3acccd78]
entity TSR--><rect fill="#F8F8F8" height="46.2969" style="stroke:#383838;stroke-width:1.5;" width="211" x="724.5" y="1036"/><rect fill="#F8F8F8" height="10" style="stroke:#383838;stroke-width:1.5;" width="15" x="915.5" y="1041"/><rect fill="#F8F8F8" height="2" style="stroke:#383838;stroke-width:1.5;" width="4" x="913.5" y="1043"/><rect fill="#F8F8F8" height="2" style="stroke:#383838;stroke-width:1.5;" width="4" x="913.5" y="1047"/><text fill="#000000" font-family="sans-serif" font-size="14" lengthAdjust="spacing" textLength="171" x="739.5" y="1068.9951">Remote Transport Agent</text><!--MD5=[e6551b981272d1804fe2b360a33eb621]
entity remote_gw_channel_api--><ellipse cx="830" cy="1171" fill="#F8F8F8" rx="8" ry="8" style="stroke:#383838;stroke-width:1.5;"/><text fill="#000000" font-family="sans-serif" font-size="14" lengthAdjust="spacing" textLength="145" x="757.5" y="1200.9951">Gateway Channel API</text><!--MD5=[de46ef0e1be961cf8448359f11cb3a1c]
entity GWCHAN--><rect fill="#F8F8F8" height="46.2969" style="stroke:#383838;stroke-width:1.5;" width="168" x="32" y="588"/><rect fill="#F8F8F8" height="10" style="stroke:#383838;stroke-width:1.5;" width="15" x="180" y="593"/><rect fill="#F8F8F8" height="2" style="stroke:#383838;stroke-width:1.5;" width="4" x="178" y="595"/><rect fill="#F8F8F8" height="2" style="stroke:#383838;stroke-width:1.5;" width="4" x="178" y="599"/><text fill="#000000" font-family="sans-serif" font-size="14" lengthAdjust="spacing" textLength="128" x="47" y="620.9951">Gateway Channels</text><!--MD5=[22a6d7dd2fc5e3ab2d83587cd9af4427]
entity gs_channel_api--><ellipse cx="806" cy="499" fill="#F8F8F8" rx="8" ry="8" style="stroke:#383838;stroke-width:1.5;"/><text fill="#000000" font-family="sans-serif" font-size="14" lengthAdjust="spacing" textLength="82" x="765" y="528.9951">Channel API</text><!--MD5=[fdde268ec2120163fdb240bd4f72c3ac]
entity sh_channel_api--><ellipse cx="586" cy="499" fill="#F8F8F8" rx="8" ry="8" style="stroke:#383838;stroke-width:1.5;"/><text fill="#000000" font-family="sans-serif" font-size="14" lengthAdjust="spacing" textLength="82" x="545" y="528.9951">Channel API</text><!--MD5=[48e0df8c2fa18bfe1cfa152a36a3f3cb]
entity bela_channel_api--><ellipse cx="358" cy="499" fill="#F8F8F8" rx="8" ry="8" style="stroke:#383838;stroke-width:1.5;"/><text fill="#000000" font-family="sans-serif" font-size="14" lengthAdjust="spacing" textLength="82" x="317" y="528.9951">Channel API</text><!--MD5=[7034c6a417ea984d2d1f31aba4962c95]
entity gw_channel_api--><ellipse cx="585" cy="723" fill="#F8F8F8" rx="8" ry="8" style="stroke:#383838;stroke-width:1.5;"/><text fill="#000000" font-family="sans-serif" font-size="14" lengthAdjust="spacing" textLength="145" x="512.5" y="752.9951">Gateway Channel API</text><!--MD5=[68d4bb40c231fa78731f1f9668ab26b9]
entity SHCHAN--><rect fill="#F8F8F8" height="46.2969" style="stroke:#383838;stroke-width:1.5;" width="169" x="500.5" y="588"/><rect fill="#F8F8F8" height="10" style="stroke:#383838;stroke-width:1.5;" width="15" x="649.5" y="593"/><rect fill="#F8F8F8" height="2" style="stroke:#383838;stroke-width:1.5;" width="4" x="647.5" y="595"/><rect fill="#F8F8F8" height="2" style="stroke:#383838;stroke-width:1.5;" width="4" x="647.5" y="599"/><text fill="#000000" font-family="sans-serif" font-size="14" lengthAdjust="spacing" textLength="129" x="515.5" y="620.9951">Shepherd Channel</text><!--MD5=[c1c049a63044031b499d79837e43101d]
entity BELACHAN--><rect fill="#F8F8F8" height="46.2969" style="stroke:#383838;stroke-width:1.5;" width="230" x="235" y="588"/><rect fill="#F8F8F8" height="10" style="stroke:#383838;stroke-width:1.5;" width="15" x="445" y="593"/><rect fill="#F8F8F8" height="2" style="stroke:#383838;stroke-width:1.5;" width="4" x="443" y="595"/><rect fill="#F8F8F8" height="2" style="stroke:#383838;stroke-width:1.5;" width="4" x="443" y="599"/><text fill="#000000" font-family="sans-serif" font-size="14" lengthAdjust="spacing" textLength="190" x="250" y="620.9951">Launcher Backend Channel</text><!--MD5=[27c6ad3f8d2389e843808e4fe9fe7e21]
entity GSCHAN--><rect fill="#F8F8F8" height="46.2969" style="stroke:#383838;stroke-width:1.5;" width="206" x="705" y="588"/><rect fill="#F8F8F8" height="10" style="stroke:#383838;stroke-width:1.5;" width="15" x="891" y="593"/><rect fill="#F8F8F8" height="2" style="stroke:#383838;stroke-width:1.5;" width="4" x="889" y="595"/><rect fill="#F8F8F8" height="2" style="stroke:#383838;stroke-width:1.5;" width="4" x="889" y="599"/><text fill="#000000" font-family="sans-serif" font-size="14" lengthAdjust="spacing" textLength="166" x="720" y="620.9951">Global Services Channel</text><!--MD5=[57e2f03da86fdd6a32ce5dc73683b6d4]
entity UCHAN--><rect fill="#F8F8F8" height="46.2969" style="stroke:#383838;stroke-width:1.5;" width="162" x="1194" y="588"/><rect fill="#F8F8F8" height="10" style="stroke:#383838;stroke-width:1.5;" width="15" x="1336" y="593"/><rect fill="#F8F8F8" height="2" style="stroke:#383838;stroke-width:1.5;" width="4" x="1334" y="595"/><rect fill="#F8F8F8" height="2" style="stroke:#383838;stroke-width:1.5;" width="4" x="1334" y="599"/><text fill="#000000" font-family="sans-serif" font-size="14" lengthAdjust="spacing" textLength="122" x="1209" y="620.9951">Any User Channel</text><!--MD5=[48ca62551e5381b598d1936b61bc672a]
entity GWCHAN2--><rect fill="#F8F8F8" height="46.2969" style="stroke:#383838;stroke-width:1.5;" width="168" x="991" y="588"/><rect fill="#F8F8F8" height="10" style="stroke:#383838;stroke-width:1.5;" width="15" x="1139" y="593"/><rect fill="#F8F8F8" height="2" style="stroke:#383838;stroke-width:1.5;" width="4" x="1137" y="595"/><rect fill="#F8F8F8" height="2" style="stroke:#383838;stroke-width:1.5;" width="4" x="1137" y="599"/><text fill="#000000" font-family="sans-serif" font-size="14" lengthAdjust="spacing" textLength="128" x="1006" y="620.9951">Gateway Channels</text><!--MD5=[0e91c4913a5264c218577b30c653d1cf]
entity u_channel_api--><ellipse cx="1157" cy="499" fill="#F8F8F8" rx="8" ry="8" style="stroke:#383838;stroke-width:1.5;"/><text fill="#000000" font-family="sans-serif" font-size="14" lengthAdjust="spacing" textLength="82" x="1116" y="528.9951">Channel API</text><!--MD5=[626677f6cf89f57fceb4495a2ab36e2d]
entity ugw_gw_channel_api--><ellipse cx="1075" cy="723" fill="#F8F8F8" rx="8" ry="8" style="stroke:#383838;stroke-width:1.5;"/><text fill="#000000" font-family="sans-serif" font-size="14" lengthAdjust="spacing" textLength="145" x="1002.5" y="752.9951">Gateway Channel API</text><!--MD5=[44728f1aa94190254e5b646e7644877f]
entity shepherd_msg_api--><ellipse cx="591" cy="366" fill="#F8F8F8" rx="8" ry="8" style="stroke:#383838;stroke-width:1.5;"/><text fill="#000000" font-family="sans-serif" font-size="14" lengthAdjust="spacing" textLength="143" x="519.5" y="395.9951">Shepherd Messages</text><!--MD5=[fad1bddf69997003d9b072da8858fef5]
entity global_services_msg_api--><ellipse cx="803" cy="366" fill="#F8F8F8" rx="8" ry="8" style="stroke:#383838;stroke-width:1.5;"/><text fill="#000000" font-family="sans-serif" font-size="14" lengthAdjust="spacing" textLength="180" x="713" y="395.9951">Global Services Messages</text><!--MD5=[ae2c8f1f928376a2accb965c9335f052]
entity bela_msg_api--><ellipse cx="367" cy="366" fill="#F8F8F8" rx="8" ry="8" style="stroke:#383838;stroke-width:1.5;"/><text fill="#000000" font-family="sans-serif" font-size="14" lengthAdjust="spacing" textLength="204" x="265" y="395.9951">Launcher Backend Messages</text><!--MD5=[0de3afc3b27e03e3f38d37c4c0980b4c]
entity UP--><rect fill="#F8F8F8" height="46.2969" style="stroke:#383838;stroke-width:1.5;" width="134" x="620" y="7"/><rect fill="#F8F8F8" height="10" style="stroke:#383838;stroke-width:1.5;" width="15" x="734" y="12"/><rect fill="#F8F8F8" height="2" style="stroke:#383838;stroke-width:1.5;" width="4" x="732" y="14"/><rect fill="#F8F8F8" height="2" style="stroke:#383838;stroke-width:1.5;" width="4" x="732" y="18"/><text fill="#000000" font-family="sans-serif" font-size="14" lengthAdjust="spacing" textLength="94" x="635" y="39.9951">User Program</text><!--MD5=[f2af5fb657be85b9dacf1970f15859a9]
entity DN--><rect fill="#F8F8F8" height="46.2969" style="stroke:#383838;stroke-width:1.5;" width="137" x="828.5" y="231"/><rect fill="#F8F8F8" height="10" style="stroke:#383838;stroke-width:1.5;" width="15" x="945.5" y="236"/><rect fill="#F8F8F8" height="2" style="stroke:#383838;stroke-width:1.5;" width="4" x="943.5" y="238"/><rect fill="#F8F8F8" height="2" style="stroke:#383838;stroke-width:1.5;" width="4" x="943.5" y="242"/><text fill="#000000" font-family="sans-serif" font-size="14" lengthAdjust="spacing" textLength="97" x="843.5" y="263.9951">Dragon Native</text><!--MD5=[c44746e9563f1ca9ad68b29400fb9fb3]
entity LA--><rect fill="#F8F8F8" height="46.2969" style="stroke:#383838;stroke-width:1.5;" width="169" x="290.5" y="231"/><rect fill="#F8F8F8" height="10" style="stroke:#383838;stroke-width:1.5;" width="15" x="439.5" y="236"/><rect fill="#F8F8F8" height="2" style="stroke:#383838;stroke-width:1.5;" width="4" x="437.5" y="238"/><rect fill="#F8F8F8" height="2" style="stroke:#383838;stroke-width:1.5;" width="4" x="437.5" y="242"/><text fill="#000000" font-family="sans-serif" font-size="14" lengthAdjust="spacing" textLength="129" x="305.5" y="263.9951">Launcher Backend</text><!--MD5=[66223a172ae9ceac77f27ebc9b631536]
entity GS--><rect fill="#F8F8F8" height="46.2969" style="stroke:#383838;stroke-width:1.5;" width="145" x="648.5" y="231"/><rect fill="#F8F8F8" height="10" style="stroke:#383838;stroke-width:1.5;" width="15" x="773.5" y="236"/><rect fill="#F8F8F8" height="2" style="stroke:#383838;stroke-width:1.5;" width="4" x="771.5" y="238"/><rect fill="#F8F8F8" height="2" style="stroke:#383838;stroke-width:1.5;" width="4" x="771.5" y="242"/><text fill="#000000" font-family="sans-serif" font-size="14" lengthAdjust="spacing" textLength="105" x="663.5" y="263.9951">Global Services</text><!--MD5=[37c6688db026a1258583cb16b1e42d17]
entity SH--><rect fill="#F8F8F8" height="46.2969" style="stroke:#383838;stroke-width:1.5;" width="108" x="505" y="231"/><rect fill="#F8F8F8" height="10" style="stroke:#383838;stroke-width:1.5;" width="15" x="593" y="236"/><rect fill="#F8F8F8" height="2" style="stroke:#383838;stroke-width:1.5;" width="4" x="591" y="238"/><rect fill="#F8F8F8" height="2" style="stroke:#383838;stroke-width:1.5;" width="4" x="591" y="242"/><text fill="#000000" font-family="sans-serif" font-size="14" lengthAdjust="spacing" textLength="68" x="520" y="263.9951">Shepherd</text><!--MD5=[34c03d534faab791d8af77818b55f59b]
entity TS--><rect fill="#F8F8F8" height="46.2969" style="stroke:#383838;stroke-width:1.5;" width="191" x="734.5" y="812"/><rect fill="#F8F8F8" height="10" style="stroke:#383838;stroke-width:1.5;" width="15" x="905.5" y="817"/><rect fill="#F8F8F8" height="2" style="stroke:#383838;stroke-width:1.5;" width="4" x="903.5" y="819"/><rect fill="#F8F8F8" height="2" style="stroke:#383838;stroke-width:1.5;" width="4" x="903.5" y="823"/><text fill="#000000" font-family="sans-serif" font-size="14" lengthAdjust="spacing" textLength="151" x="749.5" y="844.9951">Local Transport Agent</text><!--MD5=[90cc0be5b37b09a2ceef488f1e891465]
entity user_msg_api--><ellipse cx="1093" cy="366" fill="#F8F8F8" rx="8" ry="8" style="stroke:#383838;stroke-width:1.5;"/><text fill="#000000" font-family="sans-serif" font-size="14" lengthAdjust="spacing" textLength="169" x="1008.5" y="395.9951">User Message / Data API</text><!--MD5=[b00c329a52cf523621ca026a5f21c790]
entity interconnect--><ellipse cx="830" cy="947" fill="#F8F8F8" rx="8" ry="8" style="stroke:#383838;stroke-width:1.5;"/><text fill="#000000" font-family="sans-serif" font-size="14" lengthAdjust="spacing" textLength="121" x="769.5" y="976.9951">HPC Interconnect</text><!--MD5=[ee90851f06a1b34b141917163ce088a8]
entity dragon_native_api--><ellipse cx="856" cy="142" fill="#F8F8F8" rx="8" ry="8" style="stroke:#383838;stroke-width:1.5;"/><text fill="#000000" font-family="sans-serif" font-size="14" lengthAdjust="spacing" textLength="122" x="795" y="171.9951">Dragon Native API</text><!--MD5=[b68f029506d007bb301cc433903a77f0]
entity posix_message_queue--><ellipse cx="432" cy="142" fill="#F8F8F8" rx="8" ry="8" style="stroke:#383838;stroke-width:1.5;"/><text fill="#000000" font-family="sans-serif" font-size="14" lengthAdjust="spacing" textLength="68" x="398" y="171.9951">POSIX MQ</text><!--MD5=[becaec308eedd209b57345a9a1dcca52]
entity program_stdout--><ellipse cx="599" cy="142" fill="#F8F8F8" rx="8" ry="8" style="stroke:#383838;stroke-width:1.5;"/><text fill="#000000" font-family="sans-serif" font-size="14" lengthAdjust="spacing" textLength="130" x="534" y="171.9951">stdout/stdin/stderr</text><!--MD5=[83bc0680e45a10843370afeea57a7b92]
entity mrnet--><ellipse cx="177" cy="366" fill="#F8F8F8" rx="8" ry="8" style="stroke:#383838;stroke-width:1.5;"/><text fill="#000000" font-family="sans-serif" font-size="14" lengthAdjust="spacing" textLength="46" x="154" y="395.9951">MRNet</text><!--MD5=[fb8a9d31f7375c98fdaf1a9da9cfaf2c]
link TSR to remote_gw_channel_api--><path d="M830,1087.33 C830,1109.38 830,1139.43 830,1156.57 " fill="none" id="TSR-remote_gw_channel_api" style="stroke:#383838;stroke-width:1.0;"/><polygon fill="#383838" points="830,1161.86,834,1152.86,830,1156.86,826,1152.86,830,1161.86" style="stroke:#383838;stroke-width:1.0;"/><polygon fill="#383838" points="830,1082.26,826,1091.26,830,1087.26,834,1091.26,830,1082.26" style="stroke:#383838;stroke-width:1.0;"/><!--MD5=[e3e240fedf5ac41b05d96c0fb80a28ea]
link gs_channel_api to GSCHAN--><path d="M806.25,513.5 C806.56,530.63 807.1,560.58 807.5,582.58 " fill="none" id="gs_channel_api-GSCHAN" style="stroke:#383838;stroke-width:1.0;"/><polygon fill="#383838" points="807.59,587.71,811.4092,578.6318,807.49,582.711,803.4108,578.7918,807.59,587.71" style="stroke:#383838;stroke-width:1.0;"/><polygon fill="#383838" points="806.15,508.27,802.3049,517.3372,806.2357,513.2693,810.3037,517.2001,806.15,508.27" style="stroke:#383838;stroke-width:1.0;"/><!--MD5=[9140ebb737fb150d3df4b84949e21422]
link sh_channel_api to SHCHAN--><path d="M585.88,513.5 C585.72,530.63 585.45,560.58 585.25,582.58 " fill="none" id="sh_channel_api-SHCHAN" style="stroke:#383838;stroke-width:1.0;"/><polygon fill="#383838" points="585.2,587.71,589.277,578.7446,585.2429,582.7102,581.2773,578.676,585.2,587.71" style="stroke:#383838;stroke-width:1.0;"/><polygon fill="#383838" points="585.92,508.27,581.843,517.2354,585.8771,513.2698,589.8427,517.304,585.92,508.27" style="stroke:#383838;stroke-width:1.0;"/><!--MD5=[c995d264adfd842f8557c9afe9b29e9b]
link bela_channel_api to BELACHAN--><path d="M357.02,513.5 C355.77,530.63 353.59,560.58 351.99,582.58 " fill="none" id="bela_channel_api-BELACHAN" style="stroke:#383838;stroke-width:1.0;"/><polygon fill="#383838" points="351.62,587.71,356.2528,579.0188,351.9773,582.7228,348.2733,578.4472,351.62,587.71" style="stroke:#383838;stroke-width:1.0;"/><polygon fill="#383838" points="357.4,508.27,352.7672,516.9612,357.0427,513.2572,360.7467,517.5328,357.4,508.27" style="stroke:#383838;stroke-width:1.0;"/><!--MD5=[b673e0d357472def9c3f2973c436e118]
link GWCHAN to gw_channel_api--><path d="M163.93,636.36 C180.96,644.22 200.51,652.35 219,658 C352.06,698.66 520.71,716.24 570.53,720.76 " fill="none" id="GWCHAN-gw_channel_api" style="stroke:#383838;stroke-width:1.0;"/><polygon fill="#383838" points="575.75,721.23,567.1392,716.4494,570.7696,720.7876,566.4314,724.418,575.75,721.23" style="stroke:#383838;stroke-width:1.0;"/><polygon fill="#383838" points="159.19,634.15,165.6528,641.5818,163.7206,636.2652,169.0372,634.3329,159.19,634.15" style="stroke:#383838;stroke-width:1.0;"/><!--MD5=[8e4beff90db6d9ebf09698e4977d5532]
link u_channel_api to UCHAN--><path d="M1169.97,512.09 C1188.47,529.34 1222.88,561.42 1247.27,584.15 " fill="none" id="u_channel_api-UCHAN" style="stroke:#383838;stroke-width:1.0;"/><polygon fill="#383838" points="1251.09,587.71,1247.241,578.6444,1247.4352,584.2979,1241.7817,584.4921,1251.09,587.71" style="stroke:#383838;stroke-width:1.0;"/><polygon fill="#383838" points="1165.87,508.27,1169.719,517.3356,1169.5248,511.6821,1175.1783,511.4879,1165.87,508.27" style="stroke:#383838;stroke-width:1.0;"/><!--MD5=[021dbbcbc22bd9277b2045c1c2315209]
link UCHAN to ugw_gw_channel_api--><path d="M1229.97,636.76 C1184.72,661.65 1117.69,698.52 1088.93,714.34 " fill="none" id="UCHAN-ugw_gw_channel_api" style="stroke:#383838;stroke-width:1.0;"/><polygon fill="#383838" points="1084.33,716.87,1094.1433,716.0339,1088.7102,714.4588,1090.2853,709.0256,1084.33,716.87" style="stroke:#383838;stroke-width:1.0;"/><polygon fill="#383838" points="1234.53,634.26,1224.7179,635.1096,1230.1532,636.6773,1228.5855,642.1126,1234.53,634.26" style="stroke:#383838;stroke-width:1.0;"/><!--MD5=[6a9b60cc7a971bf26bf15aa4b34801e7]
link GWCHAN2 to ugw_gw_channel_api--><path d="M1075,639.33 C1075,661.38 1075,691.43 1075,708.57 " fill="none" id="GWCHAN2-ugw_gw_channel_api" style="stroke:#383838;stroke-width:1.0;"/><polygon fill="#383838" points="1075,713.86,1079,704.86,1075,708.86,1071,704.86,1075,713.86" style="stroke:#383838;stroke-width:1.0;"/><polygon fill="#383838" points="1075,634.26,1071,643.26,1075,639.26,1079,643.26,1075,634.26" style="stroke:#383838;stroke-width:1.0;"/><!--MD5=[4083df1faff11e1b7b2c9f3d41607711]
link shepherd_msg_api to sh_channel_api--><path d="M590.49,380.44 C589.53,405.6 587.47,459.53 586.51,484.63 " fill="none" id="shepherd_msg_api-sh_channel_api" style="stroke:#383838;stroke-width:1.0;"/><polygon fill="#383838" points="586.31,489.81,590.6413,480.9647,586.4956,484.8134,582.6468,480.6677,586.31,489.81" style="stroke:#383838;stroke-width:1.0;"/><polygon fill="#383838" points="590.69,375.19,586.3335,384.0229,590.4902,380.186,594.3271,384.3427,590.69,375.19" style="stroke:#383838;stroke-width:1.0;"/><!--MD5=[3a6b6373726006392375a5c9372cfe80]
link global_services_msg_api to gs_channel_api--><path d="M803.31,380.44 C803.88,405.6 805.12,459.53 805.69,484.63 " fill="none" id="global_services_msg_api-gs_channel_api" style="stroke:#383838;stroke-width:1.0;"/><polygon fill="#383838" points="805.81,489.81,809.6033,480.7209,805.6957,484.8113,801.6054,480.9038,805.81,489.81" style="stroke:#383838;stroke-width:1.0;"/><polygon fill="#383838" points="803.19,375.19,799.3967,384.2791,803.3043,380.1887,807.3946,384.0962,803.19,375.19" style="stroke:#383838;stroke-width:1.0;"/><!--MD5=[677031fb431e0981ab6a880136ef655e]
link bela_msg_api to bela_channel_api--><path d="M366.08,380.44 C364.35,405.6 360.64,459.53 358.92,484.63 " fill="none" id="bela_msg_api-bela_channel_api" style="stroke:#383838;stroke-width:1.0;"/><polygon fill="#383838" points="358.56,489.81,363.168,481.1056,358.903,484.8218,355.1869,480.5568,358.56,489.81" style="stroke:#383838;stroke-width:1.0;"/><polygon fill="#383838" points="366.44,375.19,361.832,383.8944,366.097,380.1782,369.8131,384.4432,366.44,375.19" style="stroke:#383838;stroke-width:1.0;"/><!--MD5=[eafbe1b0e3337d3ca7b6c572d27a26ce]
link SHCHAN to gw_channel_api--><path d="M585,634.26 C585,656.56 585,690.16 585,708.64 " fill="none" id="SHCHAN-to-gw_channel_api" style="stroke:#383838;stroke-width:1.0;"/><polygon fill="#383838" points="585,713.86,589,704.86,585,708.86,581,704.86,585,713.86" style="stroke:#383838;stroke-width:1.0;"/><!--MD5=[41e048281eb765d526748130b94d5cd0]
link GSCHAN to gw_channel_api--><path d="M763.14,634.13 C711.95,659.38 631.16,699.23 598.94,715.12 " fill="none" id="GSCHAN-to-gw_channel_api" style="stroke:#383838;stroke-width:1.0;"/><polygon fill="#383838" points="594.2,717.46,604.0409,717.0631,598.6835,715.2468,600.4997,709.8895,594.2,717.46" style="stroke:#383838;stroke-width:1.0;"/><!--MD5=[d401c114b52ba03a56d4faebaef67a9f]
link BELACHAN to gw_channel_api--><path d="M397.27,634.13 C451.47,659.5 537.16,699.6 570.79,715.35 " fill="none" id="BELACHAN-to-gw_channel_api" style="stroke:#383838;stroke-width:1.0;"/><polygon fill="#383838" points="575.72,717.66,569.2764,710.2115,571.1949,715.5331,565.8733,717.4516,575.72,717.66" style="stroke:#383838;stroke-width:1.0;"/><!--MD5=[91cec530412c9c65187ea2e7d788f994]
link gw_channel_api to TS--><path d="M598.64,730.12 C631.92,745.06 718.76,784.05 776.06,809.78 " fill="none" id="gw_channel_api-TS" style="stroke:#383838;stroke-width:1.0;"/><polygon fill="#383838" points="780.83,811.92,774.2536,804.5885,776.2675,809.8747,770.9812,811.8885,780.83,811.92" style="stroke:#383838;stroke-width:1.0;"/><polygon fill="#383838" points="594.01,728.05,600.5672,735.3987,598.5672,730.1072,603.8587,728.1071,594.01,728.05" style="stroke:#383838;stroke-width:1.0;"/><!--MD5=[5e0cd46dd51b6ea78acc7a3e53c3ba70]
link ugw_gw_channel_api to TS--><path d="M1061.36,730.12 C1028.08,745.06 941.24,784.05 883.94,809.78 " fill="none" id="ugw_gw_channel_api-TS" style="stroke:#383838;stroke-width:1.0;"/><polygon fill="#383838" points="879.17,811.92,889.0188,811.8885,883.7325,809.8747,885.7464,804.5885,879.17,811.92" style="stroke:#383838;stroke-width:1.0;"/><polygon fill="#383838" points="1065.99,728.05,1056.1413,728.1071,1061.4328,730.1072,1059.4328,735.3987,1065.99,728.05" style="stroke:#383838;stroke-width:1.0;"/><!--MD5=[5271a611e0a09cdca7e87f701c9498e9]
link TS to interconnect--><path d="M830,863.33 C830,885.38 830,915.43 830,932.57 " fill="none" id="TS-interconnect" style="stroke:#383838;stroke-width:1.0;"/><polygon fill="#383838" points="830,937.86,834,928.86,830,932.86,826,928.86,830,937.86" style="stroke:#383838;stroke-width:1.0;"/><polygon fill="#383838" points="830,858.26,826,867.26,830,863.26,834,867.26,830,858.26" style="stroke:#383838;stroke-width:1.0;"/><!--MD5=[4e263fb2c51425e3e2888ad329e9af89]
link interconnect to TSR--><path d="M830,961.5 C830,978.63 830,1008.58 830,1030.58 " fill="none" id="interconnect-TSR" style="stroke:#383838;stroke-width:1.0;"/><polygon fill="#383838" points="830,1035.71,834,1026.71,830,1030.71,826,1026.71,830,1035.71" style="stroke:#383838;stroke-width:1.0;"/><polygon fill="#383838" points="830,956.27,826,965.27,830,961.27,834,965.27,830,956.27" style="stroke:#383838;stroke-width:1.0;"/><!--MD5=[40d80f1b1f2161128f79e725085a22e8]
reverse link GS to global_services_msg_api--><path d="M740.69,281.42 C759.02,306 785.21,341.14 796.93,356.86 " fill="none" id="GS-backto-global_services_msg_api" style="stroke:#383838;stroke-width:1.0;"/><polygon fill="#383838" points="737.59,277.26,739.7516,286.8687,740.574,281.272,746.1707,282.0943,737.59,277.26" style="stroke:#383838;stroke-width:1.0;"/><!--MD5=[e4d2a5768265d86c3be7fd4ce9154a03]
link GS to shepherd_msg_api--><path d="M694.69,277.26 C667.15,300.57 625.03,336.2 603.96,354.04 " fill="none" id="GS-to-shepherd_msg_api" style="stroke:#383838;stroke-width:1.0;"/><polygon fill="#383838" points="600.03,357.36,609.4838,354.5985,603.8464,354.1296,604.3152,348.4923,600.03,357.36" style="stroke:#383838;stroke-width:1.0;"/><!--MD5=[703f35b95585a7ce3d9c2287f4efc35e]
reverse link SH to shepherd_msg_api--><path d="M566.95,282.33 C574.09,306.87 584.11,341.33 588.63,356.86 " fill="none" id="SH-backto-shepherd_msg_api" style="stroke:#383838;stroke-width:1.0;"/><polygon fill="#383838" points="565.48,277.26,564.16,287.02,566.88,282.06,571.84,284.78,565.48,277.26" style="stroke:#383838;stroke-width:1.0;"/><!--MD5=[1d385bd97cd865b86aee54407ac80cf9]
link SH to global_services_msg_api--><path d="M588.15,277.03 C600.76,285.64 616.03,294.88 631,301 C654.96,310.79 663.39,304.95 688,313 C725.95,325.41 768.14,346.5 789.31,357.62 " fill="none" id="SH-to-global_services_msg_api" style="stroke:#383838;stroke-width:1.0;"/><polygon fill="#383838" points="793.74,359.97,787.6552,352.2257,789.3204,357.6319,783.9142,359.2971,793.74,359.97" style="stroke:#383838;stroke-width:1.0;"/><!--MD5=[3d95e7f43488395fd1b2cab4a4d2d07a]
link SH to bela_msg_api--><path d="M520.15,277.26 C477.06,301.95 409.81,340.47 380.94,357.01 " fill="none" id="SH-to-bela_msg_api" style="stroke:#383838;stroke-width:1.0;"/><polygon fill="#383838" points="376.33,359.66,386.128,358.6608,380.6695,357.1762,382.154,351.7177,376.33,359.66" style="stroke:#383838;stroke-width:1.0;"/><!--MD5=[5000a269b712a04e66261672c2c13948]
link posix_message_queue to SH--><path d="M445.01,154.27 C464.8,171.41 503.01,204.51 529.71,227.63 " fill="none" id="posix_message_queue-SH" style="stroke:#383838;stroke-width:1.0;"/><polygon fill="#383838" points="533.57,230.97,529.3757,222.0589,529.7868,227.7008,524.145,228.1119,533.57,230.97" style="stroke:#383838;stroke-width:1.0;"/><polygon fill="#383838" points="441.13,150.91,445.3243,159.8211,444.9132,154.1792,450.555,153.7681,441.13,150.91" style="stroke:#383838;stroke-width:1.0;"/><!--MD5=[592950704b3570dd2fba6eb125647adb]
link program_stdout to SH--><path d="M594.26,156.02 C588.04,173.13 576.97,203.59 568.88,225.82 " fill="none" id="program_stdout-SH" style="stroke:#383838;stroke-width:1.0;"/><polygon fill="#383838" points="567.1,230.71,573.9227,223.6072,568.8007,226.0081,566.3997,220.8861,567.1,230.71" style="stroke:#383838;stroke-width:1.0;"/><polygon fill="#383838" points="595.99,151.27,589.1673,158.3728,594.2893,155.9719,596.6903,161.0939,595.99,151.27" style="stroke:#383838;stroke-width:1.0;"/><!--MD5=[a2428592849b098321d2da1b44dfa4e5]
link posix_message_queue to LA--><path d="M425.25,156.02 C416.35,173.2 400.47,203.85 388.94,226.1 " fill="none" id="posix_message_queue-LA" style="stroke:#383838;stroke-width:1.0;"/><polygon fill="#383838" points="386.55,230.71,394.2479,224.5665,388.8545,226.2727,387.1483,220.8793,386.55,230.71" style="stroke:#383838;stroke-width:1.0;"/><polygon fill="#383838" points="427.72,151.27,420.0302,157.4236,425.4213,155.7103,427.1346,161.1014,427.72,151.27" style="stroke:#383838;stroke-width:1.0;"/><!--MD5=[d88a38678ce1ed20ee6d4a3679c21f2b]
reverse link LA to bela_msg_api--><path d="M373.01,282.33 C371.23,306.87 368.72,341.33 367.59,356.86 " fill="none" id="LA-backto-bela_msg_api" style="stroke:#383838;stroke-width:1.0;"/><polygon fill="#383838" points="373.38,277.26,368.7472,285.9512,373.0227,282.2472,376.7267,286.5228,373.38,277.26" style="stroke:#383838;stroke-width:1.0;"/><!--MD5=[b79dece1056023d4409e9e7ed59ea364]
link LA to mrnet--><path d="M322.1,279.24 C306.08,286.42 288.38,294.18 272,301 C258.36,306.68 253.78,305.58 241,313 C221.42,324.36 201.61,341.53 189.33,352.99 " fill="none" id="LA-mrnet" style="stroke:#383838;stroke-width:1.0;"/><polygon fill="#383838" points="185.46,356.64,194.742,353.347,189.0871,353.1985,189.2356,347.5436,185.46,356.64" style="stroke:#383838;stroke-width:1.0;"/><polygon fill="#383838" points="327.01,277.04,317.1613,277.0971,322.4528,279.0972,320.4528,284.3887,327.01,277.04" style="stroke:#383838;stroke-width:1.0;"/><!--MD5=[28d84b3e0a136bddac388a40e5c41313]
link LAF to mrnet--><path d="M171.74,282.33 C173.14,304.38 175.05,334.43 176.15,351.57 " fill="none" id="LAF-mrnet" style="stroke:#383838;stroke-width:1.0;"/><polygon fill="#383838" points="176.48,356.86,179.8795,347.6164,176.1512,351.8708,171.8968,348.1425,176.48,356.86" style="stroke:#383838;stroke-width:1.0;"/><polygon fill="#383838" points="171.42,277.26,167.9941,286.4938,171.7346,282.2501,175.9783,285.9905,171.42,277.26" style="stroke:#383838;stroke-width:1.0;"/><!--MD5=[b2fb078bb6fb29b8cb43e1a6e4bf3c44]
link UP to program_stdout--><path d="M665.87,57.42 C647.74,80.08 622.43,111.71 608.74,128.83 " fill="none" id="UP-program_stdout" style="stroke:#383838;stroke-width:1.0;"/><polygon fill="#383838" points="605.52,132.86,614.2536,128.3076,608.633,128.9473,607.9933,123.3267,605.52,132.86" style="stroke:#383838;stroke-width:1.0;"/><polygon fill="#383838" points="669.19,53.26,660.4382,57.7773,666.0613,57.1602,666.6785,62.7832,669.19,53.26" style="stroke:#383838;stroke-width:1.0;"/><!--MD5=[6abda27008bac007d2049dfa9de41fa4]
link UP to dragon_native_api--><path d="M721.2,53.26 C758.43,77.49 816.13,115.05 842.29,132.07 " fill="none" id="UP-to-dragon_native_api" style="stroke:#383838;stroke-width:1.0;"/><polygon fill="#383838" points="846.79,135.01,841.4349,126.7443,842.6014,132.2795,837.0661,133.4461,846.79,135.01" style="stroke:#383838;stroke-width:1.0;"/><!--MD5=[b2d3116cd12dce7d84f96a267fc07ed9]
link user_msg_api to u_channel_api--><path d="M1099.24,379.77 C1111.48,404.82 1138.51,460.15 1150.75,485.22 " fill="none" id="user_msg_api-u_channel_api" style="stroke:#383838;stroke-width:1.0;"/><polygon fill="#383838" points="1153,489.81,1152.6659,479.9668,1150.8155,485.3125,1145.4698,483.462,1153,489.81" style="stroke:#383838;stroke-width:1.0;"/><polygon fill="#383838" points="1097,375.19,1097.3717,385.0318,1099.2017,379.6792,1104.5544,381.5091,1097,375.19" style="stroke:#383838;stroke-width:1.0;"/><!--MD5=[b82f384f4bc7298b30123f41c33bed8f]
link dragon_native_api to DN--><path d="M860.85,156.02 C867.23,173.13 878.58,203.59 886.87,225.82 " fill="none" id="dragon_native_api-DN" style="stroke:#383838;stroke-width:1.0;"/><polygon fill="#383838" points="888.69,230.71,889.3015,220.8801,886.9469,226.0237,881.8034,223.6691,888.69,230.71" style="stroke:#383838;stroke-width:1.0;"/><polygon fill="#383838" points="859.08,151.27,858.4685,161.0999,860.8231,155.9563,865.9666,158.3109,859.08,151.27" style="stroke:#383838;stroke-width:1.0;"/><!--MD5=[43db7509912ed20e2bb0ae2670ca9ca5]
link DN to user_msg_api--><path d="M941.13,279.76 C985.47,304.65 1051.17,341.52 1079.35,357.34 " fill="none" id="DN-user_msg_api" style="stroke:#383838;stroke-width:1.0;"/><polygon fill="#383838" points="1083.85,359.87,1077.9448,351.9878,1079.4853,357.4309,1074.0422,358.9714,1083.85,359.87" style="stroke:#383838;stroke-width:1.0;"/><polygon fill="#383838" points="936.66,277.26,942.5542,285.1504,941.0213,279.7052,946.4665,278.1723,936.66,277.26" style="stroke:#383838;stroke-width:1.0;"/><!--MD5=[9984f91ab423284592b32399c86e1b46]
link DN to global_services_msg_api--><path d="M874.69,281.11 C855.31,303.79 828.11,335.61 813.42,352.81 " fill="none" id="DN-global_services_msg_api" style="stroke:#383838;stroke-width:1.0;"/><polygon fill="#383838" points="809.96,356.86,818.8449,352.6106,813.2057,353.0567,812.7596,347.4174,809.96,356.86" style="stroke:#383838;stroke-width:1.0;"/><polygon fill="#383838" points="877.98,277.26,869.0859,281.4901,874.726,281.0563,875.1599,286.6965,877.98,277.26" style="stroke:#383838;stroke-width:1.0;"/><!--MD5=[96a5cbf33cee4017e64319c0ab855033]
@startuml

' title "Dragon Distributed Services"

skinparam componentStyle uml2
skinparam shadowing false
skinparam monochrome true

' skinparam linetype ortho
' skinparam linetype polyline
' skinparam nodesep 10
' skinparam ranksep 20

[User Program] as UP
[Dragon Native] as DN
[Launcher Backend] as LA
[Global Services] as GS
[Shepherd] as SH
[Local Transport Agent] as TS

frame "Login Node" as LN {
    [Launcher Frontend] as LAF
}

frame "Remote host / compute node" {
    [Remote Transport Agent] as TSR
    interface "Gateway Channel API" as remote_gw_channel_api 
    TSR <- -> remote_gw_channel_api
}


package "Infrastructure Managed Memory" {

    together {
        [Shepherd Channel] as SHCHAN
        [Launcher Backend Channel] as BELACHAN
        [Global Services Channel] as GSCHAN
    }
    
    [Gateway Channels] as GWCHAN

    interface "Channel API" as gs_channel_api  
    interface "Channel API" as sh_channel_api  
    interface "Channel API" as bela_channel_api  
    interface "Gateway Channel API" as gw_channel_api  

    GSCHAN <-u-> gs_channel_api
    SHCHAN <-u-> sh_channel_api
    BELACHAN <-u-> bela_channel_api
    GWCHAN <- -> gw_channel_api
}

package "Dragon Managed Memory" {
    [Any User Channel] as UCHAN
    [Gateway Channels] as GWCHAN2

    interface "Channel API" as u_channel_api
    interface "Gateway Channel API" as ugw_gw_channel_api

    UCHAN <-u-> u_channel_api
    UCHAN <- -> ugw_gw_channel_api
    GWCHAN2 <- -> ugw_gw_channel_api
}

together {
    interface "Shepherd Messages" as shepherd_msg_api
    interface "Global Services Messages" as global_services_msg_api
    interface "Launcher Backend Messages" as bela_msg_api
}

interface "User Message / Data API" as user_msg_api
interface "HPC Interconnect" as interconnect
interface "Dragon Native API" as dragon_native_api

' These are the same API

interface "POSIX MQ" as posix_message_queue
interface "stdout/stdin/stderr" as program_stdout
interface "MRNet" as mrnet

sh_channel_api <-u-> shepherd_msg_api
gs_channel_api <-u-> global_services_msg_api
bela_channel_api <-u-> bela_msg_api

SHCHAN -d-> gw_channel_api
GSCHAN -d-> gw_channel_api
BELACHAN -d-> gw_channel_api

TS <-u-> gw_channel_api
TS <-u-> ugw_gw_channel_api
TS <-d-> interconnect
TSR <-u-> interconnect

GS <- - global_services_msg_api
GS - -> shepherd_msg_api

SH <- - shepherd_msg_api
SH - -> global_services_msg_api
SH - -> bela_msg_api
SH <-u-> posix_message_queue
SH <-u-> program_stdout

LA <-u-> posix_message_queue
LA <- - bela_msg_api
LA <- -> mrnet

LAF <- -> mrnet

UP <-d-> program_stdout
UP - -> dragon_native_api
u_channel_api <-u-> user_msg_api

DN <-u-> dragon_native_api
DN <-d-> user_msg_api
DN <-d-> global_services_msg_api

'in case we want to hide components
hide $hidden
@enduml

@startuml


skinparam componentStyle uml2
skinparam shadowing false
skinparam monochrome true


[User Program] as UP
[Dragon Native] as DN
[Launcher Backend] as LA
[Global Services] as GS
[Shepherd] as SH
[Local Transport Agent] as TS

frame "Login Node" as LN {
    [Launcher Frontend] as LAF
}

frame "Remote host / compute node" {
    [Remote Transport Agent] as TSR
    interface "Gateway Channel API" as remote_gw_channel_api 
    TSR <- -> remote_gw_channel_api
}


package "Infrastructure Managed Memory" {

    together {
        [Shepherd Channel] as SHCHAN
        [Launcher Backend Channel] as BELACHAN
        [Global Services Channel] as GSCHAN
    }
    
    [Gateway Channels] as GWCHAN

    interface "Channel API" as gs_channel_api  
    interface "Channel API" as sh_channel_api  
    interface "Channel API" as bela_channel_api  
    interface "Gateway Channel API" as gw_channel_api  

    GSCHAN <-u-> gs_channel_api
    SHCHAN <-u-> sh_channel_api
    BELACHAN <-u-> bela_channel_api
    GWCHAN <- -> gw_channel_api
}

package "Dragon Managed Memory" {
    [Any User Channel] as UCHAN
    [Gateway Channels] as GWCHAN2

    interface "Channel API" as u_channel_api
    interface "Gateway Channel API" as ugw_gw_channel_api

    UCHAN <-u-> u_channel_api
    UCHAN <- -> ugw_gw_channel_api
    GWCHAN2 <- -> ugw_gw_channel_api
}

together {
    interface "Shepherd Messages" as shepherd_msg_api
    interface "Global Services Messages" as global_services_msg_api
    interface "Launcher Backend Messages" as bela_msg_api
}

interface "User Message / Data API" as user_msg_api
interface "HPC Interconnect" as interconnect
interface "Dragon Native API" as dragon_native_api


interface "POSIX MQ" as posix_message_queue
interface "stdout/stdin/stderr" as program_stdout
interface "MRNet" as mrnet

sh_channel_api <-u-> shepherd_msg_api
gs_channel_api <-u-> global_services_msg_api
bela_channel_api <-u-> bela_msg_api

SHCHAN -d-> gw_channel_api
GSCHAN -d-> gw_channel_api
BELACHAN -d-> gw_channel_api

TS <-u-> gw_channel_api
TS <-u-> ugw_gw_channel_api
TS <-d-> interconnect
TSR <-u-> interconnect

GS <- - global_services_msg_api
GS - -> shepherd_msg_api

SH <- - shepherd_msg_api
SH - -> global_services_msg_api
SH - -> bela_msg_api
SH <-u-> posix_message_queue
SH <-u-> program_stdout

LA <-u-> posix_message_queue
LA <- - bela_msg_api
LA <- -> mrnet

LAF <- -> mrnet

UP <-d-> program_stdout
UP - -> dragon_native_api
u_channel_api <-u-> user_msg_api

DN <-u-> dragon_native_api
DN <-d-> user_msg_api
DN <-d-> global_services_msg_api

hide $hidden
@enduml

PlantUML version 1.2022.1(Tue Feb 01 18:19:58 GMT 2022)
(GPL source distribution)
Java Runtime: OpenJDK Runtime Environment
JVM: OpenJDK 64-Bit Server VM
Default Encoding: UTF-8
Language: en
Country: US
--></g></svg>