<?xml version="1.0" encoding="UTF-8" standalone="no"?><svg xmlns="http://www.w3.org/2000/svg" xmlns:xlink="http://www.w3.org/1999/xlink" contentScriptType="application/ecmascript" contentStyleType="text/css" height="642px" preserveAspectRatio="none" style="width:1350px;height:642px;background:#FFFFFF;" version="1.1" viewBox="0 0 1350 642" width="1350px" zoomAndPan="magnify"><defs/><g><!--MD5=[fb12cc5ab3f7468c2bdc14f7ae6902b1]
cluster DSERV--><rect fill="#FFFFFF" height="128" style="stroke:#000000;stroke-width:1.5;" width="860" x="152" y="7"/><rect fill="#FFFFFF" height="10" style="stroke:#000000;stroke-width:1.5;" width="15" x="992" y="12"/><rect fill="#FFFFFF" height="2" style="stroke:#000000;stroke-width:1.5;" width="4" x="990" y="14"/><rect fill="#FFFFFF" height="2" style="stroke:#000000;stroke-width:1.5;" width="4" x="990" y="18"/><text fill="#000000" font-family="sans-serif" font-size="14" font-weight="bold" lengthAdjust="spacing" textLength="68" x="548" y="32.9951">Services</text><!--MD5=[dd21a8c12a64ba0f177cfe0e7e11a31d]
cluster DINFRA--><rect fill="#FFFFFF" height="234" style="stroke:#000000;stroke-width:1.5;" width="1163" x="181" y="207"/><rect fill="#FFFFFF" height="10" style="stroke:#000000;stroke-width:1.5;" width="15" x="1324" y="212"/><rect fill="#FFFFFF" height="2" style="stroke:#000000;stroke-width:1.5;" width="4" x="1322" y="214"/><rect fill="#FFFFFF" height="2" style="stroke:#000000;stroke-width:1.5;" width="4" x="1322" y="218"/><text fill="#000000" font-family="sans-serif" font-size="14" font-weight="bold" lengthAdjust="spacing" textLength="321" x="602" y="232.9951">Dragon Infrastructure (C,Cython,Python)</text><!--MD5=[b42fcc00257b19b7dcfe8631a8a86d1e]
cluster DCORE--><rect fill="#FFFFFF" height="145" style="stroke:#000000;stroke-width:1.5;" width="937" x="7" y="491"/><rect fill="#FFFFFF" height="10" style="stroke:#000000;stroke-width:1.5;" width="15" x="924" y="496"/><rect fill="#FFFFFF" height="2" style="stroke:#000000;stroke-width:1.5;" width="4" x="922" y="498"/><rect fill="#FFFFFF" height="2" style="stroke:#000000;stroke-width:1.5;" width="4" x="922" y="502"/><text fill="#000000" font-family="sans-serif" font-size="14" font-weight="bold" lengthAdjust="spacing" textLength="202" x="374.5" y="516.9951">Dragon Core Libraries (C)</text><text fill="#000000" font-family="sans-serif" font-size="14" lengthAdjust="spacing" textLength="117" x="541.5" y="153.9951">Infrastructure API</text><rect fill="#383838" height="12" style="stroke:#F8F8F8;stroke-width:1.5;" width="12" x="594" y="129"/><!--MD5=[66223a172ae9ceac77f27ebc9b631536]
entity GS--><rect fill="#F8F8F8" height="46.2969" style="stroke:#383838;stroke-width:1.5;" width="145" x="527.5" y="23"/><rect fill="#F8F8F8" height="10" style="stroke:#383838;stroke-width:1.5;" width="15" x="652.5" y="28"/><rect fill="#F8F8F8" height="2" style="stroke:#383838;stroke-width:1.5;" width="4" x="650.5" y="30"/><rect fill="#F8F8F8" height="2" style="stroke:#383838;stroke-width:1.5;" width="4" x="650.5" y="34"/><text fill="#000000" font-family="sans-serif" font-size="14" lengthAdjust="spacing" textLength="105" x="542.5" y="55.9951">Global Services</text><!--MD5=[b7fa9e127540e0ea6b429eafe2d11ea0]
entity LS--><rect fill="#F8F8F8" height="46.2969" style="stroke:#383838;stroke-width:1.5;" width="137" x="355.5" y="23"/><rect fill="#F8F8F8" height="10" style="stroke:#383838;stroke-width:1.5;" width="15" x="472.5" y="28"/><rect fill="#F8F8F8" height="2" style="stroke:#383838;stroke-width:1.5;" width="4" x="470.5" y="30"/><rect fill="#F8F8F8" height="2" style="stroke:#383838;stroke-width:1.5;" width="4" x="470.5" y="34"/><text fill="#000000" font-family="sans-serif" font-size="14" lengthAdjust="spacing" textLength="97" x="370.5" y="55.9951">Local Services</text><!--MD5=[1c663e8795769970bce8935b899ece12]
entity TA--><rect fill="#F8F8F8" height="46.2969" style="stroke:#383838;stroke-width:1.5;" width="152" x="168" y="23"/><rect fill="#F8F8F8" height="10" style="stroke:#383838;stroke-width:1.5;" width="15" x="300" y="28"/><rect fill="#F8F8F8" height="2" style="stroke:#383838;stroke-width:1.5;" width="4" x="298" y="30"/><rect fill="#F8F8F8" height="2" style="stroke:#383838;stroke-width:1.5;" width="4" x="298" y="34"/><text fill="#000000" font-family="sans-serif" font-size="14" lengthAdjust="spacing" textLength="112" x="183" y="55.9951">Transport Agent</text><!--MD5=[b77750067e160c5e66c823a87f4eba16]
entity LB--><rect fill="#F8F8F8" height="46.2969" style="stroke:#383838;stroke-width:1.5;" width="169" x="827.5" y="23"/><rect fill="#F8F8F8" height="10" style="stroke:#383838;stroke-width:1.5;" width="15" x="976.5" y="28"/><rect fill="#F8F8F8" height="2" style="stroke:#383838;stroke-width:1.5;" width="4" x="974.5" y="30"/><rect fill="#F8F8F8" height="2" style="stroke:#383838;stroke-width:1.5;" width="4" x="974.5" y="34"/><text fill="#000000" font-family="sans-serif" font-size="14" lengthAdjust="spacing" textLength="129" x="842.5" y="55.9951">Launcher Backend</text><text fill="#000000" font-family="sans-serif" font-size="14" lengthAdjust="spacing" textLength="80" x="770" y="185.6982">Logging API</text><rect fill="#383838" height="12" style="stroke:#F8F8F8;stroke-width:1.5;" width="12" x="806" y="201"/><text fill="#000000" font-family="sans-serif" font-size="14" lengthAdjust="spacing" textLength="88" x="379" y="185.6982">Message API</text><rect fill="#383838" height="12" style="stroke:#F8F8F8;stroke-width:1.5;" width="12" x="417" y="201"/><text fill="#000000" font-family="sans-serif" font-size="14" lengthAdjust="spacing" textLength="105" x="547.5" y="185.6982">Connection API</text><rect fill="#383838" height="12" style="stroke:#F8F8F8;stroke-width:1.5;" width="12" x="594" y="201"/><text fill="#000000" font-family="sans-serif" font-size="14" lengthAdjust="spacing" textLength="117" x="494.5" y="185.6982">Infrastructure API</text><rect fill="#383838" height="12" style="stroke:#F8F8F8;stroke-width:1.5;" width="12" x="547" y="201"/><text fill="#000000" font-family="sans-serif" font-size="14" lengthAdjust="spacing" textLength="74" x="965" y="185.6982">Utilities API</text><rect fill="#383838" height="12" style="stroke:#F8F8F8;stroke-width:1.5;" width="12" x="996" y="201"/><!--MD5=[fbb29d71e1a69f6cd9ab530252559ad3]
entity DCONN--><rect fill="#F8F8F8" height="46.2969" style="stroke:#383838;stroke-width:1.5;" width="120" x="609" y="273"/><rect fill="#F8F8F8" height="10" style="stroke:#383838;stroke-width:1.5;" width="15" x="709" y="278"/><rect fill="#F8F8F8" height="2" style="stroke:#383838;stroke-width:1.5;" width="4" x="707" y="280"/><rect fill="#F8F8F8" height="2" style="stroke:#383838;stroke-width:1.5;" width="4" x="707" y="284"/><text fill="#000000" font-family="sans-serif" font-size="14" lengthAdjust="spacing" textLength="80" x="624" y="305.9951">Connection</text><!--MD5=[eb3363dfeb9fb97d594a707b911ec3b2]
entity IMSG--><rect fill="#F8F8F8" height="46.2969" style="stroke:#383838;stroke-width:1.5;" width="111" x="196.5" y="273"/><rect fill="#F8F8F8" height="10" style="stroke:#383838;stroke-width:1.5;" width="15" x="287.5" y="278"/><rect fill="#F8F8F8" height="2" style="stroke:#383838;stroke-width:1.5;" width="4" x="285.5" y="280"/><rect fill="#F8F8F8" height="2" style="stroke:#383838;stroke-width:1.5;" width="4" x="285.5" y="284"/><text fill="#000000" font-family="sans-serif" font-size="14" lengthAdjust="spacing" textLength="71" x="211.5" y="305.9951">Messages</text><!--MD5=[60bcd828ed16205ef7454fb594625cf4]
entity IFACTS--><rect fill="#F8F8F8" height="46.2969" style="stroke:#383838;stroke-width:1.5;" width="77" x="496.5" y="273"/><rect fill="#F8F8F8" height="10" style="stroke:#383838;stroke-width:1.5;" width="15" x="553.5" y="278"/><rect fill="#F8F8F8" height="2" style="stroke:#383838;stroke-width:1.5;" width="4" x="551.5" y="280"/><rect fill="#F8F8F8" height="2" style="stroke:#383838;stroke-width:1.5;" width="4" x="551.5" y="284"/><text fill="#000000" font-family="sans-serif" font-size="14" lengthAdjust="spacing" textLength="37" x="511.5" y="305.9951">Facts</text><!--MD5=[aac5b869ff40da5a7fe8e211852f1b5a]
entity IPARAM--><rect fill="#F8F8F8" height="46.2969" style="stroke:#383838;stroke-width:1.5;" width="119" x="342.5" y="273"/><rect fill="#F8F8F8" height="10" style="stroke:#383838;stroke-width:1.5;" width="15" x="441.5" y="278"/><rect fill="#F8F8F8" height="2" style="stroke:#383838;stroke-width:1.5;" width="4" x="439.5" y="280"/><rect fill="#F8F8F8" height="2" style="stroke:#383838;stroke-width:1.5;" width="4" x="439.5" y="284"/><text fill="#000000" font-family="sans-serif" font-size="14" lengthAdjust="spacing" textLength="79" x="357.5" y="305.9951">Parameters</text><!--MD5=[2290accb18badb2ab33b36cb98d0ca62]
entity IUTIL--><rect fill="#F8F8F8" height="46.2969" style="stroke:#383838;stroke-width:1.5;" width="61" x="1266.5" y="273"/><rect fill="#F8F8F8" height="10" style="stroke:#383838;stroke-width:1.5;" width="15" x="1307.5" y="278"/><rect fill="#F8F8F8" height="2" style="stroke:#383838;stroke-width:1.5;" width="4" x="1305.5" y="280"/><rect fill="#F8F8F8" height="2" style="stroke:#383838;stroke-width:1.5;" width="4" x="1305.5" y="284"/><text fill="#000000" font-family="sans-serif" font-size="14" lengthAdjust="spacing" textLength="21" x="1281.5" y="305.9951">Util</text><!--MD5=[3c0a0b8a7849012ead052ef1fc396eb6]
entity IDESC--><rect fill="#F8F8F8" height="46.2969" style="stroke:#383838;stroke-width:1.5;" width="216" x="197" y="379"/><rect fill="#F8F8F8" height="10" style="stroke:#383838;stroke-width:1.5;" width="15" x="393" y="384"/><rect fill="#F8F8F8" height="2" style="stroke:#383838;stroke-width:1.5;" width="4" x="391" y="386"/><rect fill="#F8F8F8" height="2" style="stroke:#383838;stroke-width:1.5;" width="4" x="391" y="390"/><text fill="#000000" font-family="sans-serif" font-size="14" lengthAdjust="spacing" textLength="176" x="212" y="411.9951">Infrastructure Descriptors</text><!--MD5=[d9bbd395d93bdddd3abe33cf663a7d8d]
entity ILOG--><rect fill="#F8F8F8" height="46.2969" style="stroke:#383838;stroke-width:1.5;" width="95" x="764.5" y="273"/><rect fill="#F8F8F8" height="10" style="stroke:#383838;stroke-width:1.5;" width="15" x="839.5" y="278"/><rect fill="#F8F8F8" height="2" style="stroke:#383838;stroke-width:1.5;" width="4" x="837.5" y="280"/><rect fill="#F8F8F8" height="2" style="stroke:#383838;stroke-width:1.5;" width="4" x="837.5" y="284"/><text fill="#000000" font-family="sans-serif" font-size="14" lengthAdjust="spacing" textLength="55" x="779.5" y="305.9951">Logging</text><text fill="#000000" font-family="sans-serif" font-size="14" lengthAdjust="spacing" textLength="109" x="88.5" y="469.6982">Channel Set API</text><rect fill="#383838" height="12" style="stroke:#F8F8F8;stroke-width:1.5;" width="12" x="137" y="485"/><text fill="#000000" font-family="sans-serif" font-size="14" lengthAdjust="spacing" textLength="82" x="616" y="469.6982">Channel API</text><rect fill="#383838" height="12" style="stroke:#F8F8F8;stroke-width:1.5;" width="12" x="651" y="485"/><text fill="#000000" font-family="sans-serif" font-size="14" lengthAdjust="spacing" textLength="148" x="743" y="469.6982">Managed Memory API</text><rect fill="#383838" height="12" style="stroke:#F8F8F8;stroke-width:1.5;" width="12" x="811" y="485"/><text fill="#000000" font-family="sans-serif" font-size="14" lengthAdjust="spacing" textLength="114" x="419" y="469.6982">Global Types API</text><rect fill="#383838" height="12" style="stroke:#F8F8F8;stroke-width:1.5;" width="12" x="470" y="485"/><!--MD5=[47b77b79609010dec1e120efd9dc3bbf]
entity DSET--><rect fill="#F8F8F8" height="46.2969" style="stroke:#383838;stroke-width:1.5;" width="124" x="23" y="565.5"/><rect fill="#F8F8F8" height="10" style="stroke:#383838;stroke-width:1.5;" width="15" x="127" y="570.5"/><rect fill="#F8F8F8" height="2" style="stroke:#383838;stroke-width:1.5;" width="4" x="125" y="572.5"/><rect fill="#F8F8F8" height="2" style="stroke:#383838;stroke-width:1.5;" width="4" x="125" y="576.5"/><text fill="#000000" font-family="sans-serif" font-size="14" lengthAdjust="spacing" textLength="84" x="38" y="598.4951">Channel Set</text><!--MD5=[d71e3c01facfa38ccb4296acfbd8d344]
entity DCHAN--><rect fill="#F8F8F8" height="46.2969" style="stroke:#383838;stroke-width:1.5;" width="105" x="624.5" y="565.5"/><rect fill="#F8F8F8" height="10" style="stroke:#383838;stroke-width:1.5;" width="15" x="709.5" y="570.5"/><rect fill="#F8F8F8" height="2" style="stroke:#383838;stroke-width:1.5;" width="4" x="707.5" y="572.5"/><rect fill="#F8F8F8" height="2" style="stroke:#383838;stroke-width:1.5;" width="4" x="707.5" y="576.5"/><text fill="#000000" font-family="sans-serif" font-size="14" lengthAdjust="spacing" textLength="65" x="639.5" y="598.4951">Channels</text><!--MD5=[2debbf01f62ebdb597c1eda2dad1ceb8]
entity DMEM--><rect fill="#F8F8F8" height="46.2969" style="stroke:#383838;stroke-width:1.5;" width="163" x="764.5" y="565.5"/><rect fill="#F8F8F8" height="10" style="stroke:#383838;stroke-width:1.5;" width="15" x="907.5" y="570.5"/><rect fill="#F8F8F8" height="2" style="stroke:#383838;stroke-width:1.5;" width="4" x="905.5" y="572.5"/><rect fill="#F8F8F8" height="2" style="stroke:#383838;stroke-width:1.5;" width="4" x="905.5" y="576.5"/><text fill="#000000" font-family="sans-serif" font-size="14" lengthAdjust="spacing" textLength="123" x="779.5" y="598.4951">Managed Memory</text><!--MD5=[cef8084b0f4726b975a49f782b7f3195]
entity DTYPES--><rect fill="#F8F8F8" height="62.5938" style="stroke:#383838;stroke-width:1.5;" width="153" x="182.5" y="557"/><rect fill="#F8F8F8" height="10" style="stroke:#383838;stroke-width:1.5;" width="15" x="315.5" y="562"/><rect fill="#F8F8F8" height="2" style="stroke:#383838;stroke-width:1.5;" width="4" x="313.5" y="564"/><rect fill="#F8F8F8" height="2" style="stroke:#383838;stroke-width:1.5;" width="4" x="313.5" y="568"/><text fill="#000000" font-family="sans-serif" font-size="14" lengthAdjust="spacing" textLength="109" x="197.5" y="589.9951">Common Types</text><text fill="#000000" font-family="sans-serif" font-size="14" lengthAdjust="spacing" textLength="112" x="197.5" y="606.292">&amp; Return Codes</text><!--MD5=[0d038453eee180b13a52de866e455b12]
entity DCLIENT--><rect fill="#F8F8F8" height="46.2969" style="stroke:#383838;stroke-width:1.5;" width="103" x="29.5" y="23"/><rect fill="#F8F8F8" height="10" style="stroke:#383838;stroke-width:1.5;" width="15" x="112.5" y="28"/><rect fill="#F8F8F8" height="2" style="stroke:#383838;stroke-width:1.5;" width="4" x="110.5" y="30"/><rect fill="#F8F8F8" height="2" style="stroke:#383838;stroke-width:1.5;" width="4" x="110.5" y="34"/><text fill="#000000" font-family="sans-serif" font-size="14" lengthAdjust="spacing" textLength="63" x="44.5" y="55.9951">GS Client</text><!--MD5=[cfb95c31be0ff1ef8d921a115cb463e9]
link GS to ifport--><path d="M600,74.38 C600,74.38 600,123.83 600,123.83 " fill="none" id="GS-ifport" style="stroke:#383838;stroke-width:1.0;"/><polygon fill="#383838" points="600,128.83,604,119.83,600,123.83,596,119.83,600,128.83" style="stroke:#383838;stroke-width:1.0;"/><polygon fill="#383838" points="600,69.38,596,78.38,600,74.38,604,78.38,600,69.38" style="stroke:#383838;stroke-width:1.0;"/><!--MD5=[ff702bbb6675b998589dee2ce1cd0605]
link LS to ifport--><path d="M478.5,74.05 C478.5,74.05 478.5,132 478.5,132 C478.5,132 588.81,132 588.81,132 " fill="none" id="LS-ifport" style="stroke:#383838;stroke-width:1.0;"/><polygon fill="#383838" points="593.81,132,584.81,128,588.81,132,584.81,136,593.81,132" style="stroke:#383838;stroke-width:1.0;"/><polygon fill="#383838" points="478.5,69.05,474.5,78.05,478.5,74.05,482.5,78.05,478.5,69.05" style="stroke:#383838;stroke-width:1.0;"/><!--MD5=[6244d8e3237c3dcdada06d4ab2cbfafc]
link LB to ifport--><path d="M840.5,74.12 C840.5,74.12 840.5,134 840.5,134 C840.5,134 611.19,134 611.19,134 " fill="none" id="LB-ifport" style="stroke:#383838;stroke-width:1.0;"/><polygon fill="#383838" points="606.19,134,615.19,138,611.19,134,615.19,130,606.19,134" style="stroke:#383838;stroke-width:1.0;"/><polygon fill="#383838" points="840.5,69.12,836.5,78.12,840.5,74.12,844.5,78.12,840.5,69.12" style="stroke:#383838;stroke-width:1.0;"/><!--MD5=[68a2b3533282eca0d952a7aa3406b958]
link TA to ifport--><path d="M313.75,74.12 C313.75,74.12 313.75,134 313.75,134 C313.75,134 588.76,134 588.76,134 " fill="none" id="TA-ifport" style="stroke:#383838;stroke-width:1.0;"/><polygon fill="#383838" points="593.76,134,584.76,130,588.76,134,584.76,138,593.76,134" style="stroke:#383838;stroke-width:1.0;"/><polygon fill="#383838" points="313.75,69.12,309.75,78.12,313.75,74.12,317.75,78.12,313.75,69.12" style="stroke:#383838;stroke-width:1.0;"/><!--MD5=[0bc8a366ccab7d1b5f135a0bf54b53ff]
link msg_api to IMSG--><path d="M411.91,207 C411.91,207 252,207 252,207 C252,207 252,267.62 252,267.62 " fill="none" id="msg_api-IMSG" style="stroke:#383838;stroke-width:1.0;"/><polygon fill="#383838" points="252,272.62,256,263.62,252,267.62,248,263.62,252,272.62" style="stroke:#383838;stroke-width:1.0;"/><polygon fill="#383838" points="416.91,207,407.91,203,411.91,207,407.91,211,416.91,207" style="stroke:#383838;stroke-width:1.0;"/><!--MD5=[791442b71a2ab1880c23b4277946588f]
link IMSG to IDESC--><path d="M252.25,319 C252.25,319 252.25,373.68 252.25,373.68 " fill="none" id="IMSG-to-IDESC" style="stroke:#383838;stroke-width:1.0;"/><polygon fill="#383838" points="252.25,378.68,256.25,369.68,252.25,373.68,248.25,369.68,252.25,378.68" style="stroke:#383838;stroke-width:1.0;"/><!--MD5=[294b4f6ad262b2ec6c31385476d41308]
link inf_api to IFACTS--><path d="M553,213.12 C553,213.12 553,267.77 553,267.77 " fill="none" id="inf_api-to-IFACTS" style="stroke:#383838;stroke-width:1.0;"/><polygon fill="#383838" points="553,272.77,557,263.77,553,267.77,549,263.77,553,272.77" style="stroke:#383838;stroke-width:1.0;"/><!--MD5=[cfebe6b4975e25388230c5f8cd9c767d]
link inf_api to IPARAM--><path d="M550,213.14 C550,217.65 550,223 550,223 C550,223 445.25,223 445.25,223 C445.25,223 445.25,267.9 445.25,267.9 " fill="none" id="inf_api-to-IPARAM" style="stroke:#383838;stroke-width:1.0;"/><polygon fill="#383838" points="445.25,272.9,449.25,263.9,445.25,267.9,441.25,263.9,445.25,272.9" style="stroke:#383838;stroke-width:1.0;"/><!--MD5=[f4774ebaf4c5fa496ba342ed682c189c]
link conn_api to DCONN--><path d="M606.11,207 C613.59,207 625.25,207 625.25,207 C625.25,207 625.25,267.62 625.25,267.62 " fill="none" id="conn_api-to-DCONN" style="stroke:#383838;stroke-width:1.0;"/><polygon fill="#383838" points="625.25,272.62,629.25,263.62,625.25,267.62,621.25,263.62,625.25,272.62" style="stroke:#383838;stroke-width:1.0;"/><!--MD5=[aa7ad2e33e6151ef3518743255db139a]
link util_api to IUTIL--><path d="M1004,213.22 C1004,230.88 1004,280 1004,280 C1004,280 1261.47,280 1261.47,280 " fill="none" id="util_api-to-IUTIL" style="stroke:#383838;stroke-width:1.0;"/><polygon fill="#383838" points="1266.47,280,1257.47,276,1261.47,280,1257.47,284,1266.47,280" style="stroke:#383838;stroke-width:1.0;"/><!--MD5=[a661e108e3e9e11c9cec800078a3e44b]
link log_api to ILOG--><path d="M812,213.12 C812,213.12 812,267.77 812,267.77 " fill="none" id="log_api-to-ILOG" style="stroke:#383838;stroke-width:1.0;"/><polygon fill="#383838" points="812,272.77,816,263.77,812,267.77,808,263.77,812,272.77" style="stroke:#383838;stroke-width:1.0;"/><!--MD5=[a6197ac745cd7689676d41a7940331f3]
link ifport to inf_api--><path d="M593.74,139 C581.38,139 555,139 555,139 C555,139 555,195.72 555,195.72 " fill="none" id="ifport-to-inf_api" style="stroke:#383838;stroke-width:1.0;"/><polygon fill="#383838" points="555,200.72,559,191.72,555,195.72,551,191.72,555,200.72" style="stroke:#383838;stroke-width:1.0;"/><!--MD5=[300c81ea25ef3f1a1877a546a3e77c29]
link ifport to msg_api--><path d="M593.7,137 C562.17,137 423,137 423,137 C423,137 423,195.54 423,195.54 " fill="none" id="ifport-to-msg_api" style="stroke:#383838;stroke-width:1.0;"/><polygon fill="#383838" points="423,200.54,427,191.54,423,195.54,419,191.54,423,200.54" style="stroke:#383838;stroke-width:1.0;"/><!--MD5=[7de71d857298eb4456b594d92a33113b]
link ifport to conn_api--><path d="M600,141.14 C600,141.14 600,195.88 600,195.88 " fill="none" id="ifport-to-conn_api" style="stroke:#383838;stroke-width:1.0;"/><polygon fill="#383838" points="600,200.88,604,191.88,600,195.88,596,191.88,600,200.88" style="stroke:#383838;stroke-width:1.0;"/><!--MD5=[bca43c6d39371deca5b828b49b1b1cb9]
link ifport to log_api--><path d="M606.12,139 C640.88,139 812,139 812,139 C812,139 812,195.72 812,195.72 " fill="none" id="ifport-to-log_api" style="stroke:#383838;stroke-width:1.0;"/><polygon fill="#383838" points="812,200.72,816,191.72,812,195.72,808,191.72,812,200.72" style="stroke:#383838;stroke-width:1.0;"/><!--MD5=[654c271c6af161f98d272874f08aaea0]
link ifport to util_api--><path d="M606.03,137 C656.3,137 1004.17,137 1004.17,137 C1004.17,137 1004.17,195.54 1004.17,195.54 " fill="none" id="ifport-to-util_api" style="stroke:#383838;stroke-width:1.0;"/><polygon fill="#383838" points="1004.17,200.54,1008.17,191.54,1004.17,195.54,1000.17,191.54,1004.17,200.54" style="stroke:#383838;stroke-width:1.0;"/><!--MD5=[8bb342491b8b0da9a667a180453662bc]
reverse link DSET to dset_api--><path d="M142,560.39 C142,560.39 142,497.29 142,497.29 " fill="none" id="DSET-backto-dset_api" style="stroke:#383838;stroke-width:1.0;"/><polygon fill="#383838" points="142,565.39,146,556.39,142,560.39,138,556.39,142,565.39" style="stroke:#383838;stroke-width:1.0;"/><!--MD5=[822911d775ccb308f3217378ccc0ec09]
reverse link DCHAN to dchan_api--><path d="M657,560.39 C657,560.39 657,497.29 657,497.29 " fill="none" id="DCHAN-backto-dchan_api" style="stroke:#383838;stroke-width:1.0;"/><polygon fill="#383838" points="657,565.39,661,556.39,657,560.39,653,556.39,657,565.39" style="stroke:#383838;stroke-width:1.0;"/><!--MD5=[76d10e83dc71fee3d8567beb35c6a7f5]
reverse link DMEM to dmm_api--><path d="M817,560.39 C817,560.39 817,497.29 817,497.29 " fill="none" id="DMEM-backto-dmm_api" style="stroke:#383838;stroke-width:1.0;"/><polygon fill="#383838" points="817,565.39,821,556.39,817,560.39,813,556.39,817,565.39" style="stroke:#383838;stroke-width:1.0;"/><!--MD5=[9556505f038a7611b75dec9d03aeefb1]
reverse link DTYPES to dtypes_api--><path d="M340.71,562 C340.71,562 474,562 474,562 C474,562 474,514.22 474,497.05 " fill="none" id="DTYPES-backto-dtypes_api" style="stroke:#383838;stroke-width:1.0;"/><polygon fill="#383838" points="335.71,562,344.71,566,340.71,562,344.71,558,335.71,562" style="stroke:#383838;stroke-width:1.0;"/><!--MD5=[4d85c70f0a5d6c773c4f4a246f76bf81]
link DCONN to dchan_api--><path d="M657,319.13 C657,319.13 657,479.74 657,479.74 " fill="none" id="DCONN-to-dchan_api" style="stroke:#383838;stroke-width:1.0;"/><polygon fill="#383838" points="657,484.74,661,475.74,657,479.74,653,475.74,657,484.74" style="stroke:#383838;stroke-width:1.0;"/><!--MD5=[846155aeb1b70ac3c529436011d0300a]
link ILOG to dchan_api--><path d="M770.25,319.09 C770.25,333.37 770.25,349 770.25,349 C770.25,349 660,349 660,349 C660,349 660,479.9 660,479.9 " fill="none" id="ILOG-to-dchan_api" style="stroke:#383838;stroke-width:1.0;"/><polygon fill="#383838" points="660,484.9,664,475.9,660,479.9,656,475.9,660,484.9" style="stroke:#383838;stroke-width:1.0;"/><!--MD5=[643e5e1cfec1e371ded1f47c9ee1a0ca]
link ILOG to dmm_api--><path d="M817,319.13 C817,319.13 817,479.74 817,479.74 " fill="none" id="ILOG-to-dmm_api" style="stroke:#383838;stroke-width:1.0;"/><polygon fill="#383838" points="817,484.74,821,475.74,817,479.74,813,475.74,817,484.74" style="stroke:#383838;stroke-width:1.0;"/><!--MD5=[e7e28131a30846d9154a49c807f662a7]
link IPARAM to dtypes_api--><path d="M437.25,319.13 C437.25,370.79 437.25,491 437.25,491 C437.25,491 464.95,491 464.95,491 " fill="none" id="IPARAM-to-dtypes_api" style="stroke:#383838;stroke-width:1.0;"/><polygon fill="#383838" points="469.95,491,460.95,487,464.95,491,460.95,495,469.95,491" style="stroke:#383838;stroke-width:1.0;"/><!--MD5=[64c97c364acb0b5a9dd58a5ffc3493b6]
@startuml

' title "Dragon MPBridge Architecture"

skinparam componentStyle uml2
skinparam shadowing false
skinparam monochrome true

skinparam linetype ortho
' skinparam linetype polyline
' skinparam nodesep 100
' skinparam ranksep 90

component "Services" as DSERV { 

    port "Infrastructure API" as ifport

    [Global Services] as GS
    [Local Services] as LS
    [Transport Agent] as TA
    [Launcher Backend] as LB

    GS <- -> ifport
    LS <- -> ifport
    LB <- -> ifport
    TA <- -> ifport
}

[GS Client] as DCLIENT

component "Dragon Infrastructure (C,Cython,Python)" as DINFRA {

    portin "Logging API " as log_api
    portin "Message API" as msg_api
    portin "Connection API" as conn_api
    portin "Infrastructure API" as inf_api
    portin "Utilities API" as util_api
    
    [Connection] as DCONN
    [Messages] as IMSG
    [Facts] as IFACTS
    [Parameters] as IPARAM
    [Util] as IUTIL
    [Infrastructure Descriptors] as IDESC
    [Logging] as ILOG

    IMSG <-u-> msg_api
    IMSG -d-> IDESC
    IFACTS <-u- inf_api
    IPARAM <-u- inf_api
    DCONN <-u- conn_api
    IUTIL <-u- util_api
    ILOG <-u- log_api
}

ifport - -> inf_api 
ifport - -> msg_api 
ifport - -> conn_api 
ifport - -> log_api 
ifport - -> util_api


component "Dragon Core Libraries (C)" as DCORE {

    portin "Channel Set API" as dset_api
    portin "Channel API" as dchan_api
    portin "Managed Memory API" as dmm_api
    ' portin "Broadcast API" as dbcast_api
    ' portin "Gateway Message API" as dgmsg_api
    portin "Global Types API" as dtypes_api

    [Channel Set] as DSET
    [Channels] as DCHAN
    [Managed Memory] as DMEM
    ' [Broadcast] as DBROAD
    ' [Gateway Messages] as DGMSG
    [Common Types \n& Return Codes] as DTYPES

    DSET <- - dset_api
    DCHAN <- - dchan_api
    DMEM <- - dmm_api
    ' DBROAD <- - dbcast_api
    ' DGMSG <- - dgmsg_api
    DTYPES <- - dtypes_api
}

DCONN - -d-> dchan_api
ILOG - - -> dchan_api
ILOG - - -> dmm_api
IPARAM - - -> dtypes_api

' component "Runtime Services" as  DSERV {
    
'     [Global Services] as GS
'     [Local Services / Shepherd] as LS
'     [Launcher Backend] as LAB
'     [Transport] as TA
' }




'in case we want to hide components
hide $hidden
@enduml

@startuml


skinparam componentStyle uml2
skinparam shadowing false
skinparam monochrome true

skinparam linetype ortho

component "Services" as DSERV { 

    port "Infrastructure API" as ifport

    [Global Services] as GS
    [Local Services] as LS
    [Transport Agent] as TA
    [Launcher Backend] as LB

    GS <- -> ifport
    LS <- -> ifport
    LB <- -> ifport
    TA <- -> ifport
}

[GS Client] as DCLIENT

component "Dragon Infrastructure (C,Cython,Python)" as DINFRA {

    portin "Logging API " as log_api
    portin "Message API" as msg_api
    portin "Connection API" as conn_api
    portin "Infrastructure API" as inf_api
    portin "Utilities API" as util_api
    
    [Connection] as DCONN
    [Messages] as IMSG
    [Facts] as IFACTS
    [Parameters] as IPARAM
    [Util] as IUTIL
    [Infrastructure Descriptors] as IDESC
    [Logging] as ILOG

    IMSG <-u-> msg_api
    IMSG -d-> IDESC
    IFACTS <-u- inf_api
    IPARAM <-u- inf_api
    DCONN <-u- conn_api
    IUTIL <-u- util_api
    ILOG <-u- log_api
}

ifport - -> inf_api 
ifport - -> msg_api 
ifport - -> conn_api 
ifport - -> log_api 
ifport - -> util_api


component "Dragon Core Libraries (C)" as DCORE {

    portin "Channel Set API" as dset_api
    portin "Channel API" as dchan_api
    portin "Managed Memory API" as dmm_api
    portin "Global Types API" as dtypes_api

    [Channel Set] as DSET
    [Channels] as DCHAN
    [Managed Memory] as DMEM
    [Common Types \n& Return Codes] as DTYPES

    DSET <- - dset_api
    DCHAN <- - dchan_api
    DMEM <- - dmm_api
    DTYPES <- - dtypes_api
}

DCONN - -d-> dchan_api
ILOG - - -> dchan_api
ILOG - - -> dmm_api
IPARAM - - -> dtypes_api

    




hide $hidden
@enduml

PlantUML version 1.2022.1(Tue Feb 01 18:19:58 GMT 2022)
(GPL source distribution)
Java Runtime: OpenJDK Runtime Environment
JVM: OpenJDK 64-Bit Server VM
Default Encoding: UTF-8
Language: en
Country: US
--></g></svg>