<?xml version="1.0" encoding="UTF-8" standalone="no"?><svg xmlns="http://www.w3.org/2000/svg" xmlns:xlink="http://www.w3.org/1999/xlink" contentScriptType="application/ecmascript" contentStyleType="text/css" height="534px" preserveAspectRatio="none" style="width:1079px;height:534px;background:#FFFFFF;" version="1.1" viewBox="0 0 1079 534" width="1079px" zoomAndPan="magnify"><defs/><g><!--MD5=[b9c48a40ab0a5fe542b189eaa52939aa]
cluster Launcher on Multi Node Deployment--><polygon fill="#FFFFFF" points="16,59,308,59,315,81.2969,703,81.2969,703,447,16,447,16,59" style="stroke:#000000;stroke-width:1.5;"/><line style="stroke:#000000;stroke-width:1.5;" x1="16" x2="315" y1="81.2969" y2="81.2969"/><text fill="#000000" font-family="sans-serif" font-size="14" font-weight="bold" lengthAdjust="spacing" textLength="286" x="20" y="73.9951">Launcher on Multi Node Deployment</text><!--MD5=[b6473996dc3643ba2ff33366656624b4]
cluster Compute Node--><rect fill="#FFFFFF" height="321" style="stroke:#000000;stroke-width:1.5;" width="388" x="291" y="102"/><path d="M418,102 L418,111.2969 L408,121.2969 L291,121.2969 " fill="none" style="stroke:#000000;stroke-width:1.5;"/><text fill="#000000" font-family="sans-serif" font-size="14" font-weight="bold" lengthAdjust="spacing" textLength="117" x="294" y="115.9951">Compute Node</text><!--MD5=[9a2e03db608e792700fa3811fe093b56]
cluster Login Node--><rect fill="#FFFFFF" height="321" style="stroke:#000000;stroke-width:1.5;" width="227" x="40" y="102"/><path d="M139,102 L139,111.2969 L129,121.2969 L40,121.2969 " fill="none" style="stroke:#000000;stroke-width:1.5;"/><text fill="#000000" font-family="sans-serif" font-size="14" font-weight="bold" lengthAdjust="spacing" textLength="89" x="43" y="115.9951">Login Node</text><!--MD5=[b77750067e160c5e66c823a87f4eba16]
entity LB--><rect fill="#F8F8F8" height="46.2969" style="stroke:#383838;stroke-width:1.5;" width="169" x="494.5" y="137"/><rect fill="#F8F8F8" height="10" style="stroke:#383838;stroke-width:1.5;" width="15" x="643.5" y="142"/><rect fill="#F8F8F8" height="2" style="stroke:#383838;stroke-width:1.5;" width="4" x="641.5" y="144"/><rect fill="#F8F8F8" height="2" style="stroke:#383838;stroke-width:1.5;" width="4" x="641.5" y="148"/><text fill="#000000" font-family="sans-serif" font-size="14" lengthAdjust="spacing" textLength="129" x="509.5" y="169.9951">Launcher Backend</text><!--MD5=[124d0f7cf5cd3c821aa1e7abad4076ba]
entity NB--><rect fill="#F8F8F8" height="46.2969" style="stroke:#383838;stroke-width:1.5;" width="162" x="383" y="361"/><rect fill="#F8F8F8" height="10" style="stroke:#383838;stroke-width:1.5;" width="15" x="525" y="366"/><rect fill="#F8F8F8" height="2" style="stroke:#383838;stroke-width:1.5;" width="4" x="523" y="368"/><rect fill="#F8F8F8" height="2" style="stroke:#383838;stroke-width:1.5;" width="4" x="523" y="372"/><text fill="#000000" font-family="sans-serif" font-size="14" lengthAdjust="spacing" textLength="122" x="398" y="393.9951">Network Backend</text><!--MD5=[69a4b3655afdfb587d354294bec27d60]
entity MS0--><rect fill="#F8F8F8" height="46.2969" style="stroke:#383838;stroke-width:1.5;" width="152" x="307" y="137"/><rect fill="#F8F8F8" height="10" style="stroke:#383838;stroke-width:1.5;" width="15" x="439" y="142"/><rect fill="#F8F8F8" height="2" style="stroke:#383838;stroke-width:1.5;" width="4" x="437" y="144"/><rect fill="#F8F8F8" height="2" style="stroke:#383838;stroke-width:1.5;" width="4" x="437" y="148"/><text fill="#000000" font-family="sans-serif" font-size="14" lengthAdjust="spacing" textLength="112" x="322" y="169.9951">MRNet Server ??</text><!--MD5=[ed66335367d8648df18872a8a92729d0]
entity stdout_be--><ellipse cx="464" cy="272" fill="#F8F8F8" rx="8" ry="8" style="stroke:#383838;stroke-width:1.5;"/><text fill="#000000" font-family="sans-serif" font-size="14" lengthAdjust="spacing" textLength="91" x="418.5" y="301.9951">stdout/stderr</text><!--MD5=[4c31045de43a3bc9e7f3c47d305cbf6a]
entity stdin_be--><ellipse cx="579" cy="272" fill="#F8F8F8" rx="8" ry="8" style="stroke:#383838;stroke-width:1.5;"/><text fill="#000000" font-family="sans-serif" font-size="14" lengthAdjust="spacing" textLength="34" x="562" y="301.9951">stdin</text><!--MD5=[82af1dee43a4b33a77487333ec09e8d2]
entity LF--><rect fill="#F8F8F8" height="46.2969" style="stroke:#383838;stroke-width:1.5;" width="171" x="67.5" y="137"/><rect fill="#F8F8F8" height="10" style="stroke:#383838;stroke-width:1.5;" width="15" x="218.5" y="142"/><rect fill="#F8F8F8" height="2" style="stroke:#383838;stroke-width:1.5;" width="4" x="216.5" y="144"/><rect fill="#F8F8F8" height="2" style="stroke:#383838;stroke-width:1.5;" width="4" x="216.5" y="148"/><text fill="#000000" font-family="sans-serif" font-size="14" lengthAdjust="spacing" textLength="131" x="82.5" y="169.9951">Launcher Frontend</text><!--MD5=[7059f73fcdd89f54b936ff1f3f30c29d]
entity NF--><rect fill="#F8F8F8" height="46.2969" style="stroke:#383838;stroke-width:1.5;" width="164" x="87" y="361"/><rect fill="#F8F8F8" height="10" style="stroke:#383838;stroke-width:1.5;" width="15" x="231" y="366"/><rect fill="#F8F8F8" height="2" style="stroke:#383838;stroke-width:1.5;" width="4" x="229" y="368"/><rect fill="#F8F8F8" height="2" style="stroke:#383838;stroke-width:1.5;" width="4" x="229" y="372"/><text fill="#000000" font-family="sans-serif" font-size="14" lengthAdjust="spacing" textLength="124" x="102" y="393.9951">Network Frontend</text><!--MD5=[28b762e725ea4c7692bac5278b272347]
entity stdout_fe--><ellipse cx="109" cy="272" fill="#F8F8F8" rx="8" ry="8" style="stroke:#383838;stroke-width:1.5;"/><text fill="#000000" font-family="sans-serif" font-size="14" lengthAdjust="spacing" textLength="91" x="63.5" y="301.9951">stdout/stderr</text><!--MD5=[397826adf0254a594ba5bbae9461ab01]
entity stdin_fe--><ellipse cx="224" cy="272" fill="#F8F8F8" rx="8" ry="8" style="stroke:#383838;stroke-width:1.5;"/><text fill="#000000" font-family="sans-serif" font-size="14" lengthAdjust="spacing" textLength="34" x="207" y="301.9951">stdin</text><!--MD5=[83bc0680e45a10843370afeea57a7b92]
entity mrnet--><ellipse cx="316" cy="496" fill="#F8F8F8" rx="8" ry="8" style="stroke:#383838;stroke-width:1.5;"/><text fill="#000000" font-family="sans-serif" font-size="14" lengthAdjust="spacing" textLength="46" x="293" y="525.9951">MRNet</text><!--MD5=[b68f029506d007bb301cc433903a77f0]
entity posix_message_queue--><ellipse cx="399" cy="14" fill="#F8F8F8" rx="8" ry="8" style="stroke:#383838;stroke-width:1.5;"/><text fill="#000000" font-family="sans-serif" font-size="14" lengthAdjust="spacing" textLength="68" x="365" y="43.9951">POSIX MQ</text><!--MD5=[aaf6bddd66720d81cbca8f1ba079750e]
entity launcher_channel--><ellipse cx="787" cy="14" fill="#F8F8F8" rx="8" ry="8" style="stroke:#383838;stroke-width:1.5;"/><text fill="#000000" font-family="sans-serif" font-size="14" lengthAdjust="spacing" textLength="125" x="724.5" y="43.9951">Launcher Channel</text><!--MD5=[39131fe14e121981146d00e93bb32071]
entity bela_channel--><ellipse cx="579" cy="14" fill="#F8F8F8" rx="8" ry="8" style="stroke:#383838;stroke-width:1.5;"/><text fill="#000000" font-family="sans-serif" font-size="14" lengthAdjust="spacing" textLength="190" x="484" y="43.9951">Launcher Backend Channel</text><!--MD5=[f4c2c6b1ce83135da143416fcde9e7c2]
entity global_services_channel--><ellipse cx="810" cy="272" fill="#F8F8F8" rx="8" ry="8" style="stroke:#383838;stroke-width:1.5;"/><text fill="#000000" font-family="sans-serif" font-size="14" lengthAdjust="spacing" textLength="166" x="727" y="301.9951">Global Services Channel</text><!--MD5=[4245db78645dbc3abffb0dcaace90459]
entity shepherd_channel--><ellipse cx="1008" cy="272" fill="#F8F8F8" rx="8" ry="8" style="stroke:#383838;stroke-width:1.5;"/><text fill="#000000" font-family="sans-serif" font-size="14" lengthAdjust="spacing" textLength="129" x="943.5" y="301.9951">Shepherd Channel</text><!--MD5=[0daaf19503d3861928cebb53fd59d71f]
link LB to stdin_be--><path d="M579,183.26 C579,205.56 579,239.16 579,257.64 " fill="none" id="LB-to-stdin_be" style="stroke:#383838;stroke-width:1.0;"/><polygon fill="#383838" points="579,262.86,583,253.86,579,257.86,575,253.86,579,262.86" style="stroke:#383838;stroke-width:1.0;"/><!--MD5=[7e89976059e32b692c64ce9cafc98e93]
link stdin_be to NB--><path d="M570.36,281.27 C553.73,297.17 516.66,332.63 491,357.17 " fill="none" id="stdin_be-to-NB" style="stroke:#383838;stroke-width:1.0;"/><polygon fill="#383838" points="487.3,360.71,496.5687,357.3796,490.9132,357.2539,491.0389,351.5984,487.3,360.71" style="stroke:#383838;stroke-width:1.0;"/><!--MD5=[2acf7717e977c134e6a1d4ac38addf44]
link LB to stdout_be--><path d="M555.73,183.26 C531.81,206.14 495.47,240.9 476.51,259.04 " fill="none" id="LB-to-stdout_be" style="stroke:#383838;stroke-width:1.0;"/><polygon fill="#383838" points="472.51,262.86,481.7787,259.5296,476.1232,259.4039,476.2489,253.7484,472.51,262.86" style="stroke:#383838;stroke-width:1.0;"/><!--MD5=[779245089ca63a734f33b5eea8481c5e]
reverse link stdout_be to NB--><path d="M464,286.5 C464,305 464,338.47 464,360.71 " fill="none" id="stdout_be-backto-NB" style="stroke:#383838;stroke-width:1.0;"/><polygon fill="#383838" points="464,281.27,460,290.27,464,286.27,468,290.27,464,281.27" style="stroke:#383838;stroke-width:1.0;"/><!--MD5=[3dfecb544547fc3298e88929caf81f45]
link LF to stdin_fe--><path d="M167.37,183.26 C182.01,205.95 204.2,240.32 215.98,258.58 " fill="none" id="LF-to-stdin_fe" style="stroke:#383838;stroke-width:1.0;"/><polygon fill="#383838" points="218.74,262.86,217.2379,253.1264,216.0362,258.6541,210.5085,257.4524,218.74,262.86" style="stroke:#383838;stroke-width:1.0;"/><!--MD5=[3588b2f07f02a0abcb1384cca345b76f]
link stdin_fe to NF--><path d="M219.87,281.27 C212.04,296.91 194.76,331.47 182.52,355.96 " fill="none" id="stdin_fe-to-NF" style="stroke:#383838;stroke-width:1.0;"/><polygon fill="#383838" points="180.14,360.71,187.7346,354.4393,182.3703,356.235,180.5746,350.8707,180.14,360.71" style="stroke:#383838;stroke-width:1.0;"/><!--MD5=[cbc236475951d373a528127abd737685]
link LF to stdout_fe--><path d="M144.1,183.26 C135.1,205.75 121.51,239.74 114.16,258.11 " fill="none" id="LF-to-stdout_fe" style="stroke:#383838;stroke-width:1.0;"/><polygon fill="#383838" points="112.26,262.86,119.3164,255.9893,114.117,258.2176,111.8886,253.0181,112.26,262.86" style="stroke:#383838;stroke-width:1.0;"/><!--MD5=[3fddca152d15dc25d9a0f224c9b5d6ad]
reverse link stdout_fe to NF--><path d="M116.1,286.02 C126.14,304.42 144.6,338.27 156.84,360.71 " fill="none" id="stdout_fe-backto-NF" style="stroke:#383838;stroke-width:1.0;"/><polygon fill="#383838" points="113.51,281.27,114.3215,291.0854,115.9103,285.6562,121.3394,287.2449,113.51,281.27" style="stroke:#383838;stroke-width:1.0;"/><!--MD5=[7c6c881670fb2258fb215ca092ef8d74]
link NF to mrnet--><path d="M202.79,410.28 C234.46,433.98 280.19,468.2 302.6,484.97 " fill="none" id="NF-mrnet" style="stroke:#383838;stroke-width:1.0;"/><polygon fill="#383838" points="306.76,488.09,301.9403,479.501,302.7531,485.0992,297.155,485.912,306.76,488.09" style="stroke:#383838;stroke-width:1.0;"/><polygon fill="#383838" points="198.75,407.26,203.5647,415.8518,202.7551,410.2532,208.3537,409.4436,198.75,407.26" style="stroke:#383838;stroke-width:1.0;"/><!--MD5=[13e401ee5715baff4416f5deee320c76]
link NB to mrnet--><path d="M429.98,410.28 C398.1,433.98 352.05,468.2 329.49,484.97 " fill="none" id="NB-mrnet" style="stroke:#383838;stroke-width:1.0;"/><polygon fill="#383838" points="325.3,488.09,334.9087,485.9284,329.312,485.106,330.1343,479.5093,325.3,488.09" style="stroke:#383838;stroke-width:1.0;"/><polygon fill="#383838" points="434.05,407.26,424.4413,409.4216,430.038,410.244,429.2157,415.8407,434.05,407.26" style="stroke:#383838;stroke-width:1.0;"/><!--MD5=[e1922f98e409b9055a541f8a54cc4e5e]
link launcher_channel to LB--><path d="M777.79,21.37 C749.79,40.76 664.51,99.8 615.22,133.92 " fill="none" id="launcher_channel-to-LB" style="stroke:#383838;stroke-width:1.0;"/><polygon fill="#383838" points="610.86,136.94,620.5339,135.0919,614.9668,134.088,615.9707,128.521,610.86,136.94" style="stroke:#383838;stroke-width:1.0;"/><!--MD5=[7082f3ccdd93c1853e59c0d4112a85ea]
link bela_channel to LB--><path d="M579,23.15 C579,43.71 579,98.39 579,131.77 " fill="none" id="bela_channel-to-LB" style="stroke:#383838;stroke-width:1.0;"/><polygon fill="#383838" points="579,136.94,583,127.94,579,131.94,575,127.94,579,136.94" style="stroke:#383838;stroke-width:1.0;"/><!--MD5=[c1ec1752e4c5d55e505dc3b5a6839409]
link LB to global_services_channel--><path d="M625.47,183.13 C678.74,208.5 762.97,248.6 796.03,264.35 " fill="none" id="LB-to-global_services_channel" style="stroke:#383838;stroke-width:1.0;"/><polygon fill="#383838" points="800.88,266.66,794.4841,259.1705,796.3686,264.5042,791.0349,266.3887,800.88,266.66" style="stroke:#383838;stroke-width:1.0;"/><!--MD5=[83d55f131148e20ef4ac32b09d5d6054]
link posix_message_queue to LB--><path d="M412.83,21.56 C430.27,29.84 458,43 458,43 C458,43 476,51 476,51 C476,51 523.81,101.13 554.28,133.08 " fill="none" id="posix_message_queue-LB" style="stroke:#383838;stroke-width:1.0;"/><polygon fill="#383838" points="557.91,136.88,554.5987,127.6045,554.4614,133.2597,548.8062,133.1223,557.91,136.88" style="stroke:#383838;stroke-width:1.0;"/><polygon fill="#383838" points="408.22,19.38,414.6352,26.853,412.7369,21.5241,418.0658,19.6259,408.22,19.38" style="stroke:#383838;stroke-width:1.0;"/><!--MD5=[a4a88d004997f594f23a8a2f5830a931]
link LB to shepherd_channel--><path d="M663.92,181.48 C764.62,205.77 919,243 919,243 C919,243 968.74,258.65 993.85,266.55 " fill="none" id="LB-to-shepherd_channel" style="stroke:#383838;stroke-width:1.0;"/><polygon fill="#383838" points="998.81,268.11,991.4239,261.595,994.0401,266.6105,989.0247,269.2268,998.81,268.11" style="stroke:#383838;stroke-width:1.0;"/><!--MD5=[74453cd4040c40df38cdfc14e3e07a0b]
@startuml

skinparam componentStyle uml2
skinparam shadowing false
skinparam monochrome true
skinparam linetype polyline

package "Launcher on Multi Node Deployment" {

    frame "Compute Node" {
        [Launcher Backend] as LB 
        [Network Backend] as NB
        [MRNet Server ??] as MS0
        
        interface "stdout/stderr" as stdout_be
        interface "stdin"  as stdin_be

        LB -down-> stdin_be
        NB <-up- stdin_be
        LB -down-> stdout_be
        NB -up-> stdout_be 
    }

    frame "Login Node" {
        [Launcher Frontend] as LF
        [Network Frontend] as NF

        interface "stdout/stderr" as stdout_fe
        interface "stdin"  as stdin_fe

        LF -down-> stdin_fe
        NF <-up- stdin_fe
        LF -down-> stdout_fe
        NF -up-> stdout_fe 
    }
}

    interface "MRNet" as mrnet

    NF <- -> mrnet
    NB <- -> mrnet

interface "POSIX MQ" as posix_message_queue
interface "Launcher Channel" as launcher_channel
interface "Launcher Backend Channel" as bela_channel
interface "Global Services Channel" as global_services_channel
interface "Shepherd Channel" as shepherd_channel 

LB <-u- launcher_channel
LB <-u- bela_channel
LB  -d-> global_services_channel
LB <-u-> posix_message_queue
LB -d-> shepherd_channel


@enduml

PlantUML version 1.2022.1(Tue Feb 01 18:19:58 GMT 2022)
(GPL source distribution)
Java Runtime: OpenJDK Runtime Environment
JVM: OpenJDK 64-Bit Server VM
Default Encoding: UTF-8
Language: en
Country: US
--></g></svg>