<?xml version="1.0" encoding="UTF-8" standalone="no"?><svg xmlns="http://www.w3.org/2000/svg" xmlns:xlink="http://www.w3.org/1999/xlink" contentScriptType="application/ecmascript" contentStyleType="text/css" height="346px" preserveAspectRatio="none" style="width:937px;height:346px;background:#FFFFFF;" version="1.1" viewBox="0 0 937 346" width="937px" zoomAndPan="magnify"><defs/><g><!--MD5=[6a0b13c4d267b77a6a196716354cde65]
cluster Launcher on Single Node Deployment--><polygon fill="#FFFFFF" points="154.5,6,457.5,6,464.5,28.2969,561.5,28.2969,561.5,339,154.5,339,154.5,6" style="stroke:#000000;stroke-width:1.5;"/><line style="stroke:#000000;stroke-width:1.5;" x1="154.5" x2="464.5" y1="28.2969" y2="28.2969"/><text fill="#000000" font-family="sans-serif" font-size="14" font-weight="bold" lengthAdjust="spacing" textLength="297" x="158.5" y="20.9951">Launcher on Single Node Deployment</text><!--MD5=[b77750067e160c5e66c823a87f4eba16]
entity LB--><rect fill="#F8F8F8" height="46.2969" style="stroke:#383838;stroke-width:1.5;" width="169" x="377" y="159"/><rect fill="#F8F8F8" height="10" style="stroke:#383838;stroke-width:1.5;" width="15" x="526" y="164"/><rect fill="#F8F8F8" height="2" style="stroke:#383838;stroke-width:1.5;" width="4" x="524" y="166"/><rect fill="#F8F8F8" height="2" style="stroke:#383838;stroke-width:1.5;" width="4" x="524" y="170"/><text fill="#000000" font-family="sans-serif" font-size="14" lengthAdjust="spacing" textLength="129" x="392" y="191.9951">Launcher Backend</text><!--MD5=[82af1dee43a4b33a77487333ec09e8d2]
entity LF--><rect fill="#F8F8F8" height="46.2969" style="stroke:#383838;stroke-width:1.5;" width="171" x="171" y="159"/><rect fill="#F8F8F8" height="10" style="stroke:#383838;stroke-width:1.5;" width="15" x="322" y="164"/><rect fill="#F8F8F8" height="2" style="stroke:#383838;stroke-width:1.5;" width="4" x="320" y="166"/><rect fill="#F8F8F8" height="2" style="stroke:#383838;stroke-width:1.5;" width="4" x="320" y="170"/><text fill="#000000" font-family="sans-serif" font-size="14" lengthAdjust="spacing" textLength="131" x="186" y="191.9951">Launcher Frontend</text><!--MD5=[1497b0990dffa0bafef9a9c2e0a36e1d]
entity stdout--><ellipse cx="358.5" cy="70" fill="#F8F8F8" rx="8" ry="8" style="stroke:#383838;stroke-width:1.5;"/><text fill="#000000" font-family="sans-serif" font-size="14" lengthAdjust="spacing" textLength="91" x="313" y="99.9951">stdout/stderr</text><!--MD5=[993b0c928ba6ce262101733a1e32fb44]
entity stdin--><ellipse cx="358.5" cy="294" fill="#F8F8F8" rx="8" ry="8" style="stroke:#383838;stroke-width:1.5;"/><text fill="#000000" font-family="sans-serif" font-size="14" lengthAdjust="spacing" textLength="34" x="341.5" y="323.9951">stdin</text><!--MD5=[b68f029506d007bb301cc433903a77f0]
entity posix_message_queue--><ellipse cx="590.5" cy="182" fill="#F8F8F8" rx="8" ry="8" style="stroke:#383838;stroke-width:1.5;"/><text fill="#000000" font-family="sans-serif" font-size="14" lengthAdjust="spacing" textLength="68" x="556.5" y="211.9951">POSIX MQ</text><!--MD5=[aaf6bddd66720d81cbca8f1ba079750e]
entity launcher_channel--><ellipse cx="68.5" cy="70" fill="#F8F8F8" rx="8" ry="8" style="stroke:#383838;stroke-width:1.5;"/><text fill="#000000" font-family="sans-serif" font-size="14" lengthAdjust="spacing" textLength="125" x="6" y="99.9951">Launcher Channel</text><!--MD5=[39131fe14e121981146d00e93bb32071]
entity bela_channel--><ellipse cx="680.5" cy="70" fill="#F8F8F8" rx="8" ry="8" style="stroke:#383838;stroke-width:1.5;"/><text fill="#000000" font-family="sans-serif" font-size="14" lengthAdjust="spacing" textLength="190" x="585.5" y="99.9951">Launcher Backend Channel</text><!--MD5=[4245db78645dbc3abffb0dcaace90459]
entity shepherd_channel--><ellipse cx="649.5" cy="294" fill="#F8F8F8" rx="8" ry="8" style="stroke:#383838;stroke-width:1.5;"/><text fill="#000000" font-family="sans-serif" font-size="14" lengthAdjust="spacing" textLength="129" x="585" y="323.9951">Shepherd Channel</text><!--MD5=[f4c2c6b1ce83135da143416fcde9e7c2]
entity global_services_channel--><ellipse cx="847.5" cy="294" fill="#F8F8F8" rx="8" ry="8" style="stroke:#383838;stroke-width:1.5;"/><text fill="#000000" font-family="sans-serif" font-size="14" lengthAdjust="spacing" textLength="166" x="764.5" y="323.9951">Global Services Channel</text><!--MD5=[dc97f68430b08699f8b085c9a4592a4e]
link LF to stdin--><path d="M277.14,205.26 C298.36,228.14 330.59,262.9 347.41,281.04 " fill="none" id="LF-to-stdin" style="stroke:#383838;stroke-width:1.0;"/><polygon fill="#383838" points="350.95,284.86,347.7696,275.5388,347.5527,281.1915,341.9,280.9745,350.95,284.86" style="stroke:#383838;stroke-width:1.0;"/><!--MD5=[86c0b1d9f1a47975b50331fd87981143]
link stdout to LF--><path d="M350.83,79.27 C336.14,95.11 303.48,130.34 280.73,154.87 " fill="none" id="stdout-to-LF" style="stroke:#383838;stroke-width:1.0;"/><polygon fill="#383838" points="277.17,158.71,286.22,154.8245,280.5673,155.0415,280.3504,149.3888,277.17,158.71" style="stroke:#383838;stroke-width:1.0;"/><!--MD5=[fe8aa4b73041634bd799805efd3abd56]
reverse link LB to stdin--><path d="M437.05,209.11 C414.02,233.71 380.91,269.07 366.13,284.86 " fill="none" id="LB-backto-stdin" style="stroke:#383838;stroke-width:1.0;"/><polygon fill="#383838" points="440.66,205.26,431.5864,209.0901,437.2403,208.9077,437.4227,214.5616,440.66,205.26" style="stroke:#383838;stroke-width:1.0;"/><!--MD5=[367ab2d8eefa49d9bae1d133cc16ca24]
reverse link stdout to LB--><path d="M369.83,83.09 C386.84,101.26 419.26,135.89 440.63,158.71 " fill="none" id="stdout-backto-LB" style="stroke:#383838;stroke-width:1.0;"/><polygon fill="#383838" points="366.24,79.27,369.4579,88.5783,369.6521,82.9248,375.3056,83.119,366.24,79.27" style="stroke:#383838;stroke-width:1.0;"/><!--MD5=[418b67067dd27db168557af0d6d17fe6]
link LB to posix_message_queue--><path d="M551.35,182 C557.5,182 567.84,182 576.36,182 " fill="none" id="LB-posix_message_queue" style="stroke:#383838;stroke-width:1.0;"/><polygon fill="#383838" points="581.38,182,572.38,178,576.38,182,572.38,186,581.38,182" style="stroke:#383838;stroke-width:1.0;"/><polygon fill="#383838" points="546.07,182,555.07,186,551.07,182,555.07,178,546.07,182" style="stroke:#383838;stroke-width:1.0;"/><!--MD5=[a4a88d004997f594f23a8a2f5830a931]
link LB to shepherd_channel--><path d="M499.54,205.26 C541.74,229.95 607.58,268.47 635.85,285.01 " fill="none" id="LB-to-shepherd_channel" style="stroke:#383838;stroke-width:1.0;"/><polygon fill="#383838" points="640.37,287.66,634.6279,279.6582,636.0563,285.1318,630.5827,286.5601,640.37,287.66" style="stroke:#383838;stroke-width:1.0;"/><!--MD5=[c1ec1752e4c5d55e505dc3b5a6839409]
link LB to global_services_channel--><path d="M539.15,205.13 C633.69,232.07 786.57,275.64 833.41,288.98 " fill="none" id="LB-to-global_services_channel" style="stroke:#383838;stroke-width:1.0;"/><polygon fill="#383838" points="838.34,290.39,830.7852,284.0714,833.5324,289.0164,828.5874,291.7636,838.34,290.39" style="stroke:#383838;stroke-width:1.0;"/><!--MD5=[7082f3ccdd93c1853e59c0d4112a85ea]
link bela_channel to LB--><path d="M671.37,75.59 C644.34,89.16 563.3,129.87 510.19,156.54 " fill="none" id="bela_channel-to-LB" style="stroke:#383838;stroke-width:1.0;"/><polygon fill="#383838" points="505.46,158.92,515.2981,158.4602,509.9293,156.6782,511.7113,151.3094,505.46,158.92" style="stroke:#383838;stroke-width:1.0;"/><!--MD5=[e1922f98e409b9055a541f8a54cc4e5e]
link launcher_channel to LB--><path d="M77.7,74 C99.89,81.22 154.5,99 154.5,99 C154.5,99 283.25,133.39 373.99,157.63 " fill="none" id="launcher_channel-to-LB" style="stroke:#383838;stroke-width:1.0;"/><polygon fill="#383838" points="378.83,158.92,371.1794,152.7178,374.0019,157.6201,369.0996,160.4427,378.83,158.92" style="stroke:#383838;stroke-width:1.0;"/><!--MD5=[708ceceee80c3464c089d51c50e486d4]
@startuml
skinparam componentStyle uml2
skinparam shadowing false
skinparam monochrome true
skinparam linetype polyline

package "Launcher on Single Node Deployment" {

        [Launcher Backend] as LB 
        [Launcher Frontend] as LF

        interface "stdout/stderr" as stdout
        interface "stdin"  as stdin

        LF -d-> stdin
        LF <-u- stdout
        LB <-d- stdin
        LB -u-> stdout 

}

interface "POSIX MQ" as posix_message_queue
interface "Launcher Channel" as launcher_channel
interface "Launcher Backend Channel" as bela_channel
interface "Shepherd Channel" as shepherd_channel
interface "Global Services Channel" as global_services_channel

LB <-r-> posix_message_queue
LB -d-> shepherd_channel
LB -d-> global_services_channel
LB <-u- bela_channel
LB <-u- launcher_channel

@enduml

PlantUML version 1.2022.1(Tue Feb 01 18:19:58 GMT 2022)
(GPL source distribution)
Java Runtime: OpenJDK Runtime Environment
JVM: OpenJDK 64-Bit Server VM
Default Encoding: UTF-8
Language: en
Country: US
--></g></svg>