<?xml version="1.0" encoding="UTF-8" standalone="no"?><svg xmlns="http://www.w3.org/2000/svg" xmlns:xlink="http://www.w3.org/1999/xlink" contentScriptType="application/ecmascript" contentStyleType="text/css" height="403px" preserveAspectRatio="none" style="width:1047px;height:403px;background:#FFFFFF;" version="1.1" viewBox="0 0 1047 403" width="1047px" zoomAndPan="magnify"><defs/><g><!--MD5=[6de539ac9b9fc292e5a70f8363659edd]
cluster MM--><polygon fill="#FFFFFF" points="16,6,161,6,168,28.2969,1030,28.2969,1030,320,16,320,16,6" style="stroke:#000000;stroke-width:1.5;"/><line style="stroke:#000000;stroke-width:1.5;" x1="16" x2="168" y1="28.2969" y2="28.2969"/><text fill="#000000" font-family="sans-serif" font-size="14" font-weight="bold" lengthAdjust="spacing" textLength="139" x="20" y="20.9951">Managed Memory</text><!--MD5=[94498cd82ebafbb7318ca99ecc26a60c]
cluster PO--><polygon fill="#FFFFFF" points="588,57,628,57,635,79.2969,998,79.2969,998,288,588,288,588,57" style="stroke:#000000;stroke-width:1.5;"/><line style="stroke:#000000;stroke-width:1.5;" x1="588" x2="635" y1="79.2969" y2="79.2969"/><text fill="#000000" font-family="sans-serif" font-size="14" font-weight="bold" lengthAdjust="spacing" textLength="34" x="592" y="71.9951">Pool</text><!--MD5=[b9d6b2071fa9c2331781d48a42a0c12c]
entity AL--><rect fill="#F8F8F8" height="46.2969" style="stroke:#383838;stroke-width:1.5;" width="114" x="433" y="100"/><rect fill="#F8F8F8" height="10" style="stroke:#383838;stroke-width:1.5;" width="15" x="527" y="105"/><rect fill="#F8F8F8" height="2" style="stroke:#383838;stroke-width:1.5;" width="4" x="525" y="107"/><rect fill="#F8F8F8" height="2" style="stroke:#383838;stroke-width:1.5;" width="4" x="525" y="111"/><text fill="#000000" font-family="sans-serif" font-size="14" lengthAdjust="spacing" textLength="74" x="448" y="132.9951">Allocations</text><!--MD5=[8f72525643806bf5375f1d7c19c80018]
entity RH--><rect fill="#F8F8F8" height="46.2969" style="stroke:#383838;stroke-width:1.5;" width="156" x="234" y="100"/><rect fill="#F8F8F8" height="10" style="stroke:#383838;stroke-width:1.5;" width="15" x="370" y="105"/><rect fill="#F8F8F8" height="2" style="stroke:#383838;stroke-width:1.5;" width="4" x="368" y="107"/><rect fill="#F8F8F8" height="2" style="stroke:#383838;stroke-width:1.5;" width="4" x="368" y="111"/><text fill="#000000" font-family="sans-serif" font-size="14" lengthAdjust="spacing" textLength="116" x="249" y="132.9951">Request Handler</text><!--MD5=[50e3dbfbb7f02bf795cf6b5e8d16d54f]
entity pool_api--><ellipse cx="499" cy="235" fill="#F8F8F8" rx="8" ry="8" style="stroke:#383838;stroke-width:1.5;"/><text fill="#000000" font-family="sans-serif" font-size="14" lengthAdjust="spacing" textLength="114" x="442" y="264.9951">Memory Pool API</text><!--MD5=[3a51c2e8bc8290067a094bddee09d294]
entity alloc_api--><ellipse cx="312" cy="235" fill="#F8F8F8" rx="8" ry="8" style="stroke:#383838;stroke-width:1.5;"/><text fill="#000000" font-family="sans-serif" font-size="14" lengthAdjust="spacing" textLength="158" x="233" y="264.9951">Memory Allocations API</text><!--MD5=[533675033a13155ca4fc644c48ba7682]
entity req_api--><ellipse cx="111" cy="235" fill="#F8F8F8" rx="8" ry="8" style="stroke:#383838;stroke-width:1.5;"/><text fill="#000000" font-family="sans-serif" font-size="14" lengthAdjust="spacing" textLength="143" x="39.5" y="264.9951">Memory Request API</text><!--MD5=[ff4f11dbd5c98b32defb2585ce777826]
entity HM--><rect fill="#F8F8F8" height="46.2969" style="stroke:#383838;stroke-width:1.5;" width="140" x="800" y="100"/><rect fill="#F8F8F8" height="10" style="stroke:#383838;stroke-width:1.5;" width="15" x="920" y="105"/><rect fill="#F8F8F8" height="2" style="stroke:#383838;stroke-width:1.5;" width="4" x="918" y="107"/><rect fill="#F8F8F8" height="2" style="stroke:#383838;stroke-width:1.5;" width="4" x="918" y="111"/><text fill="#000000" font-family="sans-serif" font-size="14" lengthAdjust="spacing" textLength="100" x="815" y="132.9951">Heap Manager</text><!--MD5=[f18bf7119e3541781fa875facf47cd2d]
entity BS--><rect fill="#F8F8F8" height="46.2969" style="stroke:#383838;stroke-width:1.5;" width="99" x="727.5" y="212"/><rect fill="#F8F8F8" height="10" style="stroke:#383838;stroke-width:1.5;" width="15" x="806.5" y="217"/><rect fill="#F8F8F8" height="2" style="stroke:#383838;stroke-width:1.5;" width="4" x="804.5" y="219"/><rect fill="#F8F8F8" height="2" style="stroke:#383838;stroke-width:1.5;" width="4" x="804.5" y="223"/><text fill="#000000" font-family="sans-serif" font-size="14" lengthAdjust="spacing" textLength="59" x="742.5" y="244.9951">Bitsetter</text><!--MD5=[1730225aef07b03d0f5eccd0ae1124d3]
entity HD--><rect fill="#F8F8F8" height="46.2969" style="stroke:#383838;stroke-width:1.5;" width="112" x="862" y="212"/><rect fill="#F8F8F8" height="10" style="stroke:#383838;stroke-width:1.5;" width="15" x="954" y="217"/><rect fill="#F8F8F8" height="2" style="stroke:#383838;stroke-width:1.5;" width="4" x="952" y="219"/><rect fill="#F8F8F8" height="2" style="stroke:#383838;stroke-width:1.5;" width="4" x="952" y="223"/><text fill="#000000" font-family="sans-serif" font-size="14" lengthAdjust="spacing" textLength="72" x="877" y="244.9951">Hex Dump</text><!--MD5=[c2cd8b9456a4f97c1027519db1b662ad]
entity LCK--><rect fill="#F8F8F8" height="46.2969" style="stroke:#383838;stroke-width:1.5;" width="133" x="631.5" y="100"/><rect fill="#F8F8F8" height="10" style="stroke:#383838;stroke-width:1.5;" width="15" x="744.5" y="105"/><rect fill="#F8F8F8" height="2" style="stroke:#383838;stroke-width:1.5;" width="4" x="742.5" y="107"/><rect fill="#F8F8F8" height="2" style="stroke:#383838;stroke-width:1.5;" width="4" x="742.5" y="111"/><text fill="#000000" font-family="sans-serif" font-size="14" lengthAdjust="spacing" textLength="93" x="646.5" y="132.9951">Scalable Lock</text><!--MD5=[605a501582a5a1c5db12f1e6a61ccff3]
entity lock_api--><ellipse cx="656" cy="235" fill="#F8F8F8" rx="8" ry="8" style="stroke:#383838;stroke-width:1.5;"/><text fill="#000000" font-family="sans-serif" font-size="14" lengthAdjust="spacing" textLength="57" x="627.5" y="264.9951">Lock API</text><!--MD5=[6b28a32ec303a3630eb59aa64f874099]
entity managed_memory_api--><ellipse cx="312" cy="365" fill="#F8F8F8" rx="8" ry="8" style="stroke:#383838;stroke-width:1.5;"/><text fill="#000000" font-family="sans-serif" font-size="14" lengthAdjust="spacing" textLength="148" x="238" y="394.9951">Managed Memory API</text><!--MD5=[2e3febad305daf1ceb50efeac2ee777a]
link HM to BS--><path d="M851.18,146.26 C836.18,164 815.14,188.89 799.29,207.63 " fill="none" id="HM-to-BS" style="stroke:#383838;stroke-width:1.0;"/><polygon fill="#383838" points="795.79,211.77,804.6498,207.4684,799.0133,207.9477,798.5341,202.3111,795.79,211.77" style="stroke:#383838;stroke-width:1.0;"/><!--MD5=[cba982c7d3dcdcb559cdd2d1d0c71d8f]
link HM to HD--><path d="M879.71,146.26 C887.39,163.85 898.13,188.47 906.29,207.16 " fill="none" id="HM-to-HD" style="stroke:#383838;stroke-width:1.0;"/><polygon fill="#383838" points="908.3,211.77,908.3685,201.9214,906.3012,207.1869,901.0356,205.1195,908.3,211.77" style="stroke:#383838;stroke-width:1.0;"/><!--MD5=[979e2ab6267168c9ab2213909f3ee26d]
link HM to lock_api--><path d="M826.7,146.19 C779.32,170.48 710,206 710,206 C710,206 686.08,218.4 670.08,226.7 " fill="none" id="HM-to-lock_api" style="stroke:#383838;stroke-width:1.0;"/><polygon fill="#383838" points="665.41,229.12,675.2407,228.5217,669.8473,226.8155,671.5535,221.4221,665.41,229.12" style="stroke:#383838;stroke-width:1.0;"/><!--MD5=[f834869f16853f8b7cce127ee8c59443]
reverse link LCK to lock_api--><path d="M687.68,151.03 C678.31,175.58 665.06,210.27 659.11,225.86 " fill="none" id="LCK-backto-lock_api" style="stroke:#383838;stroke-width:1.0;"/><polygon fill="#383838" points="689.5,146.26,682.5501,153.2385,687.7147,150.9304,690.0227,156.095,689.5,146.26" style="stroke:#383838;stroke-width:1.0;"/><!--MD5=[19f18bd0b430887959cf9fc1a38a6952]
reverse link AL to alloc_api--><path d="M449.48,149.04 C407.51,174.98 344.84,213.71 321.34,228.23 " fill="none" id="AL-backto-alloc_api" style="stroke:#383838;stroke-width:1.0;"/><polygon fill="#383838" points="453.98,146.26,444.2207,147.5848,449.7256,148.8869,448.4236,154.3918,453.98,146.26" style="stroke:#383838;stroke-width:1.0;"/><!--MD5=[dda0f5ff82c860c760fccd2133ffbbe0]
reverse link PO to pool_api--><path d="M587.8842,149.8946 C587.3608,150.3898 586.7926,150.9274 586.1828,151.5045 C584.9632,152.6586 583.5768,153.9704 582.048,155.417 C575.9328,161.2034 567.5394,169.1456 558.4263,177.7688 C540.2,195.015 519.095,214.985 507.58,225.88 " fill="none" id="PO-backto-pool_api" style="stroke:#383838;stroke-width:1.0;"/><polygon fill="#383838" points="587.8842,149.8946,578.5977,153.1749,584.2524,153.3311,584.0962,158.9858,587.8842,149.8946" style="stroke:#383838;stroke-width:1.0;"/><!--MD5=[da516009b49ecdeeec7bf91eae49f828]
link AL to pool_api--><path d="M491.82,146.26 C493.65,168.56 496.39,202.16 497.91,220.64 " fill="none" id="AL-to-pool_api" style="stroke:#383838;stroke-width:1.0;"/><polygon fill="#383838" points="498.33,225.86,501.5974,216.5689,497.9301,220.876,493.6231,217.2087,498.33,225.86" style="stroke:#383838;stroke-width:1.0;"/><!--MD5=[4b984a63c425b00a29e0bc8df03f4fe1]
reverse link RH to req_api--><path d="M266.73,148.78 C218.38,175.23 145.31,215.22 120,229.07 " fill="none" id="RH-backto-req_api" style="stroke:#383838;stroke-width:1.0;"/><polygon fill="#383838" points="271.32,146.26,261.5046,147.0715,266.9338,148.6603,265.3451,154.0894,271.32,146.26" style="stroke:#383838;stroke-width:1.0;"/><!--MD5=[dc271c58aead1e743835aa00e3a3195f]
link RH to pool_api--><path d="M349.84,146.26 C391.81,170.95 457.3,209.47 485.42,226.01 " fill="none" id="RH-to-pool_api" style="stroke:#383838;stroke-width:1.0;"/><polygon fill="#383838" points="489.92,228.66,484.1976,220.6441,485.6125,226.1212,480.1355,227.5361,489.92,228.66" style="stroke:#383838;stroke-width:1.0;"/><!--MD5=[7dfdfb70efb26dc56d9a724b73786cf4]
link RH to alloc_api--><path d="M312,146.26 C312,168.56 312,202.16 312,220.64 " fill="none" id="RH-to-alloc_api" style="stroke:#383838;stroke-width:1.0;"/><polygon fill="#383838" points="312,225.86,316,216.86,312,220.86,308,216.86,312,225.86" style="stroke:#383838;stroke-width:1.0;"/><!--MD5=[34dfa254b17d0d247a581bd5c1853e41]
reverse link alloc_api to managed_memory_api--><path d="M312,249.13 C312,275.57 312,334.54 312,356 " fill="none" id="alloc_api-backto-managed_memory_api" style="stroke:#383838;stroke-width:1.0;"/><polygon fill="#383838" points="312,244.01,308,253.01,312,249.01,316,253.01,312,244.01" style="stroke:#383838;stroke-width:1.0;"/><!--MD5=[cc9af970f2ab83090b7e69f43c2d86d0]
reverse link pool_api to managed_memory_api--><path d="M488.13,248.19 C465.84,273.2 417,328 417,328 C417,328 347.02,351.99 321.32,360.81 " fill="none" id="pool_api-backto-managed_memory_api" style="stroke:#383838;stroke-width:1.0;"/><polygon fill="#383838" points="491.72,244.16,482.7424,248.2101,488.3902,247.8899,488.7103,253.5377,491.72,244.16" style="stroke:#383838;stroke-width:1.0;"/><!--MD5=[cbd675ae5fed62f6d95bb681a3605720]
reverse link req_api to managed_memory_api--><path d="M123.53,247.88 C149.75,272.75 208,328 208,328 C208,328 277.32,351.99 302.77,360.81 " fill="none" id="req_api-backto-managed_memory_api" style="stroke:#383838;stroke-width:1.0;"/><polygon fill="#383838" points="119.61,244.16,123.3677,253.2638,123.2303,247.6086,128.8855,247.4713,119.61,244.16" style="stroke:#383838;stroke-width:1.0;"/><!--MD5=[b67d31832681e678a3bc6c4df170dfa6]
@startuml

' title "Dragon Distributed Services"

skinparam componentStyle uml2
skinparam shadowing false
skinparam monochrome true

' skinparam linetype ortho
skinparam linetype polyline
' skinparam nodesep 10
' skinparam ranksep 20


package "Managed Memory" as MM {

    package "Pool" as PO {

        [Heap Manager] as HM
        [Bitsetter] as BS
        [Hex Dump] as HD
        [Scalable Lock] as LCK

        interface "Lock API" as lock_api

        HM - -> BS
        HM - -> HD
        HM - -> lock_api
        LCK <- - lock_api

    }
    [Allocations] as AL
    [Request Handler] as RH

    interface "Memory Pool API" as pool_api
    interface "Memory Allocations API" as alloc_api
    interface "Memory Request API" as req_api 

    AL <- - alloc_api
    PO <- - pool_api
    AL - -> pool_api
    RH <- - req_api
    RH - -> pool_api
    RH - -> alloc_api
}

interface "Managed Memory API" as managed_memory_api

alloc_api <- - managed_memory_api
pool_api <- - managed_memory_api
req_api <- - managed_memory_api

@enduml

@startuml


skinparam componentStyle uml2
skinparam shadowing false
skinparam monochrome true

skinparam linetype polyline


package "Managed Memory" as MM {

    package "Pool" as PO {

        [Heap Manager] as HM
        [Bitsetter] as BS
        [Hex Dump] as HD
        [Scalable Lock] as LCK

        interface "Lock API" as lock_api

        HM - -> BS
        HM - -> HD
        HM - -> lock_api
        LCK <- - lock_api

    }
    [Allocations] as AL
    [Request Handler] as RH

    interface "Memory Pool API" as pool_api
    interface "Memory Allocations API" as alloc_api
    interface "Memory Request API" as req_api 

    AL <- - alloc_api
    PO <- - pool_api
    AL - -> pool_api
    RH <- - req_api
    RH - -> pool_api
    RH - -> alloc_api
}

interface "Managed Memory API" as managed_memory_api

alloc_api <- - managed_memory_api
pool_api <- - managed_memory_api
req_api <- - managed_memory_api

@enduml

PlantUML version 1.2022.1(Tue Feb 01 18:19:58 GMT 2022)
(GPL source distribution)
Java Runtime: OpenJDK Runtime Environment
JVM: OpenJDK 64-Bit Server VM
Default Encoding: UTF-8
Language: en
Country: US
--></g></svg>