<?xml version="1.0" encoding="UTF-8" standalone="no"?><svg xmlns="http://www.w3.org/2000/svg" xmlns:xlink="http://www.w3.org/1999/xlink" contentScriptType="application/ecmascript" contentStyleType="text/css" height="1123px" preserveAspectRatio="none" style="width:1656px;height:1123px;background:#FFFFFF;" version="1.1" viewBox="0 0 1656 1123" width="1656px" zoomAndPan="magnify"><defs/><g><!--MD5=[5c7b017d2529d9e016e32247430fa918]
cluster mpbridge--><rect fill="#FFFFFF" height="356" style="stroke:#000000;stroke-width:1.5;" width="1559" x="91" y="336"/><rect fill="#FFFFFF" height="10" style="stroke:#000000;stroke-width:1.5;" width="15" x="1630" y="341"/><rect fill="#FFFFFF" height="2" style="stroke:#000000;stroke-width:1.5;" width="4" x="1628" y="343"/><rect fill="#FFFFFF" height="2" style="stroke:#000000;stroke-width:1.5;" width="4" x="1628" y="347"/><text fill="#000000" font-family="sans-serif" font-size="14" font-weight="bold" lengthAdjust="spacing" textLength="208" x="766.5" y="361.9951">dragon.mpbridge (Python)</text><!--MD5=[0f5ecd50376a794f95ed415707394ddf]
cluster DN--><rect fill="#FFFFFF" height="274" style="stroke:#000000;stroke-width:1.5;" width="1555" x="7" y="843"/><rect fill="#FFFFFF" height="10" style="stroke:#000000;stroke-width:1.5;" width="15" x="1542" y="848"/><rect fill="#FFFFFF" height="2" style="stroke:#000000;stroke-width:1.5;" width="4" x="1540" y="850"/><rect fill="#FFFFFF" height="2" style="stroke:#000000;stroke-width:1.5;" width="4" x="1540" y="854"/><text fill="#000000" font-family="sans-serif" font-size="14" font-weight="bold" lengthAdjust="spacing" textLength="181" x="694" y="868.9951">dragon.native (Python)</text><text fill="#000000" font-family="sans-serif" font-size="14" lengthAdjust="spacing" textLength="79" x="767.5" y="314.6982">Context API</text><rect fill="#383838" height="12" style="stroke:#F8F8F8;stroke-width:1.5;" width="12" x="801" y="330"/><text fill="#000000" font-family="sans-serif" font-size="14" lengthAdjust="spacing" textLength="77" x="986.5" y="314.6982">CTypes API</text><rect fill="#383838" height="12" style="stroke:#F8F8F8;stroke-width:1.5;" width="12" x="1019" y="330"/><text fill="#000000" font-family="sans-serif" font-size="14" lengthAdjust="spacing" textLength="133" x="1237.5" y="314.6982">Shared Memory API</text><rect fill="#383838" height="12" style="stroke:#F8F8F8;stroke-width:1.5;" width="12" x="1262" y="330"/><!--MD5=[5b83e40b5c67491cbafc419e94657df7]
entity ctx--><rect fill="#F8F8F8" height="46.2969" style="stroke:#383838;stroke-width:1.5;" width="145" x="725.5" y="438.5"/><rect fill="#F8F8F8" height="10" style="stroke:#383838;stroke-width:1.5;" width="15" x="850.5" y="443.5"/><rect fill="#F8F8F8" height="2" style="stroke:#383838;stroke-width:1.5;" width="4" x="848.5" y="445.5"/><rect fill="#F8F8F8" height="2" style="stroke:#383838;stroke-width:1.5;" width="4" x="848.5" y="449.5"/><text fill="#000000" font-family="sans-serif" font-size="14" lengthAdjust="spacing" textLength="105" x="740.5" y="471.4951">DragonContext</text><!--MD5=[0a294be8acdeebafeef25d6b80c1d693]
entity AV--><rect fill="#F8F8F8" height="78.8906" style="stroke:#383838;stroke-width:1.5;" width="230" x="906" y="422"/><rect fill="#F8F8F8" height="10" style="stroke:#383838;stroke-width:1.5;" width="15" x="1116" y="427"/><rect fill="#F8F8F8" height="2" style="stroke:#383838;stroke-width:1.5;" width="4" x="1114" y="429"/><rect fill="#F8F8F8" height="2" style="stroke:#383838;stroke-width:1.5;" width="4" x="1114" y="433"/><text fill="#000000" font-family="sans-serif" font-size="14" lengthAdjust="spacing" textLength="186" x="921" y="454.9951">DragonValue, DragonArray,</text><text fill="#000000" font-family="sans-serif" font-size="14" lengthAdjust="spacing" textLength="122" x="921" y="471.292">DragonRawValue,</text><text fill="#000000" font-family="sans-serif" font-size="14" lengthAdjust="spacing" textLength="114" x="921" y="487.5889">DragonRawArray</text><!--MD5=[f7528f5573a3f4ac42cb41f5fc09b867]
entity SML--><rect fill="#F8F8F8" height="62.5938" style="stroke:#383838;stroke-width:1.5;" width="203" x="1171.5" y="430"/><rect fill="#F8F8F8" height="10" style="stroke:#383838;stroke-width:1.5;" width="15" x="1354.5" y="435"/><rect fill="#F8F8F8" height="2" style="stroke:#383838;stroke-width:1.5;" width="4" x="1352.5" y="437"/><rect fill="#F8F8F8" height="2" style="stroke:#383838;stroke-width:1.5;" width="4" x="1352.5" y="441"/><text fill="#000000" font-family="sans-serif" font-size="14" lengthAdjust="spacing" textLength="159" x="1186.5" y="462.9951">DragonSharedMemory,</text><text fill="#000000" font-family="sans-serif" font-size="14" lengthAdjust="spacing" textLength="143" x="1186.5" y="479.292">DragonShareableList</text><!--MD5=[7de2e0b556d47977e2a23bbc47cfb44e]
entity PROC--><rect fill="#F8F8F8" height="46.2969" style="stroke:#383838;stroke-width:1.5;" width="149" x="1485.5" y="605.5"/><rect fill="#F8F8F8" height="10" style="stroke:#383838;stroke-width:1.5;" width="15" x="1614.5" y="610.5"/><rect fill="#F8F8F8" height="2" style="stroke:#383838;stroke-width:1.5;" width="4" x="1612.5" y="612.5"/><rect fill="#F8F8F8" height="2" style="stroke:#383838;stroke-width:1.5;" width="4" x="1612.5" y="616.5"/><text fill="#000000" font-family="sans-serif" font-size="14" lengthAdjust="spacing" textLength="109" x="1500.5" y="638.4951">Process, Popen</text><!--MD5=[1200cabd2a84086424de0b397dfd2f71]
entity L--><rect fill="#F8F8F8" height="95.1875" style="stroke:#383838;stroke-width:1.5;" width="283" x="107.5" y="581"/><rect fill="#F8F8F8" height="10" style="stroke:#383838;stroke-width:1.5;" width="15" x="370.5" y="586"/><rect fill="#F8F8F8" height="2" style="stroke:#383838;stroke-width:1.5;" width="4" x="368.5" y="588"/><rect fill="#F8F8F8" height="2" style="stroke:#383838;stroke-width:1.5;" width="4" x="368.5" y="592"/><text fill="#000000" font-family="sans-serif" font-size="14" lengthAdjust="spacing" textLength="188" x="122.5" y="613.9951">DragonLock, DragonRLock,</text><text fill="#000000" font-family="sans-serif" font-size="14" lengthAdjust="spacing" textLength="219" x="122.5" y="630.292">DragonCondition, DragonEvent,</text><text fill="#000000" font-family="sans-serif" font-size="14" lengthAdjust="spacing" textLength="239" x="122.5" y="646.5889">DragonSemaphore, DragonBarrier,</text><text fill="#000000" font-family="sans-serif" font-size="14" lengthAdjust="spacing" textLength="195" x="122.5" y="662.8857">DragonBoundedSemaphore</text><!--MD5=[3b1263cbcc5d46352b91c3547069948a]
entity PLC--><rect fill="#F8F8F8" height="62.5938" style="stroke:#383838;stroke-width:1.5;" width="244" x="426" y="597"/><rect fill="#F8F8F8" height="10" style="stroke:#383838;stroke-width:1.5;" width="15" x="650" y="602"/><rect fill="#F8F8F8" height="2" style="stroke:#383838;stroke-width:1.5;" width="4" x="648" y="604"/><rect fill="#F8F8F8" height="2" style="stroke:#383838;stroke-width:1.5;" width="4" x="648" y="608"/><text fill="#000000" font-family="sans-serif" font-size="14" lengthAdjust="spacing" textLength="85" x="441" y="629.9951">DragonPipe,</text><text fill="#000000" font-family="sans-serif" font-size="14" lengthAdjust="spacing" textLength="204" x="441" y="646.292">DragonListener, DragonClient</text><!--MD5=[653366b36524237ef48087d092b9cb5d]
entity Q--><rect fill="#F8F8F8" height="78.8906" style="stroke:#383838;stroke-width:1.5;" width="199" x="705.5" y="589"/><rect fill="#F8F8F8" height="10" style="stroke:#383838;stroke-width:1.5;" width="15" x="884.5" y="594"/><rect fill="#F8F8F8" height="2" style="stroke:#383838;stroke-width:1.5;" width="4" x="882.5" y="596"/><rect fill="#F8F8F8" height="2" style="stroke:#383838;stroke-width:1.5;" width="4" x="882.5" y="600"/><text fill="#000000" font-family="sans-serif" font-size="14" lengthAdjust="spacing" textLength="102" x="720.5" y="621.9951">DragonQueue,</text><text fill="#000000" font-family="sans-serif" font-size="14" lengthAdjust="spacing" textLength="155" x="720.5" y="638.292">DragonJoinableQueue,</text><text fill="#000000" font-family="sans-serif" font-size="14" lengthAdjust="spacing" textLength="144" x="720.5" y="654.5889">DragonSimpleQueue</text><!--MD5=[e0cb520ced2cc7a6edf9f808b6397dc6]
entity FUNC--><rect fill="#F8F8F8" height="62.5938" style="stroke:#383838;stroke-width:1.5;" width="134" x="940" y="597"/><rect fill="#F8F8F8" height="10" style="stroke:#383838;stroke-width:1.5;" width="15" x="1054" y="602"/><rect fill="#F8F8F8" height="2" style="stroke:#383838;stroke-width:1.5;" width="4" x="1052" y="604"/><rect fill="#F8F8F8" height="2" style="stroke:#383838;stroke-width:1.5;" width="4" x="1052" y="608"/><text fill="#000000" font-family="sans-serif" font-size="14" lengthAdjust="spacing" textLength="94" x="955" y="629.9951">log_to_stderr,</text><text fill="#000000" font-family="sans-serif" font-size="14" lengthAdjust="spacing" textLength="74" x="955" y="646.292">get_logger</text><!--MD5=[314cc96ff71eed8d4368d2aaf76c7ae0]
entity PO--><rect fill="#F8F8F8" height="46.2969" style="stroke:#383838;stroke-width:1.5;" width="121" x="1109.5" y="605.5"/><rect fill="#F8F8F8" height="10" style="stroke:#383838;stroke-width:1.5;" width="15" x="1210.5" y="610.5"/><rect fill="#F8F8F8" height="2" style="stroke:#383838;stroke-width:1.5;" width="4" x="1208.5" y="612.5"/><rect fill="#F8F8F8" height="2" style="stroke:#383838;stroke-width:1.5;" width="4" x="1208.5" y="616.5"/><text fill="#000000" font-family="sans-serif" font-size="14" lengthAdjust="spacing" textLength="81" x="1124.5" y="638.4951">DragonPool</text><!--MD5=[feb24ab1ac7d313d5e87bfa18397eed0]
entity MAN--><rect fill="#F8F8F8" height="46.2969" style="stroke:#383838;stroke-width:1.5;" width="184" x="1266" y="605.5"/><rect fill="#F8F8F8" height="10" style="stroke:#383838;stroke-width:1.5;" width="15" x="1430" y="610.5"/><rect fill="#F8F8F8" height="2" style="stroke:#383838;stroke-width:1.5;" width="4" x="1428" y="612.5"/><rect fill="#F8F8F8" height="2" style="stroke:#383838;stroke-width:1.5;" width="4" x="1428" y="616.5"/><text fill="#000000" font-family="sans-serif" font-size="14" lengthAdjust="spacing" textLength="144" x="1281" y="638.4951">DragonSyncManager</text><text fill="#000000" font-family="sans-serif" font-size="14" lengthAdjust="spacing" textLength="105" x="172.5" y="821.6982">Semaphore API</text><rect fill="#383838" height="12" style="stroke:#F8F8F8;stroke-width:1.5;" width="12" x="219" y="837"/><text fill="#000000" font-family="sans-serif" font-size="14" lengthAdjust="spacing" textLength="57" x="314.5" y="821.6982">Lock API</text><rect fill="#383838" height="12" style="stroke:#F8F8F8;stroke-width:1.5;" width="12" x="337" y="837"/><text fill="#000000" font-family="sans-serif" font-size="14" lengthAdjust="spacing" textLength="70" x="426" y="821.6982">Barrier API</text><rect fill="#383838" height="12" style="stroke:#F8F8F8;stroke-width:1.5;" width="12" x="455" y="837"/><text fill="#000000" font-family="sans-serif" font-size="14" lengthAdjust="spacing" textLength="64" x="75" y="821.6982">Event API</text><rect fill="#383838" height="12" style="stroke:#F8F8F8;stroke-width:1.5;" width="12" x="101" y="837"/><text fill="#000000" font-family="sans-serif" font-size="14" lengthAdjust="spacing" textLength="55" x="551.5" y="821.6982">Pipe API</text><rect fill="#383838" height="12" style="stroke:#F8F8F8;stroke-width:1.5;" width="12" x="573" y="837"/><text fill="#000000" font-family="sans-serif" font-size="14" lengthAdjust="spacing" textLength="88" x="679" y="821.6982">KeyValue API</text><rect fill="#383838" height="12" style="stroke:#F8F8F8;stroke-width:1.5;" width="12" x="717" y="837"/><text fill="#000000" font-family="sans-serif" font-size="14" lengthAdjust="spacing" textLength="72" x="822" y="821.6982">Queue API</text><rect fill="#383838" height="12" style="stroke:#F8F8F8;stroke-width:1.5;" width="12" x="852" y="837"/><text fill="#000000" font-family="sans-serif" font-size="14" lengthAdjust="spacing" textLength="80" x="961" y="821.6982">Logging API</text><rect fill="#383838" height="12" style="stroke:#F8F8F8;stroke-width:1.5;" width="12" x="995" y="837"/><text fill="#000000" font-family="sans-serif" font-size="14" lengthAdjust="spacing" textLength="83" x="1217.5" y="821.6982">Machine API</text><rect fill="#383838" height="12" style="stroke:#F8F8F8;stroke-width:1.5;" width="12" x="1253" y="837"/><text fill="#000000" font-family="sans-serif" font-size="14" lengthAdjust="spacing" textLength="81" x="1366.5" y="821.6982">Process API</text><rect fill="#383838" height="12" style="stroke:#F8F8F8;stroke-width:1.5;" width="12" x="1401" y="837"/><!--MD5=[1da9137b344491fbb4ea25294ccd0225]
entity DPROC--><rect fill="#F8F8F8" height="46.2969" style="stroke:#383838;stroke-width:1.5;" width="96" x="1450" y="929"/><rect fill="#F8F8F8" height="10" style="stroke:#383838;stroke-width:1.5;" width="15" x="1526" y="934"/><rect fill="#F8F8F8" height="2" style="stroke:#383838;stroke-width:1.5;" width="4" x="1524" y="936"/><rect fill="#F8F8F8" height="2" style="stroke:#383838;stroke-width:1.5;" width="4" x="1524" y="940"/><text fill="#000000" font-family="sans-serif" font-size="14" lengthAdjust="spacing" textLength="56" x="1465" y="961.9951">Process</text><!--MD5=[7d96ef1b007fb45aed872ac4e2ba1a82]
entity DPIPE--><rect fill="#F8F8F8" height="46.2969" style="stroke:#383838;stroke-width:1.5;" width="70" x="544" y="929"/><rect fill="#F8F8F8" height="10" style="stroke:#383838;stroke-width:1.5;" width="15" x="594" y="934"/><rect fill="#F8F8F8" height="2" style="stroke:#383838;stroke-width:1.5;" width="4" x="592" y="936"/><rect fill="#F8F8F8" height="2" style="stroke:#383838;stroke-width:1.5;" width="4" x="592" y="940"/><text fill="#000000" font-family="sans-serif" font-size="14" lengthAdjust="spacing" textLength="30" x="559" y="961.9951">Pipe</text><!--MD5=[c8e0850785afbb5ab6e330485e15c0f4]
entity DDICT--><rect fill="#F8F8F8" height="46.2969" style="stroke:#383838;stroke-width:1.5;" width="147" x="649.5" y="929"/><rect fill="#F8F8F8" height="10" style="stroke:#383838;stroke-width:1.5;" width="15" x="776.5" y="934"/><rect fill="#F8F8F8" height="2" style="stroke:#383838;stroke-width:1.5;" width="4" x="774.5" y="936"/><rect fill="#F8F8F8" height="2" style="stroke:#383838;stroke-width:1.5;" width="4" x="774.5" y="940"/><text fill="#000000" font-family="sans-serif" font-size="14" lengthAdjust="spacing" textLength="107" x="664.5" y="961.9951">Distributed Dict</text><!--MD5=[f2f4757db172b99bde0c95b7d0d0177a]
entity DPWORK--><rect fill="#F8F8F8" height="46.2969" style="stroke:#383838;stroke-width:1.5;" width="127" x="659.5" y="1055"/><rect fill="#F8F8F8" height="10" style="stroke:#383838;stroke-width:1.5;" width="15" x="766.5" y="1060"/><rect fill="#F8F8F8" height="2" style="stroke:#383838;stroke-width:1.5;" width="4" x="764.5" y="1062"/><rect fill="#F8F8F8" height="2" style="stroke:#383838;stroke-width:1.5;" width="4" x="764.5" y="1066"/><text fill="#000000" font-family="sans-serif" font-size="14" lengthAdjust="spacing" textLength="87" x="674.5" y="1087.9951">PoolWorkers</text><!--MD5=[f66e6acd817b538bc04dea9e644c4eeb]
entity SEM--><rect fill="#F8F8F8" height="46.2969" style="stroke:#383838;stroke-width:1.5;" width="120" x="161" y="929"/><rect fill="#F8F8F8" height="10" style="stroke:#383838;stroke-width:1.5;" width="15" x="261" y="934"/><rect fill="#F8F8F8" height="2" style="stroke:#383838;stroke-width:1.5;" width="4" x="259" y="936"/><rect fill="#F8F8F8" height="2" style="stroke:#383838;stroke-width:1.5;" width="4" x="259" y="940"/><text fill="#000000" font-family="sans-serif" font-size="14" lengthAdjust="spacing" textLength="80" x="176" y="961.9951">Semaphore</text><!--MD5=[c2cd8b9456a4f97c1027519db1b662ad]
entity LCK--><rect fill="#F8F8F8" height="46.2969" style="stroke:#383838;stroke-width:1.5;" width="72" x="316" y="929"/><rect fill="#F8F8F8" height="10" style="stroke:#383838;stroke-width:1.5;" width="15" x="368" y="934"/><rect fill="#F8F8F8" height="2" style="stroke:#383838;stroke-width:1.5;" width="4" x="366" y="936"/><rect fill="#F8F8F8" height="2" style="stroke:#383838;stroke-width:1.5;" width="4" x="366" y="940"/><text fill="#000000" font-family="sans-serif" font-size="14" lengthAdjust="spacing" textLength="32" x="331" y="961.9951">Lock</text><!--MD5=[07c5dceb9f67402b2181229ed0ccbe9c]
entity DBAR--><rect fill="#F8F8F8" height="46.2969" style="stroke:#383838;stroke-width:1.5;" width="85" x="423.5" y="929"/><rect fill="#F8F8F8" height="10" style="stroke:#383838;stroke-width:1.5;" width="15" x="488.5" y="934"/><rect fill="#F8F8F8" height="2" style="stroke:#383838;stroke-width:1.5;" width="4" x="486.5" y="936"/><rect fill="#F8F8F8" height="2" style="stroke:#383838;stroke-width:1.5;" width="4" x="486.5" y="940"/><text fill="#000000" font-family="sans-serif" font-size="14" lengthAdjust="spacing" textLength="45" x="438.5" y="961.9951">Barrier</text><!--MD5=[f664b171d46fe37ddaaa8e800b616d7d]
entity DEV--><rect fill="#F8F8F8" height="46.2969" style="stroke:#383838;stroke-width:1.5;" width="79" x="46.5" y="929"/><rect fill="#F8F8F8" height="10" style="stroke:#383838;stroke-width:1.5;" width="15" x="105.5" y="934"/><rect fill="#F8F8F8" height="2" style="stroke:#383838;stroke-width:1.5;" width="4" x="103.5" y="936"/><rect fill="#F8F8F8" height="2" style="stroke:#383838;stroke-width:1.5;" width="4" x="103.5" y="940"/><text fill="#000000" font-family="sans-serif" font-size="14" lengthAdjust="spacing" textLength="39" x="61.5" y="961.9951">Event</text><!--MD5=[15e73eba7d27a276b6b3ffc6eda8e90a]
entity DQ--><rect fill="#F8F8F8" height="46.2969" style="stroke:#383838;stroke-width:1.5;" width="87" x="831.5" y="929"/><rect fill="#F8F8F8" height="10" style="stroke:#383838;stroke-width:1.5;" width="15" x="898.5" y="934"/><rect fill="#F8F8F8" height="2" style="stroke:#383838;stroke-width:1.5;" width="4" x="896.5" y="936"/><rect fill="#F8F8F8" height="2" style="stroke:#383838;stroke-width:1.5;" width="4" x="896.5" y="940"/><text fill="#000000" font-family="sans-serif" font-size="14" lengthAdjust="spacing" textLength="47" x="846.5" y="961.9951">Queue</text><!--MD5=[f23f8fe84e1f7fa056982562dcba6ab6]
entity DMACH--><rect fill="#F8F8F8" height="46.2969" style="stroke:#383838;stroke-width:1.5;" width="98" x="1084" y="929"/><rect fill="#F8F8F8" height="10" style="stroke:#383838;stroke-width:1.5;" width="15" x="1162" y="934"/><rect fill="#F8F8F8" height="2" style="stroke:#383838;stroke-width:1.5;" width="4" x="1160" y="936"/><rect fill="#F8F8F8" height="2" style="stroke:#383838;stroke-width:1.5;" width="4" x="1160" y="940"/><text fill="#000000" font-family="sans-serif" font-size="14" lengthAdjust="spacing" textLength="58" x="1099" y="961.9951">Machine</text><!--MD5=[66100bd6311d6595e71d1b40200b5380]
entity DLOG--><rect fill="#F8F8F8" height="46.2969" style="stroke:#383838;stroke-width:1.5;" width="95" x="953.5" y="929"/><rect fill="#F8F8F8" height="10" style="stroke:#383838;stroke-width:1.5;" width="15" x="1028.5" y="934"/><rect fill="#F8F8F8" height="2" style="stroke:#383838;stroke-width:1.5;" width="4" x="1026.5" y="936"/><rect fill="#F8F8F8" height="2" style="stroke:#383838;stroke-width:1.5;" width="4" x="1026.5" y="940"/><text fill="#000000" font-family="sans-serif" font-size="14" lengthAdjust="spacing" textLength="55" x="968.5" y="961.9951">Logging</text><!--MD5=[2792e76ae8c77d27694a6ab1865b7859]
entity mp_api--><ellipse cx="1025" cy="14" fill="#F8F8F8" rx="8" ry="8" style="stroke:#383838;stroke-width:1.5;"/><text fill="#000000" font-family="sans-serif" font-size="14" lengthAdjust="spacing" textLength="186" x="932" y="43.9951">Python Multiprocessing API</text><!--MD5=[4c4b63aa0119a823331c6b9916b4b18a]
entity MP--><rect fill="#F8F8F8" height="46.2969" style="stroke:#383838;stroke-width:1.5;" width="201" x="924.5" y="123"/><rect fill="#F8F8F8" height="10" style="stroke:#383838;stroke-width:1.5;" width="15" x="1105.5" y="128"/><rect fill="#F8F8F8" height="2" style="stroke:#383838;stroke-width:1.5;" width="4" x="1103.5" y="130"/><rect fill="#F8F8F8" height="2" style="stroke:#383838;stroke-width:1.5;" width="4" x="1103.5" y="134"/><text fill="#000000" font-family="sans-serif" font-size="14" lengthAdjust="spacing" textLength="161" x="939.5" y="155.9951">Python Multiprocessing</text><!--MD5=[9fb118f1557a3003b8cabaa1524e6a4c]
reverse link mp_api to MP--><path d="M1025,28.07 C1025,28.07 1025,122.99 1025,122.99 " fill="none" id="mp_api-backto-MP" style="stroke:#383838;stroke-width:1.0;"/><polygon fill="#383838" points="1025,23.07,1021,32.07,1025,28.07,1029,32.07,1025,23.07" style="stroke:#383838;stroke-width:1.0;"/><!--MD5=[cc34b9a96ad7d8f14a7255771758c797]
link ctypes_api to AV--><path d="M1025,342.05 C1025,342.05 1025,416.91 1025,416.91 " fill="none" id="ctypes_api-to-AV" style="stroke:#383838;stroke-width:1.0;"/><polygon fill="#383838" points="1025,421.91,1029,412.91,1025,416.91,1021,412.91,1025,421.91" style="stroke:#383838;stroke-width:1.0;"/><!--MD5=[ba0b57103b6bfca536eac78c51185359]
link shm_api to SML--><path d="M1268,342.05 C1268,342.05 1268,424.76 1268,424.76 " fill="none" id="shm_api-to-SML" style="stroke:#383838;stroke-width:1.0;"/><polygon fill="#383838" points="1268,429.76,1272.0257,420.7715,1268.0143,424.76,1264.0257,420.7486,1268,429.76" style="stroke:#383838;stroke-width:1.0;"/><!--MD5=[65e249292d59162ddde3cbf16042af40]
link ctx to PLC--><path d="M725.35,462 C651.54,462 548,462 548,462 C548,462 548,591.79 548,591.79 " fill="none" id="ctx-to-PLC" style="stroke:#383838;stroke-width:1.0;"/><polygon fill="#383838" points="548,596.79,552,587.79,548,591.79,544,587.79,548,596.79" style="stroke:#383838;stroke-width:1.0;"/><!--MD5=[9bee34dc389a22ca03c631dc24d6de50]
link ctx to MAN--><path d="M834.25,484.76 C834.25,503.94 834.25,528 834.25,528 C834.25,528 1320.25,528 1320.25,528 C1320.25,528 1320.25,600.44 1320.25,600.44 " fill="none" id="ctx-to-MAN" style="stroke:#383838;stroke-width:1.0;"/><polygon fill="#383838" points="1320.25,605.44,1324.25,596.44,1320.25,600.44,1316.25,596.44,1320.25,605.44" style="stroke:#383838;stroke-width:1.0;"/><!--MD5=[ec433df26ca202a01a07ce5ba88ef492]
link ctx to L--><path d="M743.62,484.73 C743.62,520.5 743.62,585 743.62,585 C743.62,585 395.74,585 395.74,585 " fill="none" id="ctx-to-L" style="stroke:#383838;stroke-width:1.0;"/><polygon fill="#383838" points="390.74,585,399.74,589,395.74,585,399.74,581,390.74,585" style="stroke:#383838;stroke-width:1.0;"/><!--MD5=[b2acdf6a840156a3b69dd344f4388782]
link ctx to Q--><path d="M761.75,484.72 C761.75,484.72 761.75,583.79 761.75,583.79 " fill="none" id="ctx-to-Q" style="stroke:#383838;stroke-width:1.0;"/><polygon fill="#383838" points="761.75,588.79,765.75,579.79,761.75,583.79,757.75,579.79,761.75,588.79" style="stroke:#383838;stroke-width:1.0;"/><!--MD5=[8c1e7da92b356c5c3c3f584f02915a67]
link ctx to PO--><path d="M798,484.61 C798,512.3 798,555 798,555 C798,555 1122.75,555 1122.75,555 C1122.75,555 1122.75,600.24 1122.75,600.24 " fill="none" id="ctx-to-PO" style="stroke:#383838;stroke-width:1.0;"/><polygon fill="#383838" points="1122.75,605.24,1126.75,596.24,1122.75,600.24,1118.75,596.24,1122.75,605.24" style="stroke:#383838;stroke-width:1.0;"/><!--MD5=[be0e9ee0ecf030ff29ff4c2930886570]
link ctx to FUNC--><path d="M779.88,484.61 C779.88,515.93 779.88,568 779.88,568 C779.88,568 1007,568 1007,568 C1007,568 1007,591.83 1007,591.83 " fill="none" id="ctx-to-FUNC" style="stroke:#383838;stroke-width:1.0;"/><polygon fill="#383838" points="1007,596.83,1011,587.83,1007,591.83,1003,587.83,1007,596.83" style="stroke:#383838;stroke-width:1.0;"/><!--MD5=[8888649a038269122a17e2baf9f892a1]
link ctx to PROC--><path d="M852.38,484.81 C852.38,499.23 852.38,515 852.38,515 C852.38,515 1559.75,515 1559.75,515 C1559.75,515 1559.75,600.26 1559.75,600.26 " fill="none" id="ctx-to-PROC" style="stroke:#383838;stroke-width:1.0;"/><polygon fill="#383838" points="1559.75,605.26,1563.75,596.26,1559.75,600.26,1555.75,596.26,1559.75,605.26" style="stroke:#383838;stroke-width:1.0;"/><!--MD5=[cec3c54867d35f58bab4bd94c9aa8d6e]
reverse link ctx_api to ctx--><path d="M807,347.05 C807,347.05 807,438.34 807,438.34 " fill="none" id="ctx_api-backto-ctx" style="stroke:#383838;stroke-width:1.0;"/><polygon fill="#383838" points="807,342.05,803,351.05,807,347.05,811,351.05,807,342.05" style="stroke:#383838;stroke-width:1.0;"/><!--MD5=[3198977ce97f3d9d056f512938fef24c]
link dproc_api to DPROC--><path d="M1409,849.23 C1409,870.37 1409,938 1409,938 C1409,938 1444.85,938 1444.85,938 " fill="none" id="dproc_api-to-DPROC" style="stroke:#383838;stroke-width:1.0;"/><polygon fill="#383838" points="1449.85,938,1440.85,934,1444.85,938,1440.85,942,1449.85,938" style="stroke:#383838;stroke-width:1.0;"/><!--MD5=[680d183cf6737b753ef29f67df7e3f45]
link dsem_api to SEM--><path d="M225,849.17 C225,849.17 225,923.81 225,923.81 " fill="none" id="dsem_api-to-SEM" style="stroke:#383838;stroke-width:1.0;"/><polygon fill="#383838" points="225,928.81,229,919.81,225,923.81,221,919.81,225,928.81" style="stroke:#383838;stroke-width:1.0;"/><!--MD5=[9dc30205f232eed29f5bf8cc8deaf616]
link dlock_api to LCK--><path d="M343,849.17 C343,849.17 343,923.81 343,923.81 " fill="none" id="dlock_api-to-LCK" style="stroke:#383838;stroke-width:1.0;"/><polygon fill="#383838" points="343,928.81,347,919.81,343,923.81,339,919.81,343,928.81" style="stroke:#383838;stroke-width:1.0;"/><!--MD5=[17f0454a74499756874d357fc784ebd0]
link dbar_api to DBAR--><path d="M461,849.17 C461,849.17 461,923.81 461,923.81 " fill="none" id="dbar_api-to-DBAR" style="stroke:#383838;stroke-width:1.0;"/><polygon fill="#383838" points="461,928.81,465,919.81,461,923.81,457,919.81,461,928.81" style="stroke:#383838;stroke-width:1.0;"/><!--MD5=[12b3d56b065ca8c6234eb2484a8bcce8]
link dev_api to DEV--><path d="M105,849.17 C105,849.17 105,923.81 105,923.81 " fill="none" id="dev_api-to-DEV" style="stroke:#383838;stroke-width:1.0;"/><polygon fill="#383838" points="105,928.81,109,919.81,105,923.81,101,919.81,105,928.81" style="stroke:#383838;stroke-width:1.0;"/><!--MD5=[81e7c59c6439397d5a9f315926e0f4ee]
link dqueue_api to DQ--><path d="M858,849.17 C858,849.17 858,923.81 858,923.81 " fill="none" id="dqueue_api-to-DQ" style="stroke:#383838;stroke-width:1.0;"/><polygon fill="#383838" points="858,928.81,862,919.81,858,923.81,854,919.81,858,928.81" style="stroke:#383838;stroke-width:1.0;"/><!--MD5=[7fef1699dad023a76dd75e84e8f34eed]
link dpipe_api to DPIPE--><path d="M581,849.17 C581,849.17 581,923.81 581,923.81 " fill="none" id="dpipe_api-to-DPIPE" style="stroke:#383838;stroke-width:1.0;"/><polygon fill="#383838" points="581,928.81,585,919.81,581,923.81,577,919.81,581,928.81" style="stroke:#383838;stroke-width:1.0;"/><!--MD5=[0c02126b9bd0b659720fafc90512a356]
link dmach_api to DMACH--><path d="M1259,849.25 C1259,869.81 1259,934 1259,934 C1259,934 1187.08,934 1187.08,934 " fill="none" id="dmach_api-to-DMACH" style="stroke:#383838;stroke-width:1.0;"/><polygon fill="#383838" points="1182.08,934,1191.08,938,1187.08,934,1191.08,930,1182.08,934" style="stroke:#383838;stroke-width:1.0;"/><!--MD5=[35942de3b7c2c42ae70291754e787986]
link dlog_api to DLOG--><path d="M1001,849.17 C1001,849.17 1001,923.81 1001,923.81 " fill="none" id="dlog_api-to-DLOG" style="stroke:#383838;stroke-width:1.0;"/><polygon fill="#383838" points="1001,928.81,1005,919.81,1001,923.81,997,919.81,1001,928.81" style="stroke:#383838;stroke-width:1.0;"/><!--MD5=[0cc33b3e55c03f600c2dbaa22fe30e89]
link ddict_api to DDICT--><path d="M723,849.17 C723,849.17 723,923.81 723,923.81 " fill="none" id="ddict_api-to-DDICT" style="stroke:#383838;stroke-width:1.0;"/><polygon fill="#383838" points="723,928.81,727,919.81,723,923.81,719,919.81,723,928.81" style="stroke:#383838;stroke-width:1.0;"/><!--MD5=[202add76bdcb5bb038fc297637c02b1d]
link DDICT to DPWORK--><path d="M723,975.11 C723,975.11 723,1049.61 723,1049.61 " fill="none" id="DDICT-to-DPWORK" style="stroke:#383838;stroke-width:1.0;"/><polygon fill="#383838" points="723,1054.61,727,1045.61,723,1049.61,719,1045.61,723,1054.61" style="stroke:#383838;stroke-width:1.0;"/><!--MD5=[f7603c04c9fabc70efc811c2f8c6b4e5]
link L to dsem_api--><path d="M225,676.1 C225,676.1 225,831.94 225,831.94 " fill="none" id="L-to-dsem_api" style="stroke:#383838;stroke-width:1.0;"/><polygon fill="#383838" points="225,836.94,229,827.94,225,831.94,221,827.94,225,836.94" style="stroke:#383838;stroke-width:1.0;"/><!--MD5=[b8e135eb2caca519156a17e95b9d82e7]
link L to dlock_api--><path d="M343,676.1 C343,676.1 343,831.94 343,831.94 " fill="none" id="L-to-dlock_api" style="stroke:#383838;stroke-width:1.0;"/><polygon fill="#383838" points="343,836.94,347,827.94,343,831.94,339,827.94,343,836.94" style="stroke:#383838;stroke-width:1.0;"/><!--MD5=[921d751225ba261a6a5b6b4efa3e75ca]
link L to dbar_api--><path d="M390.7,672 C429.46,672 461,672 461,672 C461,672 461,831.91 461,831.91 " fill="none" id="L-to-dbar_api" style="stroke:#383838;stroke-width:1.0;"/><polygon fill="#383838" points="461,836.91,465,827.91,461,831.91,457,827.91,461,836.91" style="stroke:#383838;stroke-width:1.0;"/><!--MD5=[ca5bd4e32bc51363dbcd2938baeb31e0]
link L to dev_api--><path d="M119.25,676.1 C119.25,739.3 119.25,843 119.25,843 C119.25,843 118.12,843 118.12,843 " fill="none" id="L-to-dev_api" style="stroke:#383838;stroke-width:1.0;"/><polygon fill="#383838" points="113.12,843,122.1314,846.9743,118.12,842.9857,122.1085,838.9743,113.12,843" style="stroke:#383838;stroke-width:1.0;"/><!--MD5=[6ef8ae19086e1f960df647f5f00fea25]
link Q to dqueue_api--><path d="M858,668.09 C858,668.09 858,831.76 858,831.76 " fill="none" id="Q-to-dqueue_api" style="stroke:#383838;stroke-width:1.0;"/><polygon fill="#383838" points="858,836.76,862,827.76,858,831.76,854,827.76,858,836.76" style="stroke:#383838;stroke-width:1.0;"/><!--MD5=[5df34c7f1b5959c9845cd0c08a0b9d66]
link PLC to dpipe_api--><path d="M579,660.15 C579,660.15 579,831.92 579,831.92 " fill="none" id="PLC-to-dpipe_api" style="stroke:#383838;stroke-width:1.0;"/><polygon fill="#383838" points="579,836.92,583,827.92,579,831.92,575,827.92,579,836.92" style="stroke:#383838;stroke-width:1.0;"/><!--MD5=[877ae89db848bf5fb364c71100ac60ec]
link ctx to dmach_api--><path d="M816.12,484.92 C816.12,508.37 816.12,541 816.12,541 C816.12,541 1259,541 1259,541 C1259,541 1259,831.97 1259,831.97 " fill="none" id="ctx-to-dmach_api" style="stroke:#383838;stroke-width:1.0;"/><polygon fill="#383838" points="1259,836.97,1263,827.97,1259,831.97,1255,827.97,1259,836.97" style="stroke:#383838;stroke-width:1.0;"/><!--MD5=[5d8c2f0cbba2007bf51062b9416a553b]
link PROC to dproc_api--><path d="M1515.75,651.86 C1515.75,707.46 1515.75,843 1515.75,843 C1515.75,843 1418.16,843 1418.16,843 " fill="none" id="PROC-to-dproc_api" style="stroke:#383838;stroke-width:1.0;"/><polygon fill="#383838" points="1413.16,843,1422.16,847,1418.16,843,1422.16,839,1413.16,843" style="stroke:#383838;stroke-width:1.0;"/><!--MD5=[ace61380b3f92b4188a697a991354935]
link MP to ctx_api--><path d="M924.3,146 C867.18,146 807,146 807,146 C807,146 807,324.68 807,324.68 " fill="none" id="MP-to-ctx_api" style="stroke:#383838;stroke-width:1.0;"/><polygon fill="#383838" points="807,329.68,811,320.68,807,324.68,803,320.68,807,329.68" style="stroke:#383838;stroke-width:1.0;"/><!--MD5=[eeb75aa98c027122124cd0f72c1b7f4d]
link MP to ctypes_api--><path d="M1025,169.3 C1025,169.3 1025,324.96 1025,324.96 " fill="none" id="MP-to-ctypes_api" style="stroke:#383838;stroke-width:1.0;"/><polygon fill="#383838" points="1025,329.96,1029,320.96,1025,324.96,1021,320.96,1025,329.96" style="stroke:#383838;stroke-width:1.0;"/><!--MD5=[ca3aa62a479d49a5673fec33ecfee98e]
link MP to shm_api--><path d="M1125.59,146 C1192.44,146 1268,146 1268,146 C1268,146 1268,324.68 1268,324.68 " fill="none" id="MP-to-shm_api" style="stroke:#383838;stroke-width:1.0;"/><polygon fill="#383838" points="1268,329.68,1272,320.68,1268,324.68,1264,320.68,1268,329.68" style="stroke:#383838;stroke-width:1.0;"/><!--MD5=[33cdac8700e0aa9caadd7e7b27cc8289]
@startuml

' title "Dragon MPBridge Architecture"

skinparam componentStyle uml2
skinparam shadowing false
skinparam monochrome true

skinparam linetype ortho
' skinparam linetype polyline
' skinparam nodesep 80
skinparam ranksep 80

interface "Python Multiprocessing API" as mp_api
[Python Multiprocessing] as MP

MP -u-> mp_api

component "dragon.mpbridge (Python)" as mpbridge {

    portin "Context API" as ctx_api
    portin "CTypes API" as ctypes_api
    portin "                  Shared Memory API" as shm_api

    [DragonContext] as ctx
    [DragonValue, DragonArray, \nDragonRawValue,\nDragonRawArray] as AV
    [DragonSharedMemory, \nDragonShareableList] as SML

    ' together {
        [Process, Popen] as PROC
        [DragonLock, DragonRLock, \nDragonCondition, DragonEvent, \nDragonSemaphore, DragonBarrier, \nDragonBoundedSemaphore] as L
        [DragonPipe, \nDragonListener, DragonClient] as PLC
        [DragonQueue, \nDragonJoinableQueue, \nDragonSimpleQueue] as Q 
        [log_to_stderr,\nget_logger] as FUNC
    ' }

    [DragonPool] as PO
    [DragonSyncManager] as MAN

    AV <-u- ctypes_api
    SML <-u- shm_api

    ctx -d-> PLC
    ctx -d-> MAN
    ctx -d-> L
    ctx -d-> Q
    ctx -d-> PO
    ctx -d-> FUNC
    ctx -d-> PROC
    ctx -u-> ctx_api
}

component "dragon.native (Python)" as DN {


    portin "Semaphore API" as dsem_api
    portin "Lock API" as dlock_api
    portin "Barrier API" as dbar_api
    portin "Event API" as dev_api
    portin "Pipe API" as dpipe_api
    portin "KeyValue API" as ddict_api

    portin "Queue API" as dqueue_api
    portin "Logging API" as dlog_api
    portin "Machine API" as dmach_api

    portin "Process API" as dproc_api 

    [Process] as DPROC

    together {
        [Semaphore] as SEM
        [Lock] as LCK
        [Barrier] as DBAR
        [Event] as DEV
    }

    [Pipe] as DPIPE
    [Distributed Dict] as DDICT
    [PoolWorkers] as DPWORK
    
    together {
        [Queue] as DQ
        [Machine] as DMACH
        [Logging] as DLOG
    }


    DPROC <-u- dproc_api
    SEM <-u- dsem_api
    LCK <-u- dlock_api
    DBAR <-u- dbar_api
    DEV <-u- dev_api
    DQ <-u- dqueue_api
    DPIPE <-u- dpipe_api
    DMACH <-u- dmach_api
    DLOG <-u- dlog_api
    DDICT <-u- ddict_api
    DDICT - -> DPWORK

}

L - -d-> dsem_api
L - -d-> dlock_api
L - -d-> dbar_api
L - -d-> dev_api
Q - -d-> dqueue_api
PLC -d-> dpipe_api
ctx -d-> dmach_api
PROC -d-> dproc_api


MP - - -> ctx_api
MP - - -> ctypes_api
MP - - -> shm_api

'in case we want to hide components
hide $hidden
@enduml

@startuml


skinparam componentStyle uml2
skinparam shadowing false
skinparam monochrome true

skinparam linetype ortho
skinparam ranksep 80

interface "Python Multiprocessing API" as mp_api
[Python Multiprocessing] as MP

MP -u-> mp_api

component "dragon.mpbridge (Python)" as mpbridge {

    portin "Context API" as ctx_api
    portin "CTypes API" as ctypes_api
    portin "                  Shared Memory API" as shm_api

    [DragonContext] as ctx
    [DragonValue, DragonArray, \nDragonRawValue,\nDragonRawArray] as AV
    [DragonSharedMemory, \nDragonShareableList] as SML

        [Process, Popen] as PROC
        [DragonLock, DragonRLock, \nDragonCondition, DragonEvent, \nDragonSemaphore, DragonBarrier, \nDragonBoundedSemaphore] as L
        [DragonPipe, \nDragonListener, DragonClient] as PLC
        [DragonQueue, \nDragonJoinableQueue, \nDragonSimpleQueue] as Q 
        [log_to_stderr,\nget_logger] as FUNC

    [DragonPool] as PO
    [DragonSyncManager] as MAN

    AV <-u- ctypes_api
    SML <-u- shm_api

    ctx -d-> PLC
    ctx -d-> MAN
    ctx -d-> L
    ctx -d-> Q
    ctx -d-> PO
    ctx -d-> FUNC
    ctx -d-> PROC
    ctx -u-> ctx_api
}

component "dragon.native (Python)" as DN {


    portin "Semaphore API" as dsem_api
    portin "Lock API" as dlock_api
    portin "Barrier API" as dbar_api
    portin "Event API" as dev_api
    portin "Pipe API" as dpipe_api
    portin "KeyValue API" as ddict_api

    portin "Queue API" as dqueue_api
    portin "Logging API" as dlog_api
    portin "Machine API" as dmach_api

    portin "Process API" as dproc_api 

    [Process] as DPROC

    together {
        [Semaphore] as SEM
        [Lock] as LCK
        [Barrier] as DBAR
        [Event] as DEV
    }

    [Pipe] as DPIPE
    [Distributed Dict] as DDICT
    [PoolWorkers] as DPWORK
    
    together {
        [Queue] as DQ
        [Machine] as DMACH
        [Logging] as DLOG
    }


    DPROC <-u- dproc_api
    SEM <-u- dsem_api
    LCK <-u- dlock_api
    DBAR <-u- dbar_api
    DEV <-u- dev_api
    DQ <-u- dqueue_api
    DPIPE <-u- dpipe_api
    DMACH <-u- dmach_api
    DLOG <-u- dlog_api
    DDICT <-u- ddict_api
    DDICT - -> DPWORK

}

L - -d-> dsem_api
L - -d-> dlock_api
L - -d-> dbar_api
L - -d-> dev_api
Q - -d-> dqueue_api
PLC -d-> dpipe_api
ctx -d-> dmach_api
PROC -d-> dproc_api


MP - - -> ctx_api
MP - - -> ctypes_api
MP - - -> shm_api

hide $hidden
@enduml

PlantUML version 1.2022.1(Tue Feb 01 18:19:58 GMT 2022)
(GPL source distribution)
Java Runtime: OpenJDK Runtime Environment
JVM: OpenJDK 64-Bit Server VM
Default Encoding: UTF-8
Language: en
Country: US
--></g></svg>