<?xml version="1.0" encoding="UTF-8" standalone="no"?><svg xmlns="http://www.w3.org/2000/svg" xmlns:xlink="http://www.w3.org/1999/xlink" contentScriptType="application/ecmascript" contentStyleType="text/css" height="1213px" preserveAspectRatio="none" style="width:1235px;height:1213px;background:#FFFFFF;" version="1.1" viewBox="0 0 1235 1213" width="1235px" zoomAndPan="magnify"><defs/><g><rect fill="#FFFFFF" height="298.625" style="stroke:#383838;stroke-width:1.0;" width="10" x="225" y="62.5938"/><rect fill="#FFFFFF" height="454.3203" style="stroke:#FFFFFF;stroke-width:1.0;" width="10" x="225" y="700.9766"/><line style="stroke:#383838;stroke-width:1.0;" x1="225" x2="225" y1="700.9766" y2="1155.2969"/><line style="stroke:#383838;stroke-width:1.0;" x1="235" x2="235" y1="700.9766" y2="1155.2969"/><line style="stroke:#383838;stroke-width:1.0;" x1="225" x2="235" y1="700.9766" y2="700.9766"/><rect fill="#FFFFFF" height="1" style="stroke:#FFFFFF;stroke-width:1.0;" width="10" x="225" y="1196.1016"/><line style="stroke:#383838;stroke-width:1.0;" x1="225" x2="225" y1="1196.1016" y2="1197.1016"/><line style="stroke:#383838;stroke-width:1.0;" x1="235" x2="235" y1="1196.1016" y2="1197.1016"/><line style="stroke:#383838;stroke-width:1.0;" x1="225" x2="235" y1="1197.1016" y2="1197.1016"/><rect fill="#FFFFFF" height="344.8906" style="stroke:#383838;stroke-width:1.0;" width="10" x="533" y="126.8594"/><rect fill="#FFFFFF" height="578.8516" style="stroke:#FFFFFF;stroke-width:1.0;" width="10" x="533" y="576.4453"/><line style="stroke:#383838;stroke-width:1.0;" x1="533" x2="533" y1="576.4453" y2="1155.2969"/><line style="stroke:#383838;stroke-width:1.0;" x1="543" x2="543" y1="576.4453" y2="1155.2969"/><line style="stroke:#383838;stroke-width:1.0;" x1="533" x2="543" y1="576.4453" y2="576.4453"/><rect fill="#FFFFFF" height="1" style="stroke:#FFFFFF;stroke-width:1.0;" width="10" x="533" y="1196.1016"/><line style="stroke:#383838;stroke-width:1.0;" x1="533" x2="533" y1="1196.1016" y2="1197.1016"/><line style="stroke:#383838;stroke-width:1.0;" x1="543" x2="543" y1="1196.1016" y2="1197.1016"/><line style="stroke:#383838;stroke-width:1.0;" x1="533" x2="543" y1="1197.1016" y2="1197.1016"/><rect fill="#FFFFFF" height="94.6953" style="stroke:#383838;stroke-width:1.0;" width="10" x="914" y="481.75"/><rect fill="#FFFFFF" height="516.5859" style="stroke:#FFFFFF;stroke-width:1.0;" width="10" x="914" y="638.7109"/><line style="stroke:#383838;stroke-width:1.0;" x1="914" x2="914" y1="638.7109" y2="1155.2969"/><line style="stroke:#383838;stroke-width:1.0;" x1="924" x2="924" y1="638.7109" y2="1155.2969"/><line style="stroke:#383838;stroke-width:1.0;" x1="914" x2="924" y1="638.7109" y2="638.7109"/><rect fill="#FFFFFF" height="1" style="stroke:#FFFFFF;stroke-width:1.0;" width="10" x="914" y="1196.1016"/><line style="stroke:#383838;stroke-width:1.0;" x1="914" x2="914" y1="1196.1016" y2="1197.1016"/><line style="stroke:#383838;stroke-width:1.0;" x1="924" x2="924" y1="1196.1016" y2="1197.1016"/><line style="stroke:#383838;stroke-width:1.0;" x1="914" x2="924" y1="1197.1016" y2="1197.1016"/><rect fill="#FFFFFF" height="199.2578" style="stroke:#FFFFFF;stroke-width:1.0;" width="10" x="1033.5" y="956.0391"/><line style="stroke:#383838;stroke-width:1.0;" x1="1033.5" x2="1033.5" y1="956.0391" y2="1155.2969"/><line style="stroke:#383838;stroke-width:1.0;" x1="1043.5" x2="1043.5" y1="956.0391" y2="1155.2969"/><line style="stroke:#383838;stroke-width:1.0;" x1="1033.5" x2="1043.5" y1="956.0391" y2="956.0391"/><rect fill="#FFFFFF" height="1" style="stroke:#FFFFFF;stroke-width:1.0;" width="10" x="1033.5" y="1196.1016"/><line style="stroke:#383838;stroke-width:1.0;" x1="1033.5" x2="1033.5" y1="1196.1016" y2="1197.1016"/><line style="stroke:#383838;stroke-width:1.0;" x1="1043.5" x2="1043.5" y1="1196.1016" y2="1197.1016"/><line style="stroke:#383838;stroke-width:1.0;" x1="1033.5" x2="1043.5" y1="1197.1016" y2="1197.1016"/><line style="stroke:#383838;stroke-width:1.0;" x1="230" x2="230" y1="52.5938" y2="1155.2969"/><line style="stroke:#383838;stroke-width:1.0;stroke-dasharray:1.0,4.0;" x1="230" x2="230" y1="1155.2969" y2="1196.1016"/><line style="stroke:#383838;stroke-width:1.0;" x1="230" x2="230" y1="1196.1016" y2="1206.1016"/><line style="stroke:#383838;stroke-width:1.0;" x1="538" x2="538" y1="126.375" y2="1155.2969"/><line style="stroke:#383838;stroke-width:1.0;stroke-dasharray:1.0,4.0;" x1="538" x2="538" y1="1155.2969" y2="1196.1016"/><line style="stroke:#383838;stroke-width:1.0;" x1="538" x2="538" y1="1196.1016" y2="1206.1016"/><line style="stroke:#383838;stroke-width:1.0;" x1="918.5" x2="918.5" y1="481.2656" y2="1155.2969"/><line style="stroke:#383838;stroke-width:1.0;stroke-dasharray:1.0,4.0;" x1="918.5" x2="918.5" y1="1155.2969" y2="1196.1016"/><line style="stroke:#383838;stroke-width:1.0;" x1="918.5" x2="918.5" y1="1196.1016" y2="1206.1016"/><line style="stroke:#383838;stroke-width:1.0;" x1="1038.5" x2="1038.5" y1="963.7031" y2="1155.2969"/><line style="stroke:#383838;stroke-width:1.0;stroke-dasharray:1.0,4.0;" x1="1038.5" x2="1038.5" y1="1155.2969" y2="1196.1016"/><line style="stroke:#383838;stroke-width:1.0;" x1="1038.5" x2="1038.5" y1="1196.1016" y2="1206.1016"/><rect fill="#F8F8F8" height="30.2969" style="stroke:#383838;stroke-width:1.5;" width="78" x="191" y="21.2969"/><text fill="#000000" font-family="sans-serif" font-size="14" lengthAdjust="spacing" textLength="64" x="198" y="41.292">Launcher</text><rect fill="#FFFFFF" height="298.625" style="stroke:#383838;stroke-width:1.0;" width="10" x="225" y="62.5938"/><rect fill="#FFFFFF" height="454.3203" style="stroke:#FFFFFF;stroke-width:1.0;" width="10" x="225" y="700.9766"/><line style="stroke:#383838;stroke-width:1.0;" x1="225" x2="225" y1="700.9766" y2="1155.2969"/><line style="stroke:#383838;stroke-width:1.0;" x1="235" x2="235" y1="700.9766" y2="1155.2969"/><line style="stroke:#383838;stroke-width:1.0;" x1="225" x2="235" y1="700.9766" y2="700.9766"/><rect fill="#FFFFFF" height="1" style="stroke:#FFFFFF;stroke-width:1.0;" width="10" x="225" y="1196.1016"/><line style="stroke:#383838;stroke-width:1.0;" x1="225" x2="225" y1="1196.1016" y2="1197.1016"/><line style="stroke:#383838;stroke-width:1.0;" x1="235" x2="235" y1="1196.1016" y2="1197.1016"/><line style="stroke:#383838;stroke-width:1.0;" x1="225" x2="235" y1="1197.1016" y2="1197.1016"/><rect fill="#FFFFFF" height="344.8906" style="stroke:#383838;stroke-width:1.0;" width="10" x="533" y="126.8594"/><rect fill="#FFFFFF" height="578.8516" style="stroke:#FFFFFF;stroke-width:1.0;" width="10" x="533" y="576.4453"/><line style="stroke:#383838;stroke-width:1.0;" x1="533" x2="533" y1="576.4453" y2="1155.2969"/><line style="stroke:#383838;stroke-width:1.0;" x1="543" x2="543" y1="576.4453" y2="1155.2969"/><line style="stroke:#383838;stroke-width:1.0;" x1="533" x2="543" y1="576.4453" y2="576.4453"/><rect fill="#FFFFFF" height="1" style="stroke:#FFFFFF;stroke-width:1.0;" width="10" x="533" y="1196.1016"/><line style="stroke:#383838;stroke-width:1.0;" x1="533" x2="533" y1="1196.1016" y2="1197.1016"/><line style="stroke:#383838;stroke-width:1.0;" x1="543" x2="543" y1="1196.1016" y2="1197.1016"/><line style="stroke:#383838;stroke-width:1.0;" x1="533" x2="543" y1="1197.1016" y2="1197.1016"/><rect fill="#FFFFFF" height="94.6953" style="stroke:#383838;stroke-width:1.0;" width="10" x="914" y="481.75"/><rect fill="#FFFFFF" height="516.5859" style="stroke:#FFFFFF;stroke-width:1.0;" width="10" x="914" y="638.7109"/><line style="stroke:#383838;stroke-width:1.0;" x1="914" x2="914" y1="638.7109" y2="1155.2969"/><line style="stroke:#383838;stroke-width:1.0;" x1="924" x2="924" y1="638.7109" y2="1155.2969"/><line style="stroke:#383838;stroke-width:1.0;" x1="914" x2="924" y1="638.7109" y2="638.7109"/><rect fill="#FFFFFF" height="1" style="stroke:#FFFFFF;stroke-width:1.0;" width="10" x="914" y="1196.1016"/><line style="stroke:#383838;stroke-width:1.0;" x1="914" x2="914" y1="1196.1016" y2="1197.1016"/><line style="stroke:#383838;stroke-width:1.0;" x1="924" x2="924" y1="1196.1016" y2="1197.1016"/><line style="stroke:#383838;stroke-width:1.0;" x1="914" x2="924" y1="1197.1016" y2="1197.1016"/><rect fill="#FFFFFF" height="199.2578" style="stroke:#FFFFFF;stroke-width:1.0;" width="10" x="1033.5" y="956.0391"/><line style="stroke:#383838;stroke-width:1.0;" x1="1033.5" x2="1033.5" y1="956.0391" y2="1155.2969"/><line style="stroke:#383838;stroke-width:1.0;" x1="1043.5" x2="1043.5" y1="956.0391" y2="1155.2969"/><line style="stroke:#383838;stroke-width:1.0;" x1="1033.5" x2="1043.5" y1="956.0391" y2="956.0391"/><rect fill="#FFFFFF" height="1" style="stroke:#FFFFFF;stroke-width:1.0;" width="10" x="1033.5" y="1196.1016"/><line style="stroke:#383838;stroke-width:1.0;" x1="1033.5" x2="1033.5" y1="1196.1016" y2="1197.1016"/><line style="stroke:#383838;stroke-width:1.0;" x1="1043.5" x2="1043.5" y1="1196.1016" y2="1197.1016"/><line style="stroke:#383838;stroke-width:1.0;" x1="1033.5" x2="1043.5" y1="1197.1016" y2="1197.1016"/><rect fill="#EBEBEB" height="23" style="stroke:#383838;stroke-width:1.0;" width="137" x="83" y="67.5938"/><text fill="#000000" font-family="sans-serif" font-size="13" lengthAdjust="spacing" textLength="129" x="87" y="83.6606">[A1] Start Shepherd</text><polygon fill="#383838" points="485,112.8594,495,116.8594,485,120.8594" style="stroke:#383838;stroke-width:1.0;"/><line style="stroke:#383838;stroke-width:1.0;" x1="235" x2="491" y1="116.8594" y2="116.8594"/><text fill="#000000" font-family="sans-serif" font-size="13" font-weight="bold" lengthAdjust="spacing" textLength="34" x="242" y="111.7935">[M1]</text><text fill="#000000" font-family="sans-serif" font-size="13" lengthAdjust="spacing" textLength="184" x="280" y="111.7935">cmd/env parms @ OS spawn</text><rect fill="#F8F8F8" height="30.2969" style="stroke:#383838;stroke-width:1.5;" width="82" x="497" y="95.7266"/><text fill="#000000" font-family="sans-serif" font-size="14" lengthAdjust="spacing" textLength="68" x="504" y="115.7217">Shepherd</text><rect fill="#EBEBEB" height="53" style="stroke:#383838;stroke-width:1.0;" width="215" x="430" y="142.0234"/><text fill="#000000" font-family="sans-serif" font-size="13" lengthAdjust="spacing" textLength="67" x="434" y="158.0903">[A2] Start,</text><text fill="#000000" font-family="sans-serif" font-size="13" lengthAdjust="spacing" textLength="207" x="434" y="173.2231">make shared memory segment,</text><text fill="#000000" font-family="sans-serif" font-size="13" lengthAdjust="spacing" textLength="145" x="434" y="188.356">make default channels</text><polygon fill="#383838" points="246,217.5547,236,221.5547,246,225.5547" style="stroke:#383838;stroke-width:1.0;"/><line style="stroke:#383838;stroke-width:1.0;" x1="240" x2="532" y1="221.5547" y2="221.5547"/><text fill="#000000" font-family="sans-serif" font-size="13" font-weight="bold" lengthAdjust="spacing" textLength="34" x="252" y="216.4888">[M2]</text><text fill="#000000" font-family="sans-serif" font-size="13" lengthAdjust="spacing" textLength="129" x="290" y="216.4888">SHPing BE @ stdout</text><rect fill="#EBEBEB" height="23" style="stroke:#383838;stroke-width:1.0;" width="217" x="121" y="234.5547"/><text fill="#000000" font-family="sans-serif" font-size="13" lengthAdjust="spacing" textLength="209" x="125" y="250.6216">[A3] attach to Shepherd channel</text><polygon fill="#383838" points="521,279.8203,531,283.8203,521,287.8203" style="stroke:#383838;stroke-width:1.0;"/><line style="stroke:#383838;stroke-width:1.0;" x1="235" x2="527" y1="283.8203" y2="283.8203"/><text fill="#000000" font-family="sans-serif" font-size="13" font-weight="bold" lengthAdjust="spacing" textLength="34" x="242" y="278.7544">[M3]</text><text fill="#000000" font-family="sans-serif" font-size="13" lengthAdjust="spacing" textLength="163" x="280" y="278.7544">BEPing SH @ SH Channel</text><rect fill="#EBEBEB" height="38" style="stroke:#383838;stroke-width:1.0;" width="214" x="431" y="296.8203"/><text fill="#000000" font-family="sans-serif" font-size="13" lengthAdjust="spacing" textLength="206" x="435" y="312.8872">[A4] Ping Launcher via Backend,</text><text fill="#000000" font-family="sans-serif" font-size="13" lengthAdjust="spacing" textLength="182" x="435" y="328.02">Report on-node Channels up</text><polygon fill="#383838" points="241,357.2188,231,361.2188,241,365.2188" style="stroke:#383838;stroke-width:1.0;"/><line style="stroke:#383838;stroke-width:1.0;" x1="235" x2="532" y1="361.2188" y2="361.2188"/><text fill="#000000" font-family="sans-serif" font-size="13" font-weight="bold" lengthAdjust="spacing" textLength="34" x="247" y="356.1528">[M4]</text><text fill="#000000" font-family="sans-serif" font-size="13" lengthAdjust="spacing" textLength="189" x="285" y="356.1528">SHChannelsUp @ LA Channel</text><rect fill="#EBEBEB" height="38" style="stroke:#383838;stroke-width:1.0;" width="135" x="90" y="374.2188"/><text fill="#000000" font-family="sans-serif" font-size="13" lengthAdjust="spacing" textLength="127" x="94" y="390.2856">[A5] All channels up</text><text fill="#000000" font-family="sans-serif" font-size="13" lengthAdjust="spacing" textLength="103" x="94" y="405.4185">[A6] await all-up</text><rect fill="#EBEBEB" height="23" style="stroke:#383838;stroke-width:1.0;" width="173" x="451" y="422.4844"/><text fill="#000000" font-family="sans-serif" font-size="13" lengthAdjust="spacing" textLength="165" x="455" y="438.5513">[A7] Start Global Services</text><polygon fill="#383838" points="851.5,467.75,861.5,471.75,851.5,475.75" style="stroke:#383838;stroke-width:1.0;"/><line style="stroke:#383838;stroke-width:1.0;" x1="538" x2="857.5" y1="471.75" y2="471.75"/><text fill="#000000" font-family="sans-serif" font-size="13" font-weight="bold" lengthAdjust="spacing" textLength="34" x="545" y="466.6841">[M5]</text><text fill="#000000" font-family="sans-serif" font-size="13" lengthAdjust="spacing" textLength="184" x="583" y="466.6841">cmd/env parms @ OS spawn</text><rect fill="#F8F8F8" height="30.2969" style="stroke:#383838;stroke-width:1.5;" width="111" x="863.5" y="450.6172"/><text fill="#000000" font-family="sans-serif" font-size="14" lengthAdjust="spacing" textLength="97" x="870.5" y="470.6123">Global Service</text><rect fill="#EBEBEB" height="53" style="stroke:#383838;stroke-width:1.0;" width="163" x="929" y="496.9141"/><text fill="#000000" font-family="sans-serif" font-size="13" lengthAdjust="spacing" textLength="36" x="933" y="512.981">Start,</text><text fill="#000000" font-family="sans-serif" font-size="13" lengthAdjust="spacing" textLength="155" x="933" y="528.1138">[A8] Attach to channels,</text><text fill="#000000" font-family="sans-serif" font-size="13" lengthAdjust="spacing" textLength="124" x="933" y="543.2466">[A9] Ping Shepherd</text><rect fill="#EBEBEB" height="23" style="stroke:#383838;stroke-width:1.0;" width="296" x="390" y="496.9141"/><text fill="#000000" font-family="sans-serif" font-size="13" lengthAdjust="spacing" textLength="288" x="394" y="512.981">[A10] Pend on Message from Global Services</text><polygon fill="#383838" points="554,572.4453,544,576.4453,554,580.4453" style="stroke:#383838;stroke-width:1.0;"/><line style="stroke:#383838;stroke-width:1.0;" x1="548" x2="918" y1="576.4453" y2="576.4453"/><text fill="#000000" font-family="sans-serif" font-size="13" font-weight="bold" lengthAdjust="spacing" textLength="34" x="560" y="571.3794">[M6]</text><text fill="#000000" font-family="sans-serif" font-size="13" lengthAdjust="spacing" textLength="165" x="598" y="571.3794">GSPing SH @ SH Channel</text><rect fill="#EBEBEB" height="23" style="stroke:#383838;stroke-width:1.0;" width="187" x="924" y="589.4453"/><text fill="#000000" font-family="sans-serif" font-size="13" lengthAdjust="spacing" textLength="179" x="928" y="605.5122">[A11] Pend on ping from SH</text><polygon fill="#383838" points="902,634.7109,912,638.7109,902,642.7109" style="stroke:#383838;stroke-width:1.0;"/><line style="stroke:#383838;stroke-width:1.0;" x1="543" x2="908" y1="638.7109" y2="638.7109"/><text fill="#000000" font-family="sans-serif" font-size="13" font-weight="bold" lengthAdjust="spacing" textLength="34" x="550" y="633.645">[M7]</text><text fill="#000000" font-family="sans-serif" font-size="13" lengthAdjust="spacing" textLength="161" x="588" y="633.645">SHPingGS @ GS Channel</text><rect fill="#EBEBEB" height="23" style="stroke:#383838;stroke-width:1.0;" width="143" x="929" y="651.7109"/><text fill="#000000" font-family="sans-serif" font-size="13" lengthAdjust="spacing" textLength="135" x="933" y="667.7778">[A12] Notify LA all-up</text><polygon fill="#383838" points="246,696.9766,236,700.9766,246,704.9766" style="stroke:#383838;stroke-width:1.0;"/><line style="stroke:#383838;stroke-width:1.0;" x1="240" x2="913" y1="700.9766" y2="700.9766"/><text fill="#000000" font-family="sans-serif" font-size="13" font-weight="bold" lengthAdjust="spacing" textLength="34" x="252" y="695.9106">[M8]</text><text fill="#000000" font-family="sans-serif" font-size="13" lengthAdjust="spacing" textLength="157" x="290" y="695.9106">GSIsUp @ BELA Channel</text><rect fill="#EEEEEE" height="3" style="stroke:#EEEEEE;stroke-width:1.0;" width="1228" x="0" y="729.543"/><line style="stroke:#000000;stroke-width:1.0;" x1="0" x2="1228" y1="729.543" y2="729.543"/><line style="stroke:#000000;stroke-width:1.0;" x1="0" x2="1228" y1="732.543" y2="732.543"/><rect fill="#EEEEEE" height="23.1328" style="stroke:#000000;stroke-width:2.0;" width="180" x="524" y="718.9766"/><text fill="#000000" font-family="sans-serif" font-size="13" font-weight="bold" lengthAdjust="spacing" textLength="161" x="530" y="735.0435">Dragon Runtime is up</text><rect fill="#EBEBEB" height="23" style="stroke:#383838;stroke-width:1.0;" width="215" x="5" y="757.1094"/><text fill="#000000" font-family="sans-serif" font-size="13" lengthAdjust="spacing" textLength="207" x="9" y="773.1763">[A13] Start User Program my.py</text><polygon fill="#383838" points="902,802.375,912,806.375,902,810.375" style="stroke:#383838;stroke-width:1.0;"/><line style="stroke:#383838;stroke-width:1.0;" x1="235" x2="908" y1="806.375" y2="806.375"/><text fill="#000000" font-family="sans-serif" font-size="13" font-weight="bold" lengthAdjust="spacing" textLength="34" x="242" y="801.3091">[M9]</text><text fill="#000000" font-family="sans-serif" font-size="13" lengthAdjust="spacing" textLength="155" x="280" y="801.3091">GSProcessCreate my.py</text><rect fill="#EBEBEB" height="38" style="stroke:#383838;stroke-width:1.0;" width="193" x="929" y="819.375"/><text fill="#000000" font-family="sans-serif" font-size="13" lengthAdjust="spacing" textLength="185" x="933" y="835.4419">[A14] Register head process,</text><text fill="#000000" font-family="sans-serif" font-size="13" lengthAdjust="spacing" textLength="157" x="933" y="850.5747">[A15] Start on Shepherd</text><polygon fill="#383838" points="554,879.7734,544,883.7734,554,887.7734" style="stroke:#383838;stroke-width:1.0;"/><line style="stroke:#383838;stroke-width:1.0;" x1="548" x2="913" y1="883.7734" y2="883.7734"/><text fill="#000000" font-family="sans-serif" font-size="13" font-weight="bold" lengthAdjust="spacing" textLength="43" x="560" y="878.7075">[M10]</text><text fill="#000000" font-family="sans-serif" font-size="13" lengthAdjust="spacing" textLength="300" x="607" y="878.7075">SHProcessCreate my.py, parms @ SH Channel</text><rect fill="#EBEBEB" height="23" style="stroke:#383838;stroke-width:1.0;" width="316" x="380" y="896.7734"/><text fill="#000000" font-family="sans-serif" font-size="13" lengthAdjust="spacing" textLength="308" x="384" y="912.8403">[A16] Spawn my.py process &lt;protocol with GS&gt;</text><polygon fill="#383838" points="972.5,942.0391,982.5,946.0391,972.5,950.0391" style="stroke:#383838;stroke-width:1.0;"/><line style="stroke:#383838;stroke-width:1.0;" x1="543" x2="978.5" y1="946.0391" y2="946.0391"/><text fill="#000000" font-family="sans-serif" font-size="13" font-weight="bold" lengthAdjust="spacing" textLength="43" x="550" y="940.9731">[M11]</text><text fill="#000000" font-family="sans-serif" font-size="13" lengthAdjust="spacing" textLength="184" x="597" y="940.9731">cmd/env parms @ OS spawn</text><rect fill="#F8F8F8" height="46.5938" style="stroke:#383838;stroke-width:1.5;" width="108" x="984.5" y="924.9063"/><text fill="#000000" font-family="sans-serif" font-size="14" lengthAdjust="spacing" textLength="94" x="991.5" y="944.9014">User Program</text><text fill="#000000" font-family="sans-serif" font-size="14" lengthAdjust="spacing" textLength="40" x="1018.5" y="961.1982">my.py</text><rect fill="#EBEBEB" height="23" style="stroke:#383838;stroke-width:1.0;" width="175" x="1048" y="987.5"/><text fill="#000000" font-family="sans-serif" font-size="13" lengthAdjust="spacing" textLength="167" x="1052" y="1003.5669">[A17] Example: print('foo')</text><polygon fill="#383838" points="554,1032.7656,544,1036.7656,554,1040.7656" style="stroke:#383838;stroke-width:1.0;"/><line style="stroke:#383838;stroke-width:1.0;" x1="548" x2="1032.5" y1="1036.7656" y2="1036.7656"/><text fill="#000000" font-family="sans-serif" font-size="13" font-weight="bold" lengthAdjust="spacing" textLength="43" x="560" y="1031.6997">[M12]</text><text fill="#000000" font-family="sans-serif" font-size="13" lengthAdjust="spacing" textLength="88" x="607" y="1031.6997">'foo' @ stdout</text><rect fill="#EBEBEB" height="23" style="stroke:#383838;stroke-width:1.0;" width="142" x="467" y="1049.7656"/><text fill="#000000" font-family="sans-serif" font-size="13" lengthAdjust="spacing" textLength="134" x="471" y="1065.8325">[A18] Package ouput</text><polygon fill="#383838" points="246,1095.0313,236,1099.0313,246,1103.0313" style="stroke:#383838;stroke-width:1.0;"/><line style="stroke:#383838;stroke-width:1.0;" x1="240" x2="532" y1="1099.0313" y2="1099.0313"/><text fill="#000000" font-family="sans-serif" font-size="13" font-weight="bold" lengthAdjust="spacing" textLength="43" x="252" y="1093.9653">[M13]</text><text fill="#000000" font-family="sans-serif" font-size="13" lengthAdjust="spacing" textLength="227" x="299" y="1093.9653">SHFwdOutput 'foo' @ BELA Channel</text><rect fill="#EBEBEB" height="38" style="stroke:#383838;stroke-width:1.0;" width="204" x="16" y="1112.0313"/><text fill="#000000" font-family="sans-serif" font-size="13" lengthAdjust="spacing" textLength="119" x="20" y="1128.0981">[A19] Recv output,</text><text fill="#000000" font-family="sans-serif" font-size="13" lengthAdjust="spacing" textLength="196" x="20" y="1143.231">[A20] Dedupe and print output</text><text fill="#000000" font-family="sans-serif" font-size="11" lengthAdjust="spacing" textLength="125" x="571.75" y="1179.5073">Main output continues</text><!--MD5=[081ba50381c89479025b426328659f06]
@startuml
skinparam monochrome true
' skinparam responseMessageBelowArrow true
skinparam style strictuml
'   skinparam maxMessageSize 150

participant "Launcher" as LA
participant "Shepherd" as SH
participant "Global Service" as GS
participant "User Program\nmy.py"  as UP

autonumber "<b>[M0]"
activate LA
rnote left LA: [A1] Start Shepherd

create SH
LA -> SH: cmd/env parms @ OS spawn
activate SH
rnote over SH: [A2] Start,\nmake shared memory segment,\nmake default channels
LA<-SH: SHPing BE @ stdout
rnote over LA: [A3] attach to Shepherd channel
LA->SH: BEPing SH @ SH Channel
rnote over SH: [A4] Ping Launcher via Backend,\nReport on-node Channels up
LA<-SH: SHChannelsUp @ LA Channel
deactivate LA
rnote left LA: [A5] All channels up\n[A6] await all-up
rnote over SH: [A7] Start Global Services

create GS
SH -> GS: cmd/env parms @ OS spawn
deactivate SH
activate GS
rnote right GS: Start,\n[A8] Attach to channels,\n[A9] Ping Shepherd
/ rnote over SH: [A10] Pend on Message from Global Services
SH <- GS: GSPing SH @ SH Channel
deactivate GS
activate SH
rnote right GS: [A11] Pend on ping from SH
SH -> GS: SHPingGS @ GS Channel
activate GS
rnote right GS: [A12] Notify LA all-up
LA <- GS: GSIsUp @ BELA Channel

== Dragon Runtime is up ==

activate LA
rnote left LA: [A13] Start User Program my.py
LA -> GS: GSProcessCreate my.py
rnote right GS: [A14] Register head process,\n[A15] Start on Shepherd
SH <- GS: SHProcessCreate my.py, parms @ SH Channel
rnote over SH: [A16] Spawn my.py process <protocol with GS>

create UP
SH -> UP: cmd/env parms @ OS spawn
activate UP
rnote right UP: [A17] Example: print('foo')
SH <- UP: 'foo' @ stdout
rnote over SH: [A18] Package ouput
LA <- SH: SHFwdOutput 'foo' @ BELA Channel
rnote left LA: [A19] Recv output,\n[A20] Dedupe and print output
... Main output continues ...

@enduml

@startuml
skinparam monochrome true
skinparam style strictuml

participant "Launcher" as LA
participant "Shepherd" as SH
participant "Global Service" as GS
participant "User Program\nmy.py"  as UP

autonumber "<b>[M0]"
activate LA
rnote left LA: [A1] Start Shepherd

create SH
LA -> SH: cmd/env parms @ OS spawn
activate SH
rnote over SH: [A2] Start,\nmake shared memory segment,\nmake default channels
LA<-SH: SHPing BE @ stdout
rnote over LA: [A3] attach to Shepherd channel
LA->SH: BEPing SH @ SH Channel
rnote over SH: [A4] Ping Launcher via Backend,\nReport on-node Channels up
LA<-SH: SHChannelsUp @ LA Channel
deactivate LA
rnote left LA: [A5] All channels up\n[A6] await all-up
rnote over SH: [A7] Start Global Services

create GS
SH -> GS: cmd/env parms @ OS spawn
deactivate SH
activate GS
rnote right GS: Start,\n[A8] Attach to channels,\n[A9] Ping Shepherd
/ rnote over SH: [A10] Pend on Message from Global Services
SH <- GS: GSPing SH @ SH Channel
deactivate GS
activate SH
rnote right GS: [A11] Pend on ping from SH
SH -> GS: SHPingGS @ GS Channel
activate GS
rnote right GS: [A12] Notify LA all-up
LA <- GS: GSIsUp @ BELA Channel

== Dragon Runtime is up ==

activate LA
rnote left LA: [A13] Start User Program my.py
LA -> GS: GSProcessCreate my.py
rnote right GS: [A14] Register head process,\n[A15] Start on Shepherd
SH <- GS: SHProcessCreate my.py, parms @ SH Channel
rnote over SH: [A16] Spawn my.py process <protocol with GS>

create UP
SH -> UP: cmd/env parms @ OS spawn
activate UP
rnote right UP: [A17] Example: print('foo')
SH <- UP: 'foo' @ stdout
rnote over SH: [A18] Package ouput
LA <- SH: SHFwdOutput 'foo' @ BELA Channel
rnote left LA: [A19] Recv output,\n[A20] Dedupe and print output
... Main output continues ...

@enduml

PlantUML version 1.2022.1(Tue Feb 01 18:19:58 GMT 2022)
(GPL source distribution)
Java Runtime: OpenJDK Runtime Environment
JVM: OpenJDK 64-Bit Server VM
Default Encoding: UTF-8
Language: en
Country: US
--></g></svg>